OpenSans-ThinItalic.ufo
<glyph name="numbersign" format="2">
  <advance width="1257"/>
  <unicode hex="0023"/>
  <outline>
    <contour>
      <point x="219" y="0" type="line"/>
      <point x="270" y="0" type="line"/>
      <point x="406" y="465" type="line"/>
      <point x="793" y="465" type="line"/>
      <point x="653" y="0" type="line"/>
      <point x="707" y="0" type="line"/>
      <point x="846" y="465" type="line"/>
      <point x="1147" y="465" type="line"/>
      <point x="1151" y="514" type="line"/>
      <point x="858" y="514" type="line"/>
      <point x="979" y="946" type="line"/>
      <point x="1274" y="946" type="line"/>
      <point x="1278" y="995" type="line"/>
      <point x="991" y="995" type="line"/>
      <point x="1126" y="1462" type="line"/>
      <point x="1075" y="1462" type="line"/>
      <point x="940" y="995" type="line"/>
      <point x="559" y="995" type="line"/>
      <point x="692" y="1462" type="line"/>
      <point x="641" y="1462" type="line"/>
      <point x="506" y="995" type="line"/>
      <point x="203" y="995" type="line"/>
      <point x="199" y="946" type="line"/>
      <point x="492" y="946" type="line"/>
      <point x="365" y="514" type="line"/>
      <point x="76" y="514" type="line"/>
      <point x="72" y="465" type="line"/>
      <point x="352" y="465" type="line"/>
    </contour>
    <contour>
      <point x="418" y="514" type="line"/>
      <point x="545" y="946" type="line"/>
      <point x="926" y="946" type="line"/>
      <point x="805" y="514" type="line"/>
    </contour>
  </outline>
</glyph>
<glyph name="parenleft" format="2">
  <advance width="496"/>
  <unicode hex="0028"/>
  <outline>
    <contour>
      <point x="199" y="-324" type="curve"/>
      <point x="258" y="-324" type="line"/>
      <point x="166" y="-162"/>
      <point x="119" y="31"/>
      <point x="119" y="242" type="curve" smooth="yes"/>
      <point x="119" y="696"/>
      <point x="311" y="1149"/>
      <point x="637" y="1462" type="curve"/>
      <point x="567" y="1462" type="line"/>
      <point x="279" y="1182"/>
      <point x="66" y="739"/>
      <point x="66" y="242" type="curve" smooth="yes"/>
      <point x="66" y="23"/>
      <point x="113" y="-170"/>
    </contour>
  </outline>
</glyph>
<glyph name="comma" format="2">
  <advance width="375"/>
  <unicode hex="002C"/>
  <outline>
    <contour>
      <point x="-92" y="-264" type="curve"/>
      <point x="-45" y="-264" type="line"/>
      <point x="41" y="-123"/>
      <point x="123" y="61"/>
      <point x="180" y="213" type="curve"/>
      <point x="178" y="238" type="line"/>
      <point x="123" y="238" type="line"/>
      <point x="70" y="82"/>
      <point x="8" y="-66"/>
    </contour>
  </outline>
</glyph>
<glyph name="zero" format="2">
  <advance width="1126"/>
  <unicode hex="0030"/>
  <outline>
    <contour>
      <point x="483" y="-20" type="curve" smooth="yes"/>
      <point x="881" y="-20"/>
      <point x="1081" y="559"/>
      <point x="1081" y="1069" type="curve" smooth="yes"/>
      <point x="1081" y="1319"/>
      <point x="969" y="1485"/>
      <point x="735" y="1485" type="curve" smooth="yes"/>
      <point x="309" y="1485"/>
      <point x="135" y="868"/>
      <point x="135" y="416" type="curve" smooth="yes"/>
      <point x="135" y="127"/>
      <point x="274" y="-20"/>
    </contour>
    <contour>
      <point x="485" y="31" type="curve" smooth="yes"/>
      <point x="303" y="31"/>
      <point x="190" y="156"/>
      <point x="190" y="418" type="curve" smooth="yes"/>
      <point x="190" y="831"/>
      <point x="344" y="1434"/>
      <point x="733" y="1434" type="curve" smooth="yes"/>
      <point x="936" y="1434"/>
      <point x="1026" y="1294"/>
      <point x="1026" y="1065" type="curve" smooth="yes"/>
      <point x="1026" y="596"/>
      <point x="840" y="31"/>
    </contour>
  </outline>
</glyph>
<glyph name="eight" format="2">
  <advance width="1126"/>
  <unicode hex="0038"/>
  <outline>
    <contour>
      <point x="487" y="-20" type="curve" smooth="yes"/>
      <point x="741" y="-20"/>
      <point x="967" y="123"/>
      <point x="967" y="389" type="curve" smooth="yes"/>
      <point x="967" y="594"/>
      <point x="836" y="682"/>
      <point x="682" y="764" type="curve"/>
      <point x="909" y="852"/>
      <point x="1085" y="969"/>
      <point x="1085" y="1188" type="curve" smooth="yes"/>
      <point x="1085" y="1350"/>
      <point x="944" y="1483"/>
      <point x="739" y="1483" type="curve" smooth="yes"/>
      <point x="502" y="1483"/>
      <point x="330" y="1339"/>
      <point x="330" y="1110" type="curve" smooth="yes"/>
      <point x="330" y="940"/>
      <point x="440" y="848"/>
      <point x="561" y="772" type="curve"/>
      <point x="303" y="690"/>
      <point x="96" y="584"/>
      <point x="96" y="324" type="curve" smooth="yes"/>
      <point x="96" y="119"/>
      <point x="262" y="-20"/>
    </contour>
    <contour>
      <point x="489" y="31" type="curve" smooth="yes"/>
      <point x="295" y="31"/>
      <point x="150" y="141"/>
      <point x="150" y="324" type="curve" smooth="yes"/>
      <point x="150" y="575"/>
      <point x="373" y="662"/>
      <point x="621" y="743" type="curve"/>
      <point x="791" y="647"/>
      <point x="913" y="582"/>
      <point x="913" y="389" type="curve" smooth="yes"/>
      <point x="913" y="147"/>
      <point x="711" y="31"/>
    </contour>
    <contour>
      <point x="627" y="793" type="curve"/>
      <point x="485" y="872"/>
      <point x="383" y="961"/>
      <point x="383" y="1110" type="curve" smooth="yes"/>
      <point x="383" y="1323"/>
      <point x="539" y="1432"/>
      <point x="737" y="1432" type="curve" smooth="yes"/>
      <point x="903" y="1432"/>
      <point x="1030" y="1339"/>
      <point x="1030" y="1188" type="curve" smooth="yes"/>
      <point x="1030" y="985"/>
      <point x="856" y="877"/>
    </contour>
  </outline>
</glyph>
<glyph name="colon" format="2">
  <advance width="430"/>
  <unicode hex="003A"/>
  <outline>
    <contour>
      <point x="322" y="963" type="curve" smooth="yes"/>
      <point x="360" y="963"/>
      <point x="381" y="1008"/>
      <point x="381" y="1044" type="curve" smooth="yes"/>
      <point x="381" y="1067"/>
      <point x="369" y="1090"/>
      <point x="336" y="1090" type="curve" smooth="yes"/>
      <point x="295" y="1090"/>
      <point x="274" y="1044"/>
      <point x="274" y="1008" type="curve" smooth="yes"/>
      <point x="274" y="979"/>
      <point x="293" y="963"/>
    </contour>
    <contour>
      <point x="113" y="-16" type="curve" smooth="yes"/>
      <point x="152" y="-16"/>
      <point x="172" y="29"/>
      <point x="172" y="66" type="curve" smooth="yes"/>
      <point x="172" y="88"/>
      <point x="160" y="111"/>
      <point x="127" y="111" type="curve" smooth="yes"/>
      <point x="86" y="111"/>
      <point x="66" y="66"/>
      <point x="66" y="29" type="curve" smooth="yes"/>
      <point x="66" y="0"/>
      <point x="84" y="-16"/>
    </contour>
  </outline>
</glyph>
<glyph name="semicolon" format="2">
  <advance width="430"/>
  <unicode hex="003B"/>
  <outline>
    <contour>
      <point x="-92" y="-264" type="curve"/>
      <point x="-45" y="-264" type="line"/>
      <point x="41" y="-123"/>
      <point x="123" y="61"/>
      <point x="180" y="213" type="curve"/>
      <point x="178" y="238" type="line"/>
      <point x="123" y="238" type="line"/>
      <point x="70" y="82"/>
      <point x="8" y="-66"/>
    </contour>
    <contour>
      <point x="319" y="963" type="curve" smooth="yes"/>
      <point x="358" y="963"/>
      <point x="379" y="1008"/>
      <point x="379" y="1044" type="curve" smooth="yes"/>
      <point x="379" y="1067"/>
      <point x="367" y="1090"/>
      <point x="334" y="1090" type="curve" smooth="yes"/>
      <point x="293" y="1090"/>
      <point x="272" y="1044"/>
      <point x="272" y="1008" type="curve" smooth="yes"/>
      <point x="272" y="979"/>
      <point x="291" y="963"/>
    </contour>
  </outline>
</glyph>
<glyph name="equal" format="2">
  <advance width="1167"/>
  <unicode hex="003D"/>
  <outline>
    <contour>
      <point x="154" y="907" type="line"/>
      <point x="1096" y="907" type="line"/>
      <point x="1096" y="956" type="line"/>
      <point x="154" y="956" type="line"/>
    </contour>
    <contour>
      <point x="154" y="489" type="line"/>
      <point x="1096" y="489" type="line"/>
      <point x="1096" y="539" type="line"/>
      <point x="154" y="539" type="line"/>
    </contour>
  </outline>
</glyph>
<glyph name="greater" format="2">
  <advance width="1167"/>
  <unicode hex="003E"/>
  <outline>
    <contour>
      <point x="156" y="336" type="line"/>
      <point x="156" y="283" type="line"/>
      <point x="1094" y="723" type="line"/>
      <point x="1094" y="760" type="line"/>
      <point x="156" y="1200" type="line"/>
      <point x="156" y="1147" type="line"/>
      <point x="1022" y="741" type="line"/>
    </contour>
  </outline>
</glyph>
<glyph name="question" format="2">
  <advance width="825"/>
  <unicode hex="003F"/>
  <outline>
    <contour>
      <point x="248" y="356" type="curve"/>
      <point x="297" y="356" type="line"/>
      <point x="334" y="563"/>
      <point x="426" y="637"/>
      <point x="553" y="731" type="curve" smooth="yes"/>
      <point x="727" y="854"/>
      <point x="862" y="952"/>
      <point x="862" y="1167" type="curve" smooth="yes"/>
      <point x="862" y="1348"/>
      <point x="737" y="1483"/>
      <point x="539" y="1483" type="curve" smooth="yes"/>
      <point x="453" y="1483"/>
      <point x="367" y="1466"/>
      <point x="248" y="1413" type="curve"/>
      <point x="268" y="1366" type="line"/>
      <point x="371" y="1411"/>
      <point x="459" y="1432"/>
      <point x="539" y="1432" type="curve" smooth="yes"/>
      <point x="700" y="1432"/>
      <point x="809" y="1327"/>
      <point x="809" y="1165" type="curve" smooth="yes"/>
      <point x="809" y="963"/>
      <point x="666" y="877"/>
      <point x="528" y="772" type="curve" smooth="yes"/>
      <point x="381" y="655"/>
      <point x="287" y="592"/>
    </contour>
    <contour>
      <point x="213" y="-16" type="curve" smooth="yes"/>
      <point x="252" y="-16"/>
      <point x="272" y="29"/>
      <point x="272" y="66" type="curve" smooth="yes"/>
      <point x="272" y="88"/>
      <point x="260" y="111"/>
      <point x="227" y="111" type="curve" smooth="yes"/>
      <point x="186" y="111"/>
      <point x="166" y="66"/>
      <point x="166" y="29" type="curve" smooth="yes"/>
      <point x="166" y="0"/>
      <point x="184" y="-16"/>
    </contour>
  </outline>
</glyph>
<glyph name="A" format="2">
  <advance width="1120"/>
  <unicode hex="0041"/>
  <anchor x="446" y="0" name="bottom"/>
  <anchor x="776" y="1462" name="top"/>
  <anchor x="1276" y="1462" name="topright"/>
  <outline>
    <contour>
      <point x="-102" y="0" type="line"/>
      <point x="-41" y="0" type="line"/>
      <point x="283" y="555" type="line"/>
      <point x="885" y="555" type="line"/>
      <point x="969" y="0" type="line"/>
      <point x="1020" y="0" type="line"/>
      <point x="803" y="1466" type="line"/>
      <point x="754" y="1466" type="line"/>
    </contour>
    <contour>
      <point x="311" y="606" type="line"/>
      <point x="664" y="1217" type="line" smooth="yes"/>
      <point x="696" y="1274"/>
      <point x="731" y="1335"/>
      <point x="762" y="1397" type="curve"/>
      <point x="766" y="1397" type="line"/>
      <point x="772" y="1333"/>
      <point x="780" y="1268"/>
      <point x="788" y="1217" type="curve" smooth="yes"/>
      <point x="877" y="606" type="line"/>
    </contour>
  </outline>
</glyph>
<glyph name="E" format="2">
  <advance width="1096"/>
  <unicode hex="0045"/>
  <anchor x="434" y="0" name="bottom"/>
  <anchor x="745" y="1462" name="top"/>
  <anchor x="1251" y="1462" name="topright"/>
  <outline>
    <contour>
      <point x="102" y="0" type="line"/>
      <point x="836" y="0" type="line"/>
      <point x="846" y="51" type="line"/>
      <point x="168" y="51" type="line"/>
      <point x="315" y="745" type="line"/>
      <point x="954" y="745" type="line"/>
      <point x="965" y="797" type="line"/>
      <point x="326" y="797" type="line"/>
      <point x="457" y="1411" type="line"/>
      <point x="1135" y="1411" type="line"/>
      <point x="1145" y="1462" type="line"/>
      <point x="412" y="1462" type="line"/>
    </contour>
  </outline>
</glyph>
<glyph name="F" format="2">
  <advance width="997"/>
  <unicode hex="0046"/>
  <anchor x="385" y="0" name="bottom"/>
  <anchor x="696" y="1462" name="top"/>
  <anchor x="1153" y="1462" name="topright"/>
  <outline>
    <contour>
      <point x="102" y="0" type="line"/>
      <point x="158" y="0" type="line"/>
      <point x="299" y="674" type="line"/>
      <point x="942" y="674" type="line"/>
      <point x="954" y="725" type="line"/>
      <point x="311" y="725" type="line"/>
      <point x="457" y="1411" type="line"/>
      <point x="1137" y="1411" type="line"/>
      <point x="1147" y="1462" type="line"/>
      <point x="412" y="1462" type="line"/>
    </contour>
  </outline>
</glyph>
<glyph name="G" format="2">
  <advance width="1413"/>
  <unicode hex="0047"/>
  <anchor x="592" y="0" name="bottom"/>
  <anchor x="903" y="1462" name="top"/>
  <anchor x="1569" y="1462" name="topright"/>
  <outline>
    <contour>
      <point x="682" y="-20" type="curve" smooth="yes"/>
      <point x="831" y="-20"/>
      <point x="997" y="10"/>
      <point x="1135" y="74" type="curve"/>
      <point x="1272" y="717" type="line"/>
      <point x="807" y="717" type="line"/>
      <point x="795" y="666" type="line"/>
      <point x="1206" y="666" type="line"/>
      <point x="1087" y="109" type="line"/>
      <point x="981" y="63"/>
      <point x="829" y="31"/>
      <point x="684" y="31" type="curve" smooth="yes"/>
      <point x="418" y="31"/>
      <point x="225" y="199"/>
      <point x="225" y="547" type="curve" smooth="yes"/>
      <point x="225" y="1085"/>
      <point x="561" y="1432"/>
      <point x="948" y="1432" type="curve" smooth="yes"/>
      <point x="1087" y="1432"/>
      <point x="1221" y="1399"/>
      <point x="1337" y="1346" type="curve"/>
      <point x="1360" y="1397" type="line"/>
      <point x="1239" y="1450"/>
      <point x="1104" y="1483"/>
      <point x="950" y="1483" type="curve" smooth="yes"/>
      <point x="537" y="1483"/>
      <point x="172" y="1122"/>
      <point x="172" y="547" type="curve" smooth="yes"/>
      <point x="172" y="199"/>
      <point x="354" y="-20"/>
    </contour>
  </outline>
</glyph>
<glyph name="I" format="2">
  <advance width="473"/>
  <unicode hex="0049"/>
  <anchor x="123" y="0" name="bottom"/>
  <anchor x="434" y="1462" name="top"/>
  <anchor x="625" y="1462" name="topright"/>
  <outline>
    <contour>
      <point x="100" y="0" type="line"/>
      <point x="154" y="0" type="line"/>
      <point x="465" y="1462" type="line"/>
      <point x="412" y="1462" type="line"/>
    </contour>
  </outline>
</glyph>
<glyph name="N" format="2">
  <advance width="1380"/>
  <unicode hex="004E"/>
  <anchor x="575" y="0" name="bottom"/>
  <anchor x="887" y="1462" name="top"/>
  <anchor x="1536" y="1462" name="topright"/>
  <outline>
    <contour>
      <point x="102" y="0" type="line"/>
      <point x="158" y="0" type="line"/>
      <point x="375" y="1028" type="line" smooth="yes"/>
      <point x="397" y="1137"/>
      <point x="414" y="1231"/>
      <point x="438" y="1350" type="curve"/>
      <point x="442" y="1350" type="line"/>
      <point x="1020" y="0" type="line"/>
      <point x="1061" y="0" type="line"/>
      <point x="1370" y="1462" type="line"/>
      <point x="1317" y="1462" type="line"/>
      <point x="1098" y="432" type="line" smooth="yes"/>
      <point x="1077" y="336"/>
      <point x="1055" y="217"/>
      <point x="1034" y="111" type="curve"/>
      <point x="1030" y="111" type="line"/>
      <point x="451" y="1462" type="line"/>
      <point x="412" y="1462" type="line"/>
    </contour>
  </outline>
</glyph>
<glyph name="O" format="2">
  <advance width="1466"/>
  <unicode hex="004F"/>
  <anchor x="618" y="0" name="bottom"/>
  <anchor x="774" y="731" name="center"/>
  <anchor x="930" y="1462" name="top"/>
  <anchor x="1622" y="1462" name="topright"/>
  <outline>
    <contour>
      <point x="684" y="-20" type="curve" smooth="yes"/>
      <point x="1237" y="-20"/>
      <point x="1384" y="594"/>
      <point x="1384" y="913" type="curve" smooth="yes"/>
      <point x="1384" y="1303"/>
      <point x="1186" y="1485"/>
      <point x="883" y="1485" type="curve" smooth="yes"/>
      <point x="395" y="1485"/>
      <point x="172" y="1014"/>
      <point x="172" y="565" type="curve" smooth="yes"/>
      <point x="172" y="246"/>
      <point x="307" y="-20"/>
    </contour>
    <contour>
      <point x="686" y="31" type="curve" smooth="yes"/>
      <point x="362" y="31"/>
      <point x="227" y="252"/>
      <point x="227" y="567" type="curve" smooth="yes"/>
      <point x="227" y="922"/>
      <point x="395" y="1434"/>
      <point x="879" y="1434" type="curve" smooth="yes"/>
      <point x="1186" y="1434"/>
      <point x="1329" y="1233"/>
      <point x="1329" y="911" type="curve" smooth="yes"/>
      <point x="1329" y="590"/>
      <point x="1169" y="31"/>
    </contour>
  </outline>
</glyph>
<glyph name="R" format="2">
  <advance width="1151"/>
  <unicode hex="0052"/>
  <anchor x="461" y="0" name="bottom"/>
  <anchor x="772" y="1462" name="top"/>
  <anchor x="1307" y="1462" name="topright"/>
  <outline>
    <contour>
      <point x="102" y="0" type="line"/>
      <point x="158" y="0" type="line"/>
      <point x="297" y="655" type="line"/>
      <point x="680" y="655" type="line"/>
      <point x="913" y="0" type="line"/>
      <point x="973" y="0" type="line"/>
      <point x="733" y="666" type="line"/>
      <point x="997" y="711"/>
      <point x="1143" y="862"/>
      <point x="1143" y="1124" type="curve" smooth="yes"/>
      <point x="1143" y="1352"/>
      <point x="997" y="1462"/>
      <point x="713" y="1462" type="curve" smooth="yes"/>
      <point x="412" y="1462" type="line"/>
    </contour>
    <contour>
      <point x="307" y="707" type="line"/>
      <point x="457" y="1411" type="line"/>
      <point x="700" y="1411" type="line" smooth="yes"/>
      <point x="963" y="1411"/>
      <point x="1087" y="1317"/>
      <point x="1087" y="1122" type="curve" smooth="yes"/>
      <point x="1087" y="829"/>
      <point x="877" y="707"/>
      <point x="618" y="707" type="curve" smooth="yes"/>
    </contour>
  </outline>
</glyph>
<glyph name="T" format="2">
  <advance width="993"/>
  <unicode hex="0054"/>
  <anchor x="383" y="0" name="bottom"/>
  <anchor x="539" y="731" name="center"/>
  <anchor x="694" y="1462" name="top"/>
  <anchor x="1149" y="1462" name="topright"/>
  <outline>
    <contour>
      <point x="352" y="0" type="line"/>
      <point x="408" y="0" type="line"/>
      <point x="707" y="1411" type="line"/>
      <point x="1169" y="1411" type="line"/>
      <point x="1180" y="1462" type="line"/>
      <point x="201" y="1462" type="line"/>
      <point x="190" y="1411" type="line"/>
      <point x="651" y="1411" type="line"/>
    </contour>
  </outline>
</glyph>
<glyph name="bracketleft" format="2">
  <advance width="621"/>
  <unicode hex="005B"/>
  <outline>
    <contour>
      <point x="-18" y="-324" type="line"/>
      <point x="377" y="-324" type="line"/>
      <point x="391" y="-268" type="line"/>
      <point x="49" y="-268" type="line"/>
      <point x="406" y="1407" type="line"/>
      <point x="743" y="1407" type="line"/>
      <point x="756" y="1462" type="line"/>
      <point x="362" y="1462" type="line"/>
    </contour>
  </outline>
</glyph>
<glyph name="grave" format="2">
  <advance width="463"/>
  <unicode hex="0060"/>
  <anchor x="412" y="1087" name="_top"/>
  <outline>
    <contour>
      <point x="500" y="1241" type="curve"/>
      <point x="530" y="1241" type="line"/>
      <point x="530" y="1266" type="line"/>
      <point x="483" y="1329"/>
      <point x="399" y="1464"/>
      <point x="358" y="1569" type="curve"/>
      <point x="301" y="1569" type="line"/>
      <point x="301" y="1548" type="line"/>
      <point x="336" y="1475"/>
      <point x="436" y="1315"/>
    </contour>
  </outline>
</glyph>
<glyph name="g" format="2">
  <advance width="1040"/>
  <unicode hex="0067"/>
  <note>
g
</note>
  <anchor x="365" y="-492" name="bottom"/>
  <anchor x="605" y="1081" name="top"/>
  <anchor x="1113" y="1081" name="topright"/>
  <outline>
    <contour>
      <point x="317" y="-492" type="curve" smooth="yes"/>
      <point x="566" y="-492"/>
      <point x="849" y="-391"/>
      <point x="849" y="-125" type="curve" smooth="yes"/>
      <point x="849" y="18"/>
      <point x="725" y="110"/>
      <point x="502" y="126" type="curve" smooth="yes"/>
      <point x="378" y="135" type="line" smooth="yes"/>
      <point x="263" y="143"/>
      <point x="221" y="192"/>
      <point x="221" y="251" type="curve" smooth="yes"/>
      <point x="221" y="301"/>
      <point x="266" y="379"/>
      <point x="396" y="416" type="curve"/>
      <point x="422" y="410"/>
      <point x="450" y="406"/>
      <point x="480" y="406" type="curve" smooth="yes"/>
      <point x="748" y="406"/>
      <point x="883" y="568"/>
      <point x="890" y="793" type="curve" smooth="yes"/>
      <point x="894" y="886"/>
      <point x="866" y="966"/>
      <point x="814" y="1021" type="curve"/>
      <point x="1080" y="1022" type="line"/>
      <point x="1091" y="1080" type="line"/>
      <point x="727" y="1080" type="line"/>
      <point x="692" y="1094"/>
      <point x="652" y="1102"/>
      <point x="608" y="1102" type="curve" smooth="yes"/>
      <point x="367" y="1102"/>
      <point x="207" y="950"/>
      <point x="199" y="722" type="curve" smooth="yes"/>
      <point x="195" y="609"/>
      <point x="238" y="496"/>
      <point x="336" y="441" type="curve"/>
      <point x="221" y="393"/>
      <point x="166" y="325"/>
      <point x="166" y="252" type="curve" smooth="yes"/>
      <point x="166" y="200"/>
      <point x="189" y="153"/>
      <point x="236" y="126" type="curve"/>
      <point x="43" y="64"/>
      <point x="-68" y="-53"/>
      <point x="-68" y="-221" type="curve" smooth="yes"/>
      <point x="-68" y="-393"/>
      <point x="77" y="-492"/>
    </contour>
    <contour>
      <point x="329" y="-441" type="curve" smooth="yes"/>
      <point x="125" y="-441"/>
      <point x="-12" y="-374"/>
      <point x="-12" y="-216" type="curve" smooth="yes"/>
      <point x="-12" y="-75"/>
      <point x="82" y="39"/>
      <point x="302" y="99" type="curve"/>
      <point x="473" y="85" type="line" smooth="yes"/>
      <point x="673" y="69"/>
      <point x="793" y="13"/>
      <point x="793" y="-136" type="curve" smooth="yes"/>
      <point x="793" y="-311"/>
      <point x="620" y="-441"/>
    </contour>
    <contour>
      <point x="496" y="457" type="curve" smooth="yes"/>
      <point x="343" y="457"/>
      <point x="248" y="547"/>
      <point x="254" y="720" type="curve" smooth="yes"/>
      <point x="261" y="918"/>
      <point x="388" y="1051"/>
      <point x="594" y="1051" type="curve" smooth="yes"/>
      <point x="748" y="1051"/>
      <point x="842" y="948"/>
      <point x="836" y="788" type="curve" smooth="yes"/>
      <point x="829" y="590"/>
      <point x="702" y="457"/>
    </contour>
  </outline>
</glyph>
<glyph name="l" format="2">
  <advance width="424"/>
  <unicode hex="006C"/>
  <anchor x="98" y="0" name="bottom"/>
  <anchor x="213" y="541" name="center"/>
  <anchor x="428" y="1556" name="top"/>
  <anchor x="598" y="1556" name="topright"/>
  <outline>
    <contour>
      <point x="66" y="0" type="line"/>
      <point x="119" y="0" type="line"/>
      <point x="449" y="1556" type="line"/>
      <point x="395" y="1556" type="line"/>
    </contour>
  </outline>
</glyph>
<glyph name="t" format="2">
  <advance width="633"/>
  <unicode hex="0074"/>
  <anchor x="264" y="0" name="bottom"/>
  <anchor x="276" y="541" name="center"/>
  <anchor x="489" y="1350" name="top"/>
  <anchor x="764" y="1350" name="topright"/>
  <outline>
    <contour>
      <point x="299" y="-20" type="curve" smooth="yes"/>
      <point x="369" y="-20"/>
      <point x="416" y="-8"/>
      <point x="459" y="6" type="curve"/>
      <point x="459" y="57" type="line"/>
      <point x="416" y="41"/>
      <point x="367" y="31"/>
      <point x="301" y="31" type="curve" smooth="yes"/>
      <point x="201" y="31"/>
      <point x="160" y="82"/>
      <point x="160" y="172" type="curve" smooth="yes"/>
      <point x="160" y="207"/>
      <point x="164" y="248"/>
      <point x="174" y="293" type="curve" smooth="yes"/>
      <point x="330" y="1030" type="line"/>
      <point x="664" y="1030" type="line"/>
      <point x="676" y="1081" type="line"/>
      <point x="342" y="1081" type="line"/>
      <point x="399" y="1350" type="line"/>
      <point x="356" y="1350" type="line"/>
      <point x="287" y="1081" type="line"/>
      <point x="129" y="1075" type="line"/>
      <point x="119" y="1030" type="line"/>
      <point x="276" y="1030" type="line"/>
      <point x="119" y="287" type="line" smooth="yes"/>
      <point x="109" y="244"/>
      <point x="104" y="203"/>
      <point x="104" y="168" type="curve" smooth="yes"/>
      <point x="104" y="49"/>
      <point x="164" y="-20"/>
    </contour>
  </outline>
</glyph>
<glyph name="v" format="2">
  <advance width="840"/>
  <unicode hex="0076"/>
  <anchor x="305" y="0" name="bottom"/>
  <anchor x="535" y="1081" name="top"/>
  <anchor x="913" y="1081" name="topright"/>
  <outline>
    <contour>
      <point x="270" y="0" type="line"/>
      <point x="313" y="0" type="line"/>
      <point x="940" y="1081" type="line"/>
      <point x="881" y="1081" type="line"/>
      <point x="420" y="283" type="line" smooth="yes"/>
      <point x="371" y="197"/>
      <point x="342" y="139"/>
      <point x="307" y="74" type="curve"/>
      <point x="303" y="74" type="line"/>
      <point x="297" y="141"/>
      <point x="291" y="195"/>
      <point x="276" y="283" type="curve" smooth="yes"/>
      <point x="156" y="1081" type="line"/>
      <point x="102" y="1081" type="line"/>
    </contour>
  </outline>
</glyph>
<glyph name="z" format="2">
  <advance width="893"/>
  <unicode hex="007A"/>
  <anchor x="332" y="0" name="bottom"/>
  <anchor x="561" y="1081" name="top"/>
  <anchor x="967" y="1081" name="topright"/>
  <outline>
    <contour>
      <point x="-29" y="0" type="line"/>
      <point x="688" y="0" type="line"/>
      <point x="698" y="51" type="line"/>
      <point x="57" y="51" type="line"/>
      <point x="887" y="1051" type="line"/>
      <point x="893" y="1081" type="line"/>
      <point x="233" y="1081" type="line"/>
      <point x="221" y="1030" type="line"/>
      <point x="801" y="1030" type="line"/>
      <point x="-23" y="35" type="line"/>
    </contour>
  </outline>
</glyph>
<glyph name="exclamdown" format="2">
  <advance width="430"/>
  <unicode hex="00A1"/>
  <outline>
    <contour>
      <point x="-10" y="-373" type="line"/>
      <point x="47" y="-373" type="line"/>
      <point x="281" y="725" type="line"/>
      <point x="231" y="725" type="line"/>
    </contour>
    <contour>
      <point x="311" y="971" type="curve" smooth="yes"/>
      <point x="352" y="971"/>
      <point x="373" y="1016"/>
      <point x="373" y="1053" type="curve" smooth="yes"/>
      <point x="373" y="1081"/>
      <point x="354" y="1098"/>
      <point x="326" y="1098" type="curve" smooth="yes"/>
      <point x="287" y="1098"/>
      <point x="266" y="1053"/>
      <point x="266" y="1016" type="curve" smooth="yes"/>
      <point x="266" y="993"/>
      <point x="279" y="971"/>
    </contour>
  </outline>
</glyph>
<glyph name="sterling" format="2">
  <advance width="1126"/>
  <unicode hex="00A3"/>
  <outline>
    <contour>
      <point x="-12" y="0" type="line"/>
      <point x="913" y="0" type="line"/>
      <point x="924" y="51" type="line"/>
      <point x="141" y="51" type="line"/>
      <point x="246" y="98"/>
      <point x="313" y="184"/>
      <point x="354" y="375" type="curve" smooth="yes"/>
      <point x="420" y="686" type="line"/>
      <point x="809" y="686" type="line"/>
      <point x="819" y="737" type="line"/>
      <point x="432" y="737" type="line"/>
      <point x="498" y="1049" type="line" smooth="yes"/>
      <point x="553" y="1309"/>
      <point x="664" y="1430"/>
      <point x="868" y="1430" type="curve" smooth="yes"/>
      <point x="971" y="1430"/>
      <point x="1053" y="1395"/>
      <point x="1116" y="1366" type="curve"/>
      <point x="1141" y="1415" type="line"/>
      <point x="1077" y="1448"/>
      <point x="981" y="1481"/>
      <point x="868" y="1481" type="curve" smooth="yes"/>
      <point x="635" y="1481"/>
      <point x="506" y="1343"/>
      <point x="446" y="1061" type="curve" smooth="yes"/>
      <point x="379" y="737" type="line"/>
      <point x="170" y="737" type="line"/>
      <point x="160" y="686" type="line"/>
      <point x="367" y="686" type="line"/>
      <point x="303" y="383" type="line" smooth="yes"/>
      <point x="260" y="182"/>
      <point x="160" y="78"/>
      <point x="-4" y="47" type="curve"/>
    </contour>
  </outline>
</glyph>
<glyph name="currency" format="2">
  <advance width="1167"/>
  <unicode hex="00A4"/>
  <outline>
    <contour>
      <point x="1053" y="258" type="line"/>
      <point x="1085" y="291" type="line"/>
      <point x="926" y="451" type="line"/>
      <point x="995" y="528"/>
      <point x="1030" y="627"/>
      <point x="1030" y="725" type="curve" smooth="yes"/>
      <point x="1030" y="823"/>
      <point x="995" y="922"/>
      <point x="926" y="999" type="curve"/>
      <point x="1083" y="1157" type="line"/>
      <point x="1053" y="1190" type="line"/>
      <point x="895" y="1032" type="line"/>
      <point x="817" y="1102"/>
      <point x="717" y="1137"/>
      <point x="618" y="1137" type="curve" smooth="yes"/>
      <point x="520" y="1137"/>
      <point x="422" y="1102"/>
      <point x="344" y="1032" type="curve"/>
      <point x="184" y="1192" type="line"/>
      <point x="154" y="1159" type="line"/>
      <point x="311" y="999" type="line"/>
      <point x="244" y="922"/>
      <point x="209" y="823"/>
      <point x="209" y="725" type="curve" smooth="yes"/>
      <point x="209" y="627"/>
      <point x="244" y="528"/>
      <point x="311" y="451" type="curve"/>
      <point x="154" y="291" type="line"/>
      <point x="184" y="258" type="line"/>
      <point x="344" y="418" type="line"/>
      <point x="422" y="348"/>
      <point x="520" y="313"/>
      <point x="618" y="313" type="curve" smooth="yes"/>
      <point x="717" y="313"/>
      <point x="817" y="348"/>
      <point x="895" y="418" type="curve"/>
    </contour>
    <contour>
      <point x="616" y="358" type="curve" smooth="yes"/>
      <point x="416" y="358"/>
      <point x="254" y="522"/>
      <point x="254" y="725" type="curve" smooth="yes"/>
      <point x="254" y="926"/>
      <point x="418" y="1092"/>
      <point x="621" y="1092" type="curve" smooth="yes"/>
      <point x="821" y="1092"/>
      <point x="985" y="928"/>
      <point x="985" y="727" type="curve" smooth="yes"/>
      <point x="985" y="524"/>
      <point x="819" y="358"/>
    </contour>
  </outline>
</glyph>
<glyph name="brokenbar" format="2">
  <advance width="1096"/>
  <unicode hex="00A6"/>
  <outline>
    <contour>
      <point x="578" y="809" type="line"/>
      <point x="629" y="809" type="line"/>
      <point x="629" y="1556" type="line"/>
      <point x="578" y="1556" type="line"/>
    </contour>
    <contour>
      <point x="578" y="-492" type="line"/>
      <point x="629" y="-492" type="line"/>
      <point x="629" y="258" type="line"/>
      <point x="578" y="258" type="line"/>
    </contour>
  </outline>
</glyph>
<glyph name="section" format="2">
  <advance width="1020"/>
  <unicode hex="00A7"/>
  <outline>
    <contour>
      <point x="360" y="-2" type="curve" smooth="yes"/>
      <point x="604" y="-2"/>
      <point x="766" y="92"/>
      <point x="766" y="287" type="curve" smooth="yes"/>
      <point x="766" y="377"/>
      <point x="717" y="430"/>
      <point x="647" y="473" type="curve"/>
      <point x="760" y="535"/>
      <point x="887" y="643"/>
      <point x="887" y="801" type="curve" smooth="yes"/>
      <point x="887" y="971"/>
      <point x="735" y="1024"/>
      <point x="618" y="1075" type="curve" smooth="yes"/>
      <point x="481" y="1137"/>
      <point x="387" y="1184"/>
      <point x="387" y="1284" type="curve" smooth="yes"/>
      <point x="387" y="1456"/>
      <point x="563" y="1505"/>
      <point x="700" y="1505" type="curve" smooth="yes"/>
      <point x="788" y="1505"/>
      <point x="903" y="1479"/>
      <point x="977" y="1446" type="curve"/>
      <point x="997" y="1495" type="line"/>
      <point x="926" y="1526"/>
      <point x="807" y="1554"/>
      <point x="700" y="1554" type="curve" smooth="yes"/>
      <point x="530" y="1554"/>
      <point x="332" y="1485"/>
      <point x="332" y="1284" type="curve" smooth="yes"/>
      <point x="332" y="1174"/>
      <point x="416" y="1110"/>
      <point x="498" y="1075" type="curve"/>
      <point x="371" y="1047"/>
      <point x="211" y="967"/>
      <point x="211" y="791" type="curve" smooth="yes"/>
      <point x="211" y="631"/>
      <point x="350" y="557"/>
      <point x="469" y="504" type="curve" smooth="yes"/>
      <point x="596" y="446"/>
      <point x="711" y="410"/>
      <point x="711" y="285" type="curve" smooth="yes"/>
      <point x="711" y="131"/>
      <point x="580" y="47"/>
      <point x="360" y="47" type="curve" smooth="yes"/>
      <point x="258" y="47"/>
      <point x="141" y="82"/>
      <point x="57" y="125" type="curve"/>
      <point x="57" y="66" type="line"/>
      <point x="121" y="35"/>
      <point x="231" y="-2"/>
    </contour>
    <contour>
      <point x="602" y="500" type="curve"/>
      <point x="389" y="596"/>
      <point x="266" y="647"/>
      <point x="266" y="791" type="curve" smooth="yes"/>
      <point x="266" y="963"/>
      <point x="422" y="1014"/>
      <point x="553" y="1047" type="curve"/>
      <point x="735" y="967"/>
      <point x="831" y="928"/>
      <point x="831" y="799" type="curve" smooth="yes"/>
      <point x="831" y="655"/>
      <point x="723" y="563"/>
    </contour>
  </outline>
</glyph>
<glyph name="ordfeminine" format="2">
  <advance width="659"/>
  <unicode hex="00AA"/>
  <anchor x="377" y="815" name="bottom"/>
  <anchor x="520" y="1473" name="top"/>
  <outline>
    <contour>
      <point x="377" y="815" type="curve" smooth="yes"/>
      <point x="467" y="815"/>
      <point x="547" y="885"/>
      <point x="598" y="971" type="curve"/>
      <point x="600" y="971" type="line"/>
      <point x="573" y="823" type="line"/>
      <point x="616" y="823" type="line"/>
      <point x="752" y="1466" type="line"/>
      <point x="709" y="1466" type="line"/>
      <point x="676" y="1352" type="line"/>
      <point x="672" y="1352" type="line"/>
      <point x="649" y="1421"/>
      <point x="600" y="1479"/>
      <point x="506" y="1479" type="curve" smooth="yes"/>
      <point x="334" y="1479"/>
      <point x="184" y="1284"/>
      <point x="184" y="1032" type="curve" smooth="yes"/>
      <point x="184" y="891"/>
      <point x="264" y="815"/>
    </contour>
    <contour>
      <point x="377" y="866" type="curve" smooth="yes"/>
      <point x="293" y="866"/>
      <point x="240" y="934"/>
      <point x="240" y="1032" type="curve" smooth="yes"/>
      <point x="240" y="1270"/>
      <point x="375" y="1427"/>
      <point x="502" y="1427" type="curve" smooth="yes"/>
      <point x="600" y="1427"/>
      <point x="643" y="1343"/>
      <point x="643" y="1249" type="curve" smooth="yes"/>
      <point x="643" y="1075"/>
      <point x="516" y="866"/>
    </contour>
  </outline>
</glyph>
<glyph name="degree" format="2">
  <advance width="877"/>
  <unicode hex="00B0"/>
  <outline>
    <contour>
      <point x="438" y="903" type="curve" smooth="yes"/>
      <point x="606" y="903"/>
      <point x="731" y="1016"/>
      <point x="731" y="1194" type="curve" smooth="yes"/>
      <point x="731" y="1364"/>
      <point x="606" y="1483"/>
      <point x="438" y="1483" type="curve" smooth="yes"/>
      <point x="272" y="1483"/>
      <point x="145" y="1368"/>
      <point x="145" y="1194" type="curve" smooth="yes"/>
      <point x="145" y="1016"/>
      <point x="274" y="903"/>
    </contour>
    <contour>
      <point x="436" y="954" type="curve" smooth="yes"/>
      <point x="293" y="954"/>
      <point x="201" y="1055"/>
      <point x="201" y="1194" type="curve" smooth="yes"/>
      <point x="201" y="1337"/>
      <point x="293" y="1432"/>
      <point x="436" y="1432" type="curve" smooth="yes"/>
      <point x="575" y="1432"/>
      <point x="676" y="1337"/>
      <point x="676" y="1194" type="curve" smooth="yes"/>
      <point x="676" y="1055"/>
      <point x="575" y="954"/>
    </contour>
  </outline>
</glyph>
<glyph name="micro" format="2">
  <advance width="1130"/>
  <unicode hex="00B5"/>
  <outline>
    <contour>
      <point x="-45" y="-475" type="line"/>
      <point x="8" y="-475" type="line"/>
      <point x="72" y="-178" type="line" smooth="yes"/>
      <point x="100" y="-41"/>
      <point x="121" y="66"/>
      <point x="135" y="152" type="curve"/>
      <point x="139" y="152" type="line"/>
      <point x="166" y="63"/>
      <point x="238" y="-20"/>
      <point x="393" y="-20" type="curve" smooth="yes"/>
      <point x="621" y="-20"/>
      <point x="768" y="139"/>
      <point x="844" y="285" type="curve"/>
      <point x="848" y="285" type="line"/>
      <point x="791" y="0" type="line"/>
      <point x="836" y="0" type="line"/>
      <point x="1065" y="1081" type="line"/>
      <point x="1012" y="1081" type="line"/>
      <point x="897" y="541" type="line" smooth="yes"/>
      <point x="825" y="203"/>
      <point x="604" y="31"/>
      <point x="399" y="31" type="curve" smooth="yes"/>
      <point x="254" y="31"/>
      <point x="172" y="123"/>
      <point x="172" y="238" type="curve" smooth="yes"/>
      <point x="172" y="268"/>
      <point x="174" y="307"/>
      <point x="190" y="381" type="curve" smooth="yes"/>
      <point x="338" y="1081" type="line"/>
      <point x="285" y="1081" type="line"/>
    </contour>
  </outline>
</glyph>
<glyph name="paragraph" format="2">
  <advance width="1341"/>
  <unicode hex="00B6"/>
  <outline>
    <contour>
      <point x="739" y="-260" type="line"/>
      <point x="793" y="-260" type="line"/>
      <point x="793" y="1505" type="line"/>
      <point x="1067" y="1505" type="line"/>
      <point x="1067" y="-260" type="line"/>
      <point x="1120" y="-260" type="line"/>
      <point x="1120" y="1556" type="line"/>
      <point x="625" y="1556" type="line" smooth="yes"/>
      <point x="373" y="1556"/>
      <point x="256" y="1403"/>
      <point x="256" y="1141" type="curve" smooth="yes"/>
      <point x="256" y="897"/>
      <point x="367" y="709"/>
      <point x="594" y="709" type="curve" smooth="yes"/>
      <point x="653" y="709"/>
      <point x="694" y="715"/>
      <point x="739" y="727" type="curve"/>
    </contour>
  </outline>
</glyph>
<glyph name="cedilla" format="2">
  <advance width="395"/>
  <unicode hex="00B8"/>
  <outline>
    <contour>
      <point x="-61" y="-492" type="curve" smooth="yes"/>
      <point x="63" y="-492"/>
      <point x="188" y="-418"/>
      <point x="188" y="-285" type="curve" smooth="yes"/>
      <point x="188" y="-197"/>
      <point x="129" y="-141"/>
      <point x="39" y="-133" type="curve"/>
      <point x="109" y="0" type="line"/>
      <point x="55" y="0" type="line"/>
      <point x="-41" y="-174" type="line"/>
      <point x="76" y="-174"/>
      <point x="133" y="-213"/>
      <point x="133" y="-285" type="curve" smooth="yes"/>
      <point x="133" y="-401"/>
      <point x="14" y="-442"/>
      <point x="-66" y="-442" type="curve" smooth="yes"/>
      <point x="-106" y="-442"/>
      <point x="-143" y="-438"/>
      <point x="-174" y="-430" type="curve"/>
      <point x="-174" y="-479" type="line"/>
      <point x="-145" y="-487"/>
      <point x="-109" y="-492"/>
    </contour>
  </outline>
</glyph>
<glyph name="multiply" format="2">
  <advance width="1167"/>
  <unicode hex="00D7"/>
  <outline>
    <contour>
      <point x="1028" y="1161" type="line"/>
      <point x="625" y="758" type="line"/>
      <point x="221" y="1161" type="line"/>
      <point x="186" y="1126" type="line"/>
      <point x="590" y="723" type="line"/>
      <point x="186" y="319" type="line"/>
      <point x="221" y="285" type="line"/>
      <point x="625" y="688" type="line"/>
      <point x="1028" y="285" type="line"/>
      <point x="1063" y="319" type="line"/>
      <point x="659" y="723" type="line"/>
      <point x="1063" y="1126" type="line"/>
    </contour>
  </outline>
</glyph>
<glyph name="Thorn" format="2">
  <advance width="1143"/>
  <unicode hex="00DE"/>
  <anchor x="457" y="0" name="bottom"/>
  <anchor x="768" y="1462" name="top"/>
  <outline>
    <contour>
      <point x="102" y="0" type="line"/>
      <point x="158" y="0" type="line"/>
      <point x="231" y="354" type="line"/>
      <point x="473" y="354" type="line" smooth="yes"/>
      <point x="797" y="354"/>
      <point x="1085" y="465"/>
      <point x="1085" y="860" type="curve" smooth="yes"/>
      <point x="1085" y="1073"/>
      <point x="944" y="1192"/>
      <point x="672" y="1192" type="curve" smooth="yes"/>
      <point x="410" y="1192" type="line"/>
      <point x="467" y="1462" type="line"/>
      <point x="412" y="1462" type="line"/>
    </contour>
    <contour>
      <point x="244" y="406" type="line"/>
      <point x="399" y="1141" type="line"/>
      <point x="662" y="1141" type="line" smooth="yes"/>
      <point x="901" y="1141"/>
      <point x="1030" y="1042"/>
      <point x="1030" y="858" type="curve" smooth="yes"/>
      <point x="1030" y="512"/>
      <point x="778" y="406"/>
      <point x="481" y="406" type="curve" smooth="yes"/>
    </contour>
  </outline>
</glyph>
<glyph name="ae" format="2">
  <advance width="1724"/>
  <unicode hex="00E6"/>
  <anchor x="748" y="0" name="bottom"/>
  <anchor x="977" y="1081" name="top"/>
  <outline>
    <contour>
      <point x="397" y="-20" type="curve" smooth="yes"/>
      <point x="590" y="-20"/>
      <point x="719" y="135"/>
      <point x="786" y="272" type="curve"/>
      <point x="791" y="272" type="line"/>
      <point x="733" y="0" type="line"/>
      <point x="778" y="0" type="line"/>
      <point x="842" y="299" type="line"/>
      <point x="877" y="74"/>
      <point x="1028" y="-20"/>
      <point x="1217" y="-20" type="curve" smooth="yes"/>
      <point x="1317" y="-20"/>
      <point x="1427" y="10"/>
      <point x="1491" y="47" type="curve"/>
      <point x="1491" y="98" type="line"/>
      <point x="1425" y="68"/>
      <point x="1327" y="31"/>
      <point x="1219" y="31" type="curve" smooth="yes"/>
      <point x="999" y="31"/>
      <point x="883" y="168"/>
      <point x="883" y="397" type="curve" smooth="yes"/>
      <point x="883" y="444"/>
      <point x="887" y="494"/>
      <point x="891" y="524" type="curve"/>
      <point x="961" y="524" type="line" smooth="yes"/>
      <point x="1331" y="524"/>
      <point x="1638" y="602"/>
      <point x="1638" y="870" type="curve" smooth="yes"/>
      <point x="1638" y="1004"/>
      <point x="1530" y="1102"/>
      <point x="1389" y="1102" type="curve" smooth="yes"/>
      <point x="1188" y="1102"/>
      <point x="1051" y="991"/>
      <point x="950" y="827" type="curve"/>
      <point x="1006" y="1081" type="line"/>
      <point x="958" y="1081" type="line"/>
      <point x="901" y="834" type="line"/>
      <point x="897" y="834" type="line"/>
      <point x="887" y="938"/>
      <point x="831" y="1102"/>
      <point x="643" y="1102" type="curve" smooth="yes"/>
      <point x="291" y="1102"/>
      <point x="104" y="698"/>
      <point x="104" y="365" type="curve" smooth="yes"/>
      <point x="104" y="129"/>
      <point x="213" y="-20"/>
    </contour>
    <contour>
      <point x="403" y="31" type="curve" smooth="yes"/>
      <point x="248" y="31"/>
      <point x="160" y="156"/>
      <point x="160" y="365" type="curve" smooth="yes"/>
      <point x="160" y="688"/>
      <point x="334" y="1051"/>
      <point x="641" y="1051" type="curve" smooth="yes"/>
      <point x="782" y="1051"/>
      <point x="864" y="936"/>
      <point x="864" y="733" type="curve" smooth="yes"/>
      <point x="864" y="680"/>
      <point x="858" y="629"/>
      <point x="840" y="541" type="curve" smooth="yes"/>
      <point x="782" y="252"/>
      <point x="602" y="31"/>
    </contour>
    <contour>
      <point x="899" y="575" type="line"/>
      <point x="961" y="877"/>
      <point x="1169" y="1051"/>
      <point x="1382" y="1051" type="curve" smooth="yes"/>
      <point x="1516" y="1051"/>
      <point x="1583" y="965"/>
      <point x="1583" y="868" type="curve" smooth="yes"/>
      <point x="1583" y="664"/>
      <point x="1339" y="575"/>
      <point x="997" y="575" type="curve" smooth="yes"/>
    </contour>
  </outline>
</glyph>
<glyph name="divide" format="2">
  <advance width="1167"/>
  <unicode hex="00F7"/>
  <outline>
    <contour>
      <point x="154" y="698" type="line"/>
      <point x="1096" y="698" type="line"/>
      <point x="1096" y="748" type="line"/>
      <point x="154" y="748" type="line"/>
    </contour>
    <contour>
      <point x="623" y="295" type="curve" smooth="yes"/>
      <point x="672" y="295"/>
      <point x="678" y="324"/>
      <point x="678" y="358" type="curve" smooth="yes"/>
      <point x="678" y="391"/>
      <point x="672" y="422"/>
      <point x="623" y="422" type="curve" smooth="yes"/>
      <point x="582" y="422"/>
      <point x="571" y="391"/>
      <point x="571" y="358" type="curve" smooth="yes"/>
      <point x="571" y="324"/>
      <point x="582" y="295"/>
    </contour>
    <contour>
      <point x="623" y="1024" type="curve" smooth="yes"/>
      <point x="672" y="1024"/>
      <point x="678" y="1053"/>
      <point x="678" y="1087" type="curve" smooth="yes"/>
      <point x="678" y="1120"/>
      <point x="672" y="1151"/>
      <point x="623" y="1151" type="curve" smooth="yes"/>
      <point x="582" y="1151"/>
      <point x="571" y="1120"/>
      <point x="571" y="1087" type="curve" smooth="yes"/>
      <point x="571" y="1053"/>
      <point x="582" y="1024"/>
    </contour>
  </outline>
</glyph>
<glyph name="oslash" format="2">
  <advance width="1157"/>
  <unicode hex="00F8"/>
  <anchor x="465" y="0" name="bottom"/>
  <anchor x="694" y="1081" name="top"/>
  <outline>
    <contour>
      <point x="29" y="-59" type="line"/>
      <point x="195" y="111" type="line"/>
      <point x="252" y="31"/>
      <point x="346" y="-20"/>
      <point x="485" y="-20" type="curve" smooth="yes"/>
      <point x="836" y="-20"/>
      <point x="1044" y="303"/>
      <point x="1044" y="692" type="curve" smooth="yes"/>
      <point x="1044" y="780"/>
      <point x="1026" y="860"/>
      <point x="991" y="926" type="curve"/>
      <point x="1161" y="1100" type="line"/>
      <point x="1124" y="1137" type="line"/>
      <point x="963" y="971" type="line"/>
      <point x="901" y="1053"/>
      <point x="805" y="1102"/>
      <point x="678" y="1102" type="curve" smooth="yes"/>
      <point x="358" y="1102"/>
      <point x="113" y="823"/>
      <point x="113" y="393" type="curve" smooth="yes"/>
      <point x="113" y="301"/>
      <point x="129" y="221"/>
      <point x="166" y="156" type="curve"/>
      <point x="-8" y="-23" type="line"/>
    </contour>
    <contour>
      <point x="492" y="31" type="curve" smooth="yes"/>
      <point x="373" y="31"/>
      <point x="285" y="74"/>
      <point x="231" y="150" type="curve"/>
      <point x="952" y="887" type="line"/>
      <point x="977" y="834"/>
      <point x="989" y="766"/>
      <point x="989" y="694" type="curve" smooth="yes"/>
      <point x="989" y="328"/>
      <point x="803" y="31"/>
    </contour>
    <contour>
      <point x="205" y="195" type="line"/>
      <point x="182" y="246"/>
      <point x="168" y="315"/>
      <point x="168" y="393" type="curve" smooth="yes"/>
      <point x="168" y="795"/>
      <point x="387" y="1051"/>
      <point x="674" y="1051" type="curve" smooth="yes"/>
      <point x="788" y="1051"/>
      <point x="874" y="1006"/>
      <point x="926" y="934" type="curve"/>
    </contour>
  </outline>
</glyph>
<glyph name="thorn" format="2">
  <advance width="1163"/>
  <unicode hex="00FE"/>
  <anchor x="367" y="-475" name="bottom"/>
  <anchor x="797" y="1556" name="top"/>
  <outline>
    <contour>
      <point x="-35" y="-475" type="line"/>
      <point x="18" y="-475" type="line"/>
      <point x="113" y="-31" type="line" smooth="yes"/>
      <point x="131" y="55"/>
      <point x="152" y="156"/>
      <point x="166" y="248" type="curve"/>
      <point x="170" y="248" type="line"/>
      <point x="190" y="115"/>
      <point x="283" y="-20"/>
      <point x="489" y="-20" type="curve" smooth="yes"/>
      <point x="870" y="-20"/>
      <point x="1051" y="385"/>
      <point x="1051" y="717" type="curve" smooth="yes"/>
      <point x="1051" y="948"/>
      <point x="928" y="1102"/>
      <point x="731" y="1102" type="curve" smooth="yes"/>
      <point x="524" y="1102"/>
      <point x="365" y="944"/>
      <point x="287" y="797" type="curve"/>
      <point x="281" y="797" type="line"/>
      <point x="307" y="901"/>
      <point x="336" y="1028"/>
      <point x="354" y="1112" type="curve" smooth="yes"/>
      <point x="449" y="1556" type="line"/>
      <point x="395" y="1556" type="line"/>
    </contour>
    <contour>
      <point x="492" y="31" type="curve" smooth="yes"/>
      <point x="324" y="31"/>
      <point x="207" y="135"/>
      <point x="207" y="348" type="curve" smooth="yes"/>
      <point x="207" y="401"/>
      <point x="211" y="457"/>
      <point x="227" y="537" type="curve" smooth="yes"/>
      <point x="293" y="842"/>
      <point x="510" y="1051"/>
      <point x="721" y="1051" type="curve" smooth="yes"/>
      <point x="895" y="1051"/>
      <point x="995" y="922"/>
      <point x="995" y="717" type="curve" smooth="yes"/>
      <point x="995" y="395"/>
      <point x="829" y="31"/>
    </contour>
  </outline>
</glyph>
<glyph name="dcroat" format="2">
  <advance width="1163"/>
  <unicode hex="0111"/>
  <anchor x="467" y="0" name="bottom"/>
  <anchor x="797" y="1556" name="top"/>
  <outline>
    <contour>
      <point x="422" y="-20" type="curve" smooth="yes"/>
      <point x="635" y="-20"/>
      <point x="788" y="141"/>
      <point x="866" y="285" type="curve"/>
      <point x="870" y="285" type="line"/>
      <point x="813" y="0" type="line"/>
      <point x="858" y="0" type="line"/>
      <point x="1130" y="1290" type="line"/>
      <point x="1278" y="1290" type="line"/>
      <point x="1290" y="1341" type="line"/>
      <point x="1143" y="1341" type="line"/>
      <point x="1188" y="1556" type="line"/>
      <point x="1135" y="1556" type="line"/>
      <point x="1090" y="1341" type="line"/>
      <point x="631" y="1341" type="line"/>
      <point x="621" y="1290" type="line"/>
      <point x="1077" y="1290" type="line"/>
      <point x="1040" y="1112" type="line" smooth="yes"/>
      <point x="1022" y="1026"/>
      <point x="1001" y="926"/>
      <point x="987" y="834" type="curve"/>
      <point x="983" y="834" type="line"/>
      <point x="965" y="967"/>
      <point x="870" y="1102"/>
      <point x="664" y="1102" type="curve" smooth="yes"/>
      <point x="285" y="1102"/>
      <point x="104" y="696"/>
      <point x="104" y="365" type="curve" smooth="yes"/>
      <point x="104" y="133"/>
      <point x="225" y="-20"/>
    </contour>
    <contour>
      <point x="428" y="31" type="curve" smooth="yes"/>
      <point x="258" y="31"/>
      <point x="160" y="160"/>
      <point x="160" y="365" type="curve" smooth="yes"/>
      <point x="160" y="686"/>
      <point x="326" y="1051"/>
      <point x="662" y="1051" type="curve" smooth="yes"/>
      <point x="829" y="1051"/>
      <point x="946" y="948"/>
      <point x="946" y="741" type="curve" smooth="yes"/>
      <point x="946" y="375"/>
      <point x="713" y="31"/>
    </contour>
  </outline>
</glyph>
<glyph name="eogonek" format="2">
  <advance width="1006"/>
  <unicode hex="0119"/>
  <anchor x="285" y="-424" name="bottom"/>
  <anchor x="604" y="1081" name="top"/>
  <outline>
    <contour>
      <point x="567" y="-424" type="curve" smooth="yes"/>
      <point x="608" y="-424"/>
      <point x="641" y="-416"/>
      <point x="666" y="-408" type="curve"/>
      <point x="666" y="-358" type="line"/>
      <point x="641" y="-367"/>
      <point x="610" y="-373"/>
      <point x="573" y="-373" type="curve" smooth="yes"/>
      <point x="512" y="-373"/>
      <point x="479" y="-340"/>
      <point x="479" y="-281" type="curve" smooth="yes"/>
      <point x="479" y="-147"/>
      <point x="623" y="-47"/>
      <point x="743" y="43" type="curve"/>
      <point x="688" y="43" type="line"/>
      <point x="565" y="-37"/>
      <point x="426" y="-139"/>
      <point x="426" y="-285" type="curve" smooth="yes"/>
      <point x="426" y="-373"/>
      <point x="485" y="-424"/>
    </contour>
    <component base="e" xOffset="-14"/>
  </outline>
</glyph>
<glyph name="OE" format="2">
  <advance width="1802"/>
  <unicode hex="0152"/>
  <anchor x="786" y="0" name="bottom"/>
  <anchor x="1098" y="1462" name="top"/>
  <outline>
    <contour>
      <point x="684" y="-6" type="curve" smooth="yes"/>
      <point x="731" y="-6"/>
      <point x="776" y="-4"/>
      <point x="815" y="0" type="curve"/>
      <point x="1563" y="0" type="line"/>
      <point x="1573" y="51" type="line"/>
      <point x="874" y="51" type="line"/>
      <point x="1022" y="745" type="line"/>
      <point x="1681" y="745" type="line"/>
      <point x="1692" y="797" type="line"/>
      <point x="1032" y="797" type="line"/>
      <point x="1163" y="1411" type="line"/>
      <point x="1862" y="1411" type="line"/>
      <point x="1872" y="1462" type="line"/>
      <point x="1118" y="1462" type="line"/>
      <point x="1051" y="1475"/>
      <point x="977" y="1481"/>
      <point x="883" y="1481" type="curve" smooth="yes"/>
      <point x="395" y="1481"/>
      <point x="172" y="1014"/>
      <point x="172" y="565" type="curve" smooth="yes"/>
      <point x="172" y="246"/>
      <point x="307" y="-6"/>
    </contour>
    <contour>
      <point x="686" y="45" type="curve" smooth="yes"/>
      <point x="362" y="45"/>
      <point x="227" y="252"/>
      <point x="227" y="567" type="curve" smooth="yes"/>
      <point x="227" y="922"/>
      <point x="395" y="1430"/>
      <point x="879" y="1430" type="curve" smooth="yes"/>
      <point x="969" y="1430"/>
      <point x="1044" y="1423"/>
      <point x="1108" y="1413" type="curve"/>
      <point x="819" y="51" type="line"/>
      <point x="784" y="47"/>
      <point x="733" y="45"/>
    </contour>
  </outline>
</glyph>
<glyph name="Tbar" format="2">
  <advance width="993"/>
  <unicode hex="0166"/>
  <anchor x="383" y="0" name="bottom"/>
  <anchor x="694" y="1462" name="top"/>
  <outline>
    <contour>
      <point x="352" y="0" type="line"/>
      <point x="408" y="0" type="line"/>
      <point x="561" y="727" type="line"/>
      <point x="907" y="727" type="line"/>
      <point x="918" y="778" type="line"/>
      <point x="571" y="778" type="line"/>
      <point x="707" y="1411" type="line"/>
      <point x="1169" y="1411" type="line"/>
      <point x="1180" y="1462" type="line"/>
      <point x="201" y="1462" type="line"/>
      <point x="190" y="1411" type="line"/>
      <point x="651" y="1411" type="line"/>
      <point x="516" y="778" type="line"/>
      <point x="184" y="778" type="line"/>
      <point x="174" y="727" type="line"/>
      <point x="506" y="727" type="line"/>
    </contour>
  </outline>
</glyph>
<glyph name="tbar" format="2">
  <advance width="633"/>
  <unicode hex="0167"/>
  <anchor x="203" y="0" name="bottom"/>
  <anchor x="489" y="1350" name="top"/>
  <outline>
    <contour>
      <point x="299" y="-20" type="curve" smooth="yes"/>
      <point x="369" y="-20"/>
      <point x="416" y="-8"/>
      <point x="459" y="6" type="curve"/>
      <point x="459" y="57" type="line"/>
      <point x="416" y="41"/>
      <point x="367" y="31"/>
      <point x="301" y="31" type="curve" smooth="yes"/>
      <point x="199" y="31"/>
      <point x="160" y="82"/>
      <point x="160" y="172" type="curve" smooth="yes"/>
      <point x="160" y="207"/>
      <point x="164" y="248"/>
      <point x="174" y="293" type="curve" smooth="yes"/>
      <point x="236" y="584" type="line"/>
      <point x="496" y="584" type="line"/>
      <point x="508" y="635" type="line"/>
      <point x="246" y="635" type="line"/>
      <point x="330" y="1030" type="line"/>
      <point x="664" y="1030" type="line"/>
      <point x="676" y="1081" type="line"/>
      <point x="342" y="1081" type="line"/>
      <point x="399" y="1350" type="line"/>
      <point x="356" y="1350" type="line"/>
      <point x="287" y="1081" type="line"/>
      <point x="129" y="1075" type="line"/>
      <point x="119" y="1030" type="line"/>
      <point x="276" y="1030" type="line"/>
      <point x="193" y="635" type="line"/>
      <point x="45" y="635" type="line"/>
      <point x="35" y="584" type="line"/>
      <point x="182" y="584" type="line"/>
      <point x="119" y="287" type="line" smooth="yes"/>
      <point x="109" y="244"/>
      <point x="104" y="203"/>
      <point x="104" y="168" type="curve" smooth="yes"/>
      <point x="104" y="49"/>
      <point x="162" y="-20"/>
    </contour>
  </outline>
</glyph>
<glyph name="uni0183" format="2">
  <advance width="1133"/>
  <unicode hex="0183"/>
  <anchor x="453" y="0" name="bottom"/>
  <anchor x="782" y="1556" name="top"/>
  <outline>
    <contour>
      <point x="489" y="-20" type="curve" smooth="yes"/>
      <point x="870" y="-20"/>
      <point x="1051" y="385"/>
      <point x="1051" y="717" type="curve" smooth="yes"/>
      <point x="1051" y="948"/>
      <point x="928" y="1102"/>
      <point x="731" y="1102" type="curve" smooth="yes"/>
      <point x="518" y="1102"/>
      <point x="360" y="936"/>
      <point x="285" y="797" type="curve"/>
      <point x="281" y="797" type="line"/>
      <point x="307" y="901"/>
      <point x="336" y="1028"/>
      <point x="354" y="1112" type="curve" smooth="yes"/>
      <point x="438" y="1505" type="line"/>
      <point x="1016" y="1505" type="line"/>
      <point x="1026" y="1556" type="line"/>
      <point x="395" y="1556" type="line"/>
      <point x="66" y="0" type="line"/>
      <point x="113" y="0" type="line"/>
      <point x="166" y="248" type="line"/>
      <point x="170" y="248" type="line"/>
      <point x="190" y="115"/>
      <point x="283" y="-20"/>
    </contour>
    <contour>
      <point x="492" y="31" type="curve" smooth="yes"/>
      <point x="324" y="31"/>
      <point x="207" y="135"/>
      <point x="207" y="348" type="curve" smooth="yes"/>
      <point x="207" y="686"/>
      <point x="422" y="1051"/>
      <point x="721" y="1051" type="curve" smooth="yes"/>
      <point x="895" y="1051"/>
      <point x="995" y="922"/>
      <point x="995" y="717" type="curve" smooth="yes"/>
      <point x="995" y="395"/>
      <point x="829" y="31"/>
    </contour>
  </outline>
</glyph>
<glyph name="uni0187" format="2">
  <advance width="1217"/>
  <unicode hex="0187"/>
  <anchor x="494" y="0" name="bottom"/>
  <anchor x="805" y="1462" name="top"/>
  <outline>
    <contour>
      <point x="668" y="-20" type="curve" smooth="yes"/>
      <point x="811" y="-20"/>
      <point x="932" y="8"/>
      <point x="1024" y="43" type="curve"/>
      <point x="1024" y="90" type="line"/>
      <point x="926" y="57"/>
      <point x="809" y="31"/>
      <point x="670" y="31" type="curve" smooth="yes"/>
      <point x="393" y="31"/>
      <point x="225" y="229"/>
      <point x="225" y="553" type="curve" smooth="yes"/>
      <point x="225" y="1077"/>
      <point x="547" y="1432"/>
      <point x="965" y="1432" type="curve" smooth="yes"/>
      <point x="1071" y="1432"/>
      <point x="1182" y="1411"/>
      <point x="1278" y="1354" type="curve"/>
      <point x="1323" y="1548" type="line" smooth="yes"/>
      <point x="1348" y="1651"/>
      <point x="1389" y="1710"/>
      <point x="1470" y="1710" type="curve" smooth="yes"/>
      <point x="1516" y="1710"/>
      <point x="1542" y="1696"/>
      <point x="1556" y="1683" type="curve"/>
      <point x="1585" y="1729" type="line"/>
      <point x="1561" y="1747"/>
      <point x="1524" y="1761"/>
      <point x="1473" y="1761" type="curve" smooth="yes"/>
      <point x="1360" y="1761"/>
      <point x="1305" y="1694"/>
      <point x="1272" y="1556" type="curve" smooth="yes"/>
      <point x="1243" y="1432" type="line"/>
      <point x="1165" y="1466"/>
      <point x="1071" y="1483"/>
      <point x="965" y="1483" type="curve" smooth="yes"/>
      <point x="520" y="1483"/>
      <point x="172" y="1108"/>
      <point x="172" y="549" type="curve" smooth="yes"/>
      <point x="172" y="205"/>
      <point x="354" y="-20"/>
    </contour>
  </outline>
</glyph>
<glyph name="uni0188" format="2">
  <advance width="926"/>
  <unicode hex="0188"/>
  <anchor x="348" y="0" name="bottom"/>
  <anchor x="682" y="1577" name="top"/>
  <outline>
    <contour>
      <point x="506" y="-20" type="curve" smooth="yes"/>
      <point x="618" y="-20"/>
      <point x="702" y="6"/>
      <point x="768" y="39" type="curve"/>
      <point x="768" y="92" type="line"/>
      <point x="684" y="53"/>
      <point x="606" y="31"/>
      <point x="508" y="31" type="curve" smooth="yes"/>
      <point x="283" y="31"/>
      <point x="168" y="197"/>
      <point x="168" y="401" type="curve" smooth="yes"/>
      <point x="168" y="760"/>
      <point x="367" y="1051"/>
      <point x="686" y="1051" type="curve" smooth="yes"/>
      <point x="760" y="1051"/>
      <point x="854" y="1036"/>
      <point x="922" y="1001" type="curve"/>
      <point x="997" y="1378" type="line" smooth="yes"/>
      <point x="1016" y="1464"/>
      <point x="1042" y="1526"/>
      <point x="1133" y="1526" type="curve" smooth="yes"/>
      <point x="1178" y="1526"/>
      <point x="1208" y="1509"/>
      <point x="1225" y="1495" type="curve"/>
      <point x="1249" y="1542" type="line"/>
      <point x="1225" y="1561"/>
      <point x="1184" y="1577"/>
      <point x="1137" y="1577" type="curve" smooth="yes"/>
      <point x="1018" y="1577"/>
      <point x="971" y="1503"/>
      <point x="946" y="1384" type="curve" smooth="yes"/>
      <point x="883" y="1073" type="line"/>
      <point x="825" y="1094"/>
      <point x="758" y="1102"/>
      <point x="686" y="1102" type="curve" smooth="yes"/>
      <point x="319" y="1102"/>
      <point x="113" y="772"/>
      <point x="113" y="397" type="curve" smooth="yes"/>
      <point x="113" y="160"/>
      <point x="252" y="-20"/>
    </contour>
  </outline>
</glyph>
<glyph name="uni018B" format="2">
  <advance width="1133"/>
  <unicode hex="018B"/>
  <anchor x="453" y="0" name="bottom"/>
  <anchor x="764" y="1462" name="top"/>
  <outline>
    <contour>
      <point x="492" y="0" type="curve" smooth="yes"/>
      <point x="809" y="0" type="line"/>
      <point x="1118" y="1462" type="line"/>
      <point x="424" y="1462" type="line"/>
      <point x="414" y="1411" type="line"/>
      <point x="1053" y="1411" type="line"/>
      <point x="932" y="838" type="line"/>
      <point x="643" y="838" type="line" smooth="yes"/>
      <point x="254" y="838"/>
      <point x="78" y="639"/>
      <point x="78" y="360" type="curve" smooth="yes"/>
      <point x="78" y="123"/>
      <point x="223" y="0"/>
    </contour>
    <contour>
      <point x="502" y="51" type="line" smooth="yes"/>
      <point x="266" y="51"/>
      <point x="133" y="145"/>
      <point x="133" y="362" type="curve" smooth="yes"/>
      <point x="133" y="612"/>
      <point x="281" y="786"/>
      <point x="635" y="786" type="curve" smooth="yes"/>
      <point x="920" y="786" type="line"/>
      <point x="764" y="51" type="line"/>
    </contour>
  </outline>
</glyph>
<glyph name="uni018E" format="2">
  <advance width="1075"/>
  <unicode hex="018E"/>
  <anchor x="424" y="0" name="bottom"/>
  <anchor x="735" y="1462" name="top"/>
  <outline>
    <contour>
      <point x="23" y="0" type="line"/>
      <point x="756" y="0" type="line"/>
      <point x="1065" y="1462" type="line"/>
      <point x="332" y="1462" type="line"/>
      <point x="322" y="1411" type="line"/>
      <point x="999" y="1411" type="line"/>
      <point x="870" y="805" type="line"/>
      <point x="231" y="805" type="line"/>
      <point x="221" y="754" type="line"/>
      <point x="860" y="754" type="line"/>
      <point x="711" y="51" type="line"/>
      <point x="33" y="51" type="line"/>
    </contour>
  </outline>
</glyph>
<glyph name="florin" format="2">
  <advance width="1126"/>
  <unicode hex="0192"/>
  <anchor x="344" y="-494" name="bottom"/>
  <anchor x="764" y="1483" name="top"/>
  <outline>
    <contour>
      <point x="125" y="-494" type="curve" smooth="yes"/>
      <point x="246" y="-494"/>
      <point x="340" y="-416"/>
      <point x="375" y="-244" type="curve" smooth="yes"/>
      <point x="612" y="868" type="line"/>
      <point x="856" y="868" type="line"/>
      <point x="868" y="920" type="line"/>
      <point x="623" y="920" type="line"/>
      <point x="666" y="1120" type="line" smooth="yes"/>
      <point x="711" y="1327"/>
      <point x="784" y="1432"/>
      <point x="958" y="1432" type="curve" smooth="yes"/>
      <point x="1008" y="1432"/>
      <point x="1059" y="1421"/>
      <point x="1098" y="1405" type="curve"/>
      <point x="1114" y="1454" type="line"/>
      <point x="1073" y="1470"/>
      <point x="1022" y="1483"/>
      <point x="958" y="1483" type="curve" smooth="yes"/>
      <point x="764" y="1483"/>
      <point x="666" y="1364"/>
      <point x="614" y="1128" type="curve" smooth="yes"/>
      <point x="569" y="920" type="line"/>
      <point x="362" y="913" type="line"/>
      <point x="352" y="868" type="line"/>
      <point x="559" y="868" type="line"/>
      <point x="322" y="-244" type="line" smooth="yes"/>
      <point x="295" y="-367"/>
      <point x="229" y="-442"/>
      <point x="127" y="-442" type="curve" smooth="yes"/>
      <point x="88" y="-442"/>
      <point x="45" y="-436"/>
      <point x="12" y="-420" type="curve"/>
      <point x="12" y="-475" type="line"/>
      <point x="41" y="-487"/>
      <point x="78" y="-494"/>
    </contour>
  </outline>
</glyph>
<glyph name="uni0195" format="2">
  <advance width="1704"/>
  <unicode hex="0195"/>
  <anchor x="737" y="0" name="bottom"/>
  <anchor x="967" y="1081" name="top"/>
  <outline>
    <contour>
      <point x="1161" y="-14" type="curve" smooth="yes"/>
      <point x="1384" y="-14"/>
      <point x="1483" y="123"/>
      <point x="1538" y="397" type="curve" smooth="yes"/>
      <point x="1677" y="1081" type="line"/>
      <point x="1624" y="1081" type="line"/>
      <point x="1485" y="397" type="line" smooth="yes"/>
      <point x="1438" y="164"/>
      <point x="1358" y="37"/>
      <point x="1161" y="37" type="curve" smooth="yes"/>
      <point x="1012" y="37"/>
      <point x="920" y="109"/>
      <point x="920" y="279" type="curve" smooth="yes"/>
      <point x="920" y="338"/>
      <point x="932" y="412"/>
      <point x="950" y="500" type="curve" smooth="yes"/>
      <point x="987" y="678" type="line" smooth="yes"/>
      <point x="999" y="733"/>
      <point x="1010" y="786"/>
      <point x="1010" y="848" type="curve" smooth="yes"/>
      <point x="1010" y="1010"/>
      <point x="911" y="1102"/>
      <point x="733" y="1102" type="curve" smooth="yes"/>
      <point x="514" y="1102"/>
      <point x="356" y="928"/>
      <point x="285" y="797" type="curve"/>
      <point x="281" y="797" type="line"/>
      <point x="307" y="903"/>
      <point x="336" y="1026"/>
      <point x="360" y="1141" type="curve" smooth="yes"/>
      <point x="449" y="1556" type="line"/>
      <point x="395" y="1556" type="line"/>
      <point x="66" y="0" type="line"/>
      <point x="119" y="0" type="line"/>
      <point x="238" y="561" type="line" smooth="yes"/>
      <point x="291" y="815"/>
      <point x="498" y="1051"/>
      <point x="725" y="1051" type="curve" smooth="yes"/>
      <point x="870" y="1051"/>
      <point x="956" y="981"/>
      <point x="956" y="840" type="curve" smooth="yes"/>
      <point x="956" y="788"/>
      <point x="950" y="752"/>
      <point x="938" y="694" type="curve" smooth="yes"/>
      <point x="897" y="502" type="line" smooth="yes"/>
      <point x="879" y="418"/>
      <point x="866" y="342"/>
      <point x="866" y="276" type="curve" smooth="yes"/>
      <point x="866" y="80"/>
      <point x="977" y="-14"/>
    </contour>
  </outline>
</glyph>
<glyph name="uni0196" format="2">
  <advance width="537"/>
  <unicode hex="0196"/>
  <anchor x="154" y="0" name="bottom"/>
  <anchor x="465" y="1462" name="top"/>
  <outline>
    <contour>
      <point x="342" y="-20" type="curve" smooth="yes"/>
      <point x="395" y="-20"/>
      <point x="444" y="-8"/>
      <point x="477" y="4" type="curve"/>
      <point x="477" y="55" type="line"/>
      <point x="446" y="43"/>
      <point x="397" y="31"/>
      <point x="342" y="31" type="curve" smooth="yes"/>
      <point x="262" y="31"/>
      <point x="203" y="76"/>
      <point x="203" y="186" type="curve" smooth="yes"/>
      <point x="203" y="250"/>
      <point x="215" y="324"/>
      <point x="231" y="399" type="curve" smooth="yes"/>
      <point x="463" y="1462" type="line"/>
      <point x="410" y="1462" type="line"/>
      <point x="178" y="399" type="line" smooth="yes"/>
      <point x="160" y="319"/>
      <point x="150" y="248"/>
      <point x="150" y="182" type="curve" smooth="yes"/>
      <point x="150" y="53"/>
      <point x="221" y="-20"/>
    </contour>
  </outline>
</glyph>
<glyph name="uni019A" format="2">
  <advance width="446"/>
  <unicode hex="019A"/>
  <anchor x="109" y="0" name="bottom"/>
  <anchor x="438" y="1556" name="top"/>
  <outline>
    <contour>
      <point x="66" y="0" type="line"/>
      <point x="119" y="0" type="line"/>
      <point x="281" y="764" type="line"/>
      <point x="432" y="764" type="line"/>
      <point x="442" y="815" type="line"/>
      <point x="291" y="815" type="line"/>
      <point x="449" y="1556" type="line"/>
      <point x="395" y="1556" type="line"/>
      <point x="238" y="815" type="line"/>
      <point x="86" y="815" type="line"/>
      <point x="76" y="764" type="line"/>
      <point x="227" y="764" type="line"/>
    </contour>
  </outline>
</glyph>
<glyph name="uni019B" format="2">
  <advance width="934"/>
  <unicode hex="019B"/>
  <anchor x="352" y="0" name="bottom"/>
  <anchor x="686" y="1569" name="top"/>
  <outline>
    <contour>
      <point x="817" y="-16" type="curve" smooth="yes"/>
      <point x="842" y="-16"/>
      <point x="860" y="-12"/>
      <point x="877" y="-6" type="curve"/>
      <point x="877" y="43" type="line"/>
      <point x="864" y="39"/>
      <point x="846" y="35"/>
      <point x="825" y="35" type="curve" smooth="yes"/>
      <point x="786" y="35"/>
      <point x="764" y="57"/>
      <point x="754" y="131" type="curve" smooth="yes"/>
      <point x="598" y="1331" type="line"/>
      <point x="799" y="1386" type="line"/>
      <point x="784" y="1436" type="line"/>
      <point x="590" y="1382" type="line"/>
      <point x="565" y="1513"/>
      <point x="512" y="1569"/>
      <point x="406" y="1569" type="curve" smooth="yes"/>
      <point x="369" y="1569"/>
      <point x="326" y="1563"/>
      <point x="301" y="1556" type="curve"/>
      <point x="311" y="1505" type="line"/>
      <point x="336" y="1511"/>
      <point x="367" y="1518"/>
      <point x="399" y="1518" type="curve" smooth="yes"/>
      <point x="475" y="1518"/>
      <point x="514" y="1481"/>
      <point x="537" y="1368" type="curve"/>
      <point x="324" y="1309" type="line"/>
      <point x="338" y="1260" type="line"/>
      <point x="545" y="1317" type="line"/>
      <point x="573" y="1106" type="line"/>
      <point x="-92" y="0" type="line"/>
      <point x="-29" y="0" type="line"/>
      <point x="500" y="885" type="line" smooth="yes"/>
      <point x="526" y="930"/>
      <point x="553" y="979"/>
      <point x="584" y="1036" type="curve"/>
      <point x="588" y="977"/>
      <point x="596" y="926"/>
      <point x="602" y="872" type="curve" smooth="yes"/>
      <point x="698" y="123" type="line" smooth="yes"/>
      <point x="711" y="33"/>
      <point x="743" y="-16"/>
    </contour>
  </outline>
</glyph>
<glyph name="uni019C" format="2">
  <advance width="1868"/>
  <unicode hex="019C"/>
  <anchor x="819" y="0" name="bottom"/>
  <anchor x="1130" y="1462" name="top"/>
  <outline>
    <contour>
      <point x="465" y="-25" type="curve" smooth="yes"/>
      <point x="684" y="-25"/>
      <point x="803" y="119"/>
      <point x="854" y="244" type="curve"/>
      <point x="858" y="244" type="line"/>
      <point x="860" y="123"/>
      <point x="918" y="-25"/>
      <point x="1157" y="-25" type="curve" smooth="yes"/>
      <point x="1343" y="-25"/>
      <point x="1446" y="78"/>
      <point x="1509" y="182" type="curve"/>
      <point x="1511" y="182" type="line"/>
      <point x="1483" y="0" type="line"/>
      <point x="1532" y="0" type="line"/>
      <point x="1837" y="1462" type="line"/>
      <point x="1784" y="1462" type="line"/>
      <point x="1583" y="512" type="line" smooth="yes"/>
      <point x="1513" y="180"/>
      <point x="1376" y="27"/>
      <point x="1157" y="27" type="curve" smooth="yes"/>
      <point x="987" y="27"/>
      <point x="907" y="109"/>
      <point x="907" y="274" type="curve" smooth="yes"/>
      <point x="907" y="322"/>
      <point x="911" y="375"/>
      <point x="930" y="465" type="curve" smooth="yes"/>
      <point x="1141" y="1462" type="line"/>
      <point x="1087" y="1462" type="line"/>
      <point x="877" y="465" type="line" smooth="yes"/>
      <point x="811" y="158"/>
      <point x="672" y="27"/>
      <point x="467" y="27" type="curve" smooth="yes"/>
      <point x="301" y="27"/>
      <point x="217" y="115"/>
      <point x="217" y="276" type="curve" smooth="yes"/>
      <point x="217" y="326"/>
      <point x="225" y="381"/>
      <point x="240" y="453" type="curve" smooth="yes"/>
      <point x="453" y="1462" type="line"/>
      <point x="399" y="1462" type="line"/>
      <point x="186" y="453" type="line" smooth="yes"/>
      <point x="172" y="381"/>
      <point x="164" y="328"/>
      <point x="164" y="272" type="curve" smooth="yes"/>
      <point x="164" y="80"/>
      <point x="260" y="-25"/>
    </contour>
  </outline>
</glyph>
<glyph name="Ohorn" format="2">
  <advance width="1460"/>
  <unicode hex="01A0"/>
  <anchor x="616" y="0" name="bottom"/>
  <anchor x="928" y="1462" name="top"/>
  <outline>
    <contour>
      <point x="684" y="-20" type="curve" smooth="yes"/>
      <point x="1237" y="-20"/>
      <point x="1384" y="594"/>
      <point x="1384" y="913" type="curve" smooth="yes"/>
      <point x="1384" y="1020"/>
      <point x="1370" y="1110"/>
      <point x="1341" y="1188" type="curve"/>
      <point x="1489" y="1235"/>
      <point x="1575" y="1343"/>
      <point x="1618" y="1538" type="curve"/>
      <point x="1610" y="1556" type="line"/>
      <point x="1563" y="1556" type="line"/>
      <point x="1528" y="1370"/>
      <point x="1444" y="1264"/>
      <point x="1321" y="1235" type="curve"/>
      <point x="1241" y="1403"/>
      <point x="1085" y="1485"/>
      <point x="883" y="1485" type="curve" smooth="yes"/>
      <point x="395" y="1485"/>
      <point x="172" y="1014"/>
      <point x="172" y="565" type="curve" smooth="yes"/>
      <point x="172" y="246"/>
      <point x="307" y="-20"/>
    </contour>
    <contour>
      <point x="686" y="31" type="curve" smooth="yes"/>
      <point x="362" y="31"/>
      <point x="227" y="252"/>
      <point x="227" y="567" type="curve" smooth="yes"/>
      <point x="227" y="922"/>
      <point x="395" y="1434"/>
      <point x="879" y="1434" type="curve" smooth="yes"/>
      <point x="1186" y="1434"/>
      <point x="1329" y="1233"/>
      <point x="1329" y="911" type="curve" smooth="yes"/>
      <point x="1329" y="590"/>
      <point x="1169" y="31"/>
    </contour>
  </outline>
</glyph>
<glyph name="ohorn" format="2">
  <advance width="1151"/>
  <unicode hex="01A1"/>
  <anchor x="461" y="0" name="bottom"/>
  <anchor x="690" y="1081" name="top"/>
  <outline>
    <contour>
      <point x="485" y="-20" type="curve" smooth="yes"/>
      <point x="836" y="-20"/>
      <point x="1044" y="303"/>
      <point x="1044" y="692" type="curve" smooth="yes"/>
      <point x="1044" y="741"/>
      <point x="1038" y="786"/>
      <point x="1028" y="829" type="curve"/>
      <point x="1178" y="864"/>
      <point x="1260" y="969"/>
      <point x="1303" y="1163" type="curve"/>
      <point x="1294" y="1182" type="line"/>
      <point x="1247" y="1182" type="line"/>
      <point x="1212" y="985"/>
      <point x="1133" y="899"/>
      <point x="1012" y="879" type="curve"/>
      <point x="961" y="1014"/>
      <point x="848" y="1102"/>
      <point x="678" y="1102" type="curve" smooth="yes"/>
      <point x="358" y="1102"/>
      <point x="113" y="823"/>
      <point x="113" y="393" type="curve" smooth="yes"/>
      <point x="113" y="150"/>
      <point x="233" y="-20"/>
    </contour>
    <contour>
      <point x="492" y="31" type="curve" smooth="yes"/>
      <point x="276" y="31"/>
      <point x="168" y="172"/>
      <point x="168" y="393" type="curve" smooth="yes"/>
      <point x="168" y="795"/>
      <point x="387" y="1051"/>
      <point x="674" y="1051" type="curve" smooth="yes"/>
      <point x="885" y="1051"/>
      <point x="989" y="901"/>
      <point x="989" y="694" type="curve" smooth="yes"/>
      <point x="989" y="328"/>
      <point x="803" y="31"/>
    </contour>
  </outline>
</glyph>
<glyph name="uni01A3" format="2">
  <advance width="1573"/>
  <unicode hex="01A3"/>
  <anchor x="567" y="-492" name="bottom"/>
  <anchor x="901" y="1081" name="top"/>
  <outline>
    <contour>
      <point x="1126" y="-492" type="line"/>
      <point x="1180" y="-492" type="line"/>
      <point x="1438" y="657" type="line" smooth="yes"/>
      <point x="1456" y="735"/>
      <point x="1466" y="801"/>
      <point x="1466" y="860" type="curve" smooth="yes"/>
      <point x="1466" y="1006"/>
      <point x="1380" y="1096"/>
      <point x="1225" y="1096" type="curve" smooth="yes"/>
      <point x="1098" y="1096"/>
      <point x="1008" y="1047"/>
      <point x="942" y="995" type="curve"/>
      <point x="881" y="1063"/>
      <point x="793" y="1102"/>
      <point x="678" y="1102" type="curve" smooth="yes"/>
      <point x="358" y="1102"/>
      <point x="113" y="823"/>
      <point x="113" y="393" type="curve" smooth="yes"/>
      <point x="113" y="150"/>
      <point x="233" y="-20"/>
      <point x="485" y="-20" type="curve" smooth="yes"/>
      <point x="836" y="-20"/>
      <point x="1044" y="303"/>
      <point x="1044" y="692" type="curve" smooth="yes"/>
      <point x="1044" y="795"/>
      <point x="1020" y="885"/>
      <point x="975" y="954" type="curve"/>
      <point x="1042" y="1010"/>
      <point x="1122" y="1044"/>
      <point x="1223" y="1044" type="curve" smooth="yes"/>
      <point x="1350" y="1044"/>
      <point x="1411" y="971"/>
      <point x="1411" y="858" type="curve" smooth="yes"/>
      <point x="1411" y="797"/>
      <point x="1403" y="739"/>
      <point x="1384" y="657" type="curve" smooth="yes"/>
    </contour>
    <contour>
      <point x="492" y="31" type="curve" smooth="yes"/>
      <point x="276" y="31"/>
      <point x="168" y="172"/>
      <point x="168" y="393" type="curve" smooth="yes"/>
      <point x="168" y="795"/>
      <point x="387" y="1051"/>
      <point x="674" y="1051" type="curve" smooth="yes"/>
      <point x="885" y="1051"/>
      <point x="989" y="901"/>
      <point x="989" y="694" type="curve" smooth="yes"/>
      <point x="989" y="328"/>
      <point x="803" y="31"/>
    </contour>
  </outline>
</glyph>
<glyph name="uni01A5" format="2">
  <advance width="1163"/>
  <unicode hex="01A5"/>
  <anchor x="367" y="-475" name="bottom"/>
  <anchor x="801" y="1577" name="top"/>
  <outline>
    <contour>
      <point x="-35" y="-475" type="line"/>
      <point x="18" y="-475" type="line"/>
      <point x="113" y="-31" type="line" smooth="yes"/>
      <point x="131" y="55"/>
      <point x="152" y="156"/>
      <point x="166" y="248" type="curve"/>
      <point x="170" y="248" type="line"/>
      <point x="190" y="115"/>
      <point x="283" y="-20"/>
      <point x="489" y="-20" type="curve" smooth="yes"/>
      <point x="870" y="-20"/>
      <point x="1051" y="385"/>
      <point x="1051" y="717" type="curve" smooth="yes"/>
      <point x="1051" y="948"/>
      <point x="928" y="1102"/>
      <point x="731" y="1102" type="curve" smooth="yes"/>
      <point x="524" y="1102"/>
      <point x="365" y="944"/>
      <point x="287" y="797" type="curve"/>
      <point x="281" y="797" type="line"/>
      <point x="307" y="901"/>
      <point x="336" y="1028"/>
      <point x="354" y="1112" type="curve" smooth="yes"/>
      <point x="410" y="1378" type="line" smooth="yes"/>
      <point x="428" y="1464"/>
      <point x="455" y="1526"/>
      <point x="545" y="1526" type="curve" smooth="yes"/>
      <point x="590" y="1526"/>
      <point x="625" y="1509"/>
      <point x="645" y="1493" type="curve"/>
      <point x="655" y="1546" type="line"/>
      <point x="635" y="1561"/>
      <point x="600" y="1577"/>
      <point x="549" y="1577" type="curve" smooth="yes"/>
      <point x="430" y="1577"/>
      <point x="383" y="1503"/>
      <point x="358" y="1384" type="curve" smooth="yes"/>
    </contour>
    <contour>
      <point x="492" y="31" type="curve" smooth="yes"/>
      <point x="324" y="31"/>
      <point x="207" y="135"/>
      <point x="207" y="348" type="curve" smooth="yes"/>
      <point x="207" y="680"/>
      <point x="420" y="1051"/>
      <point x="721" y="1051" type="curve" smooth="yes"/>
      <point x="895" y="1051"/>
      <point x="995" y="922"/>
      <point x="995" y="717" type="curve" smooth="yes"/>
      <point x="995" y="395"/>
      <point x="829" y="31"/>
    </contour>
  </outline>
</glyph>
<glyph name="uni01A6" format="2">
  <advance width="1130"/>
  <unicode hex="01A6"/>
  <anchor x="451" y="0" name="bottom"/>
  <anchor x="762" y="1462" name="top"/>
  <outline>
    <contour>
      <point x="868" y="-221" type="line"/>
      <point x="928" y="-221" type="line"/>
      <point x="690" y="440" type="line"/>
      <point x="954" y="485"/>
      <point x="1098" y="641"/>
      <point x="1098" y="889" type="curve" smooth="yes"/>
      <point x="1098" y="1130"/>
      <point x="961" y="1241"/>
      <point x="688" y="1241" type="curve" smooth="yes"/>
      <point x="418" y="1241" type="line"/>
      <point x="465" y="1462" type="line"/>
      <point x="412" y="1462" type="line"/>
      <point x="102" y="0" type="line"/>
      <point x="156" y="0" type="line"/>
      <point x="248" y="434" type="line"/>
      <point x="635" y="434" type="line"/>
    </contour>
    <contour>
      <point x="258" y="485" type="line"/>
      <point x="408" y="1190" type="line"/>
      <point x="676" y="1190" type="line" smooth="yes"/>
      <point x="936" y="1190"/>
      <point x="1042" y="1096"/>
      <point x="1042" y="887" type="curve" smooth="yes"/>
      <point x="1042" y="608"/>
      <point x="846" y="485"/>
      <point x="573" y="485" type="curve" smooth="yes"/>
    </contour>
  </outline>
</glyph>
<glyph name="uni01A7" format="2">
  <advance width="1012"/>
  <unicode hex="01A7"/>
  <anchor x="391" y="0" name="bottom"/>
  <anchor x="702" y="1462" name="top"/>
  <outline>
    <contour>
      <point x="420" y="-20" type="curve" smooth="yes"/>
      <point x="604" y="-20"/>
      <point x="745" y="39"/>
      <point x="813" y="72" type="curve"/>
      <point x="813" y="127" type="line"/>
      <point x="721" y="84"/>
      <point x="592" y="31"/>
      <point x="422" y="31" type="curve" smooth="yes"/>
      <point x="229" y="31"/>
      <point x="119" y="111"/>
      <point x="119" y="301" type="curve" smooth="yes"/>
      <point x="119" y="498"/>
      <point x="244" y="608"/>
      <point x="569" y="725" type="curve" smooth="yes"/>
      <point x="924" y="852"/>
      <point x="1030" y="985"/>
      <point x="1030" y="1202" type="curve" smooth="yes"/>
      <point x="1030" y="1386"/>
      <point x="909" y="1483"/>
      <point x="692" y="1483" type="curve" smooth="yes"/>
      <point x="545" y="1483"/>
      <point x="430" y="1446"/>
      <point x="332" y="1401" type="curve"/>
      <point x="332" y="1341" type="line"/>
      <point x="440" y="1393"/>
      <point x="551" y="1432"/>
      <point x="690" y="1432" type="curve" smooth="yes"/>
      <point x="883" y="1432"/>
      <point x="975" y="1350"/>
      <point x="975" y="1200" type="curve" smooth="yes"/>
      <point x="975" y="1006"/>
      <point x="879" y="891"/>
      <point x="547" y="772" type="curve" smooth="yes"/>
      <point x="190" y="645"/>
      <point x="63" y="514"/>
      <point x="63" y="295" type="curve" smooth="yes"/>
      <point x="63" y="68"/>
      <point x="207" y="-20"/>
    </contour>
  </outline>
</glyph>
<glyph name="uni01A8" format="2">
  <advance width="858"/>
  <unicode hex="01A8"/>
  <anchor x="315" y="0" name="bottom"/>
  <anchor x="545" y="1081" name="top"/>
  <outline>
    <contour>
      <point x="319" y="-20" type="curve" smooth="yes"/>
      <point x="465" y="-20"/>
      <point x="588" y="33"/>
      <point x="651" y="66" type="curve"/>
      <point x="651" y="119" type="line"/>
      <point x="561" y="74"/>
      <point x="449" y="31"/>
      <point x="322" y="31" type="curve" smooth="yes"/>
      <point x="176" y="31"/>
      <point x="96" y="100"/>
      <point x="96" y="219" type="curve" smooth="yes"/>
      <point x="96" y="371"/>
      <point x="199" y="451"/>
      <point x="442" y="545" type="curve" smooth="yes"/>
      <point x="678" y="635"/>
      <point x="793" y="719"/>
      <point x="793" y="881" type="curve" smooth="yes"/>
      <point x="793" y="1010"/>
      <point x="705" y="1098"/>
      <point x="537" y="1098" type="curve" smooth="yes"/>
      <point x="393" y="1098"/>
      <point x="291" y="1049"/>
      <point x="215" y="1012" type="curve"/>
      <point x="236" y="963" type="line"/>
      <point x="315" y="1004"/>
      <point x="410" y="1047"/>
      <point x="528" y="1047" type="curve" smooth="yes"/>
      <point x="672" y="1047"/>
      <point x="737" y="977"/>
      <point x="737" y="874" type="curve" smooth="yes"/>
      <point x="737" y="750"/>
      <point x="651" y="676"/>
      <point x="416" y="590" type="curve" smooth="yes"/>
      <point x="156" y="494"/>
      <point x="41" y="385"/>
      <point x="41" y="215" type="curve" smooth="yes"/>
      <point x="41" y="68"/>
      <point x="133" y="-20"/>
    </contour>
  </outline>
</glyph>
<glyph name="uni01AA" format="2">
  <advance width="500"/>
  <unicode hex="01AA"/>
  <anchor x="31" y="-492" name="bottom"/>
  <anchor x="467" y="1561" name="top"/>
  <outline>
    <contour>
      <point x="285" y="-492" type="curve" smooth="yes"/>
      <point x="338" y="-492"/>
      <point x="387" y="-479"/>
      <point x="420" y="-467" type="curve"/>
      <point x="420" y="-416" type="line"/>
      <point x="389" y="-428"/>
      <point x="340" y="-440"/>
      <point x="285" y="-440" type="curve" smooth="yes"/>
      <point x="205" y="-440"/>
      <point x="145" y="-395"/>
      <point x="145" y="-285" type="curve" smooth="yes"/>
      <point x="145" y="-221"/>
      <point x="158" y="-147"/>
      <point x="174" y="-72" type="curve"/>
      <point x="444" y="1221" type="line"/>
      <point x="457" y="1276"/>
      <point x="463" y="1321"/>
      <point x="463" y="1362" type="curve" smooth="yes"/>
      <point x="463" y="1477"/>
      <point x="385" y="1561"/>
      <point x="244" y="1561" type="curve" smooth="yes"/>
      <point x="84" y="1561"/>
      <point x="-6" y="1452"/>
      <point x="-6" y="1309" type="curve" smooth="yes"/>
      <point x="-6" y="1171"/>
      <point x="82" y="1102"/>
      <point x="229" y="1102" type="curve" smooth="yes"/>
      <point x="367" y="1102" type="line"/>
      <point x="121" y="-72" type="line"/>
      <point x="104" y="-152"/>
      <point x="92" y="-223"/>
      <point x="92" y="-289" type="curve" smooth="yes"/>
      <point x="92" y="-418"/>
      <point x="164" y="-492"/>
    </contour>
    <contour>
      <point x="246" y="1153" type="line" smooth="yes"/>
      <point x="111" y="1153"/>
      <point x="49" y="1204"/>
      <point x="49" y="1315" type="curve" smooth="yes"/>
      <point x="49" y="1432"/>
      <point x="121" y="1509"/>
      <point x="238" y="1509" type="curve" smooth="yes"/>
      <point x="354" y="1509"/>
      <point x="410" y="1444"/>
      <point x="410" y="1358" type="curve" smooth="yes"/>
      <point x="410" y="1315"/>
      <point x="401" y="1270"/>
      <point x="391" y="1221" type="curve" smooth="yes"/>
      <point x="377" y="1153" type="line"/>
    </contour>
  </outline>
</glyph>
<glyph name="uni01AD" format="2">
  <advance width="633"/>
  <unicode hex="01AD"/>
  <anchor x="203" y="0" name="bottom"/>
  <anchor x="537" y="1577" name="top"/>
  <outline>
    <contour>
      <point x="299" y="-20" type="curve" smooth="yes"/>
      <point x="369" y="-20"/>
      <point x="416" y="-8"/>
      <point x="459" y="6" type="curve"/>
      <point x="459" y="57" type="line"/>
      <point x="416" y="41"/>
      <point x="367" y="31"/>
      <point x="301" y="31" type="curve" smooth="yes"/>
      <point x="201" y="31"/>
      <point x="160" y="82"/>
      <point x="160" y="172" type="curve" smooth="yes"/>
      <point x="160" y="207"/>
      <point x="164" y="248"/>
      <point x="174" y="293" type="curve" smooth="yes"/>
      <point x="330" y="1030" type="line"/>
      <point x="664" y="1030" type="line"/>
      <point x="676" y="1081" type="line"/>
      <point x="340" y="1081" type="line"/>
      <point x="395" y="1333" type="line" smooth="yes"/>
      <point x="422" y="1458"/>
      <point x="467" y="1526"/>
      <point x="569" y="1526" type="curve" smooth="yes"/>
      <point x="623" y="1526"/>
      <point x="664" y="1511"/>
      <point x="686" y="1497" type="curve"/>
      <point x="686" y="1552" type="line"/>
      <point x="662" y="1565"/>
      <point x="621" y="1577"/>
      <point x="573" y="1577" type="curve" smooth="yes"/>
      <point x="434" y="1577"/>
      <point x="375" y="1483"/>
      <point x="342" y="1333" type="curve" smooth="yes"/>
      <point x="287" y="1081" type="line"/>
      <point x="129" y="1075" type="line"/>
      <point x="119" y="1030" type="line"/>
      <point x="276" y="1030" type="line"/>
      <point x="119" y="287" type="line" smooth="yes"/>
      <point x="109" y="244"/>
      <point x="104" y="203"/>
      <point x="104" y="168" type="curve" smooth="yes"/>
      <point x="104" y="49"/>
      <point x="164" y="-20"/>
    </contour>
  </outline>
</glyph>
<glyph name="uni01AE" format="2">
  <advance width="993"/>
  <unicode hex="01AE"/>
  <anchor x="307" y="-356" name="bottom"/>
  <anchor x="694" y="1462" name="top"/>
  <outline>
    <contour>
      <point x="524" y="-356" type="curve" smooth="yes"/>
      <point x="575" y="-356"/>
      <point x="614" y="-344"/>
      <point x="647" y="-332" type="curve"/>
      <point x="647" y="-281" type="line"/>
      <point x="616" y="-293"/>
      <point x="578" y="-305"/>
      <point x="524" y="-305" type="curve" smooth="yes"/>
      <point x="444" y="-305"/>
      <point x="391" y="-260"/>
      <point x="391" y="-150" type="curve" smooth="yes"/>
      <point x="391" y="-86"/>
      <point x="403" y="-12"/>
      <point x="420" y="63" type="curve" smooth="yes"/>
      <point x="707" y="1411" type="line"/>
      <point x="1169" y="1411" type="line"/>
      <point x="1180" y="1462" type="line"/>
      <point x="201" y="1462" type="line"/>
      <point x="190" y="1411" type="line"/>
      <point x="653" y="1411" type="line"/>
      <point x="367" y="63" type="line" smooth="yes"/>
      <point x="350" y="-16"/>
      <point x="338" y="-88"/>
      <point x="338" y="-154" type="curve" smooth="yes"/>
      <point x="338" y="-283"/>
      <point x="403" y="-356"/>
    </contour>
  </outline>
</glyph>
<glyph name="Uhorn" format="2">
  <advance width="1489"/>
  <unicode hex="01AF"/>
  <anchor x="631" y="0" name="bottom"/>
  <anchor x="942" y="1462" name="top"/>
  <outline>
    <contour>
      <point x="614" y="-20" type="curve" smooth="yes"/>
      <point x="918" y="-20"/>
      <point x="1139" y="141"/>
      <point x="1219" y="516" type="curve" smooth="yes"/>
      <point x="1360" y="1180" type="line"/>
      <point x="1522" y="1223"/>
      <point x="1612" y="1333"/>
      <point x="1659" y="1538" type="curve"/>
      <point x="1651" y="1556" type="line"/>
      <point x="1604" y="1556" type="line"/>
      <point x="1569" y="1374"/>
      <point x="1489" y="1270"/>
      <point x="1372" y="1237" type="curve"/>
      <point x="1419" y="1462" type="line"/>
      <point x="1364" y="1462" type="line"/>
      <point x="1163" y="526" type="line" smooth="yes"/>
      <point x="1092" y="193"/>
      <point x="893" y="31"/>
      <point x="616" y="31" type="curve" smooth="yes"/>
      <point x="385" y="31"/>
      <point x="238" y="152"/>
      <point x="238" y="379" type="curve" smooth="yes"/>
      <point x="238" y="422"/>
      <point x="244" y="473"/>
      <point x="254" y="524" type="curve" smooth="yes"/>
      <point x="453" y="1462" type="line"/>
      <point x="397" y="1462" type="line"/>
      <point x="197" y="520" type="line" smooth="yes"/>
      <point x="186" y="467"/>
      <point x="180" y="420"/>
      <point x="180" y="375" type="curve" smooth="yes"/>
      <point x="180" y="119"/>
      <point x="352" y="-20"/>
    </contour>
  </outline>
</glyph>
<glyph name="uni01B2" format="2">
  <advance width="1417"/>
  <unicode hex="01B2"/>
  <anchor x="590" y="0" name="bottom"/>
  <anchor x="901" y="1462" name="top"/>
  <anchor x="1573" y="1462" name="topright"/>
  <outline>
    <contour>
      <point x="614" y="-20" type="curve" smooth="yes"/>
      <point x="918" y="-20"/>
      <point x="1139" y="141"/>
      <point x="1219" y="516" type="curve" smooth="yes"/>
      <point x="1337" y="1079" type="line" smooth="yes"/>
      <point x="1358" y="1174"/>
      <point x="1374" y="1251"/>
      <point x="1374" y="1325" type="curve" smooth="yes"/>
      <point x="1374" y="1415"/>
      <point x="1321" y="1483"/>
      <point x="1214" y="1483" type="curve" smooth="yes"/>
      <point x="1145" y="1483"/>
      <point x="1110" y="1458"/>
      <point x="1065" y="1430" type="curve"/>
      <point x="1065" y="1376" type="line"/>
      <point x="1110" y="1409"/>
      <point x="1155" y="1432"/>
      <point x="1208" y="1432" type="curve" smooth="yes"/>
      <point x="1282" y="1432"/>
      <point x="1319" y="1386"/>
      <point x="1319" y="1317" type="curve" smooth="yes"/>
      <point x="1319" y="1257"/>
      <point x="1305" y="1180"/>
      <point x="1282" y="1079" type="curve" smooth="yes"/>
      <point x="1163" y="526" type="line" smooth="yes"/>
      <point x="1092" y="195"/>
      <point x="893" y="31"/>
      <point x="616" y="31" type="curve" smooth="yes"/>
      <point x="385" y="31"/>
      <point x="238" y="152"/>
      <point x="238" y="379" type="curve" smooth="yes"/>
      <point x="238" y="422"/>
      <point x="244" y="473"/>
      <point x="254" y="524" type="curve" smooth="yes"/>
      <point x="453" y="1462" type="line"/>
      <point x="397" y="1462" type="line"/>
      <point x="197" y="520" type="line" smooth="yes"/>
      <point x="186" y="467"/>
      <point x="180" y="420"/>
      <point x="180" y="375" type="curve" smooth="yes"/>
      <point x="180" y="119"/>
      <point x="352" y="-20"/>
    </contour>
  </outline>
</glyph>
<glyph name="uni01B8" format="2">
  <advance width="977"/>
  <unicode hex="01B8"/>
  <anchor x="375" y="0" name="bottom"/>
  <anchor x="686" y="1462" name="top"/>
  <outline>
    <contour>
      <point x="461" y="-20" type="curve" smooth="yes"/>
      <point x="649" y="-20"/>
      <point x="782" y="29"/>
      <point x="866" y="76" type="curve"/>
      <point x="866" y="133" type="line"/>
      <point x="762" y="76"/>
      <point x="641" y="31"/>
      <point x="463" y="31" type="curve" smooth="yes"/>
      <point x="266" y="31"/>
      <point x="137" y="141"/>
      <point x="137" y="346" type="curve" smooth="yes"/>
      <point x="137" y="586"/>
      <point x="268" y="762"/>
      <point x="727" y="762" type="curve" smooth="yes"/>
      <point x="793" y="762" type="line"/>
      <point x="803" y="807" type="line"/>
      <point x="465" y="1411" type="line"/>
      <point x="1028" y="1411" type="line"/>
      <point x="1040" y="1462" type="line"/>
      <point x="408" y="1462" type="line"/>
      <point x="397" y="1421" type="line"/>
      <point x="739" y="813" type="line"/>
      <point x="231" y="813"/>
      <point x="82" y="608"/>
      <point x="82" y="340" type="curve" smooth="yes"/>
      <point x="82" y="115"/>
      <point x="225" y="-20"/>
    </contour>
  </outline>
</glyph>
<glyph name="uni01BA" format="2">
  <advance width="920"/>
  <unicode hex="01BA"/>
  <anchor x="242" y="-492" name="bottom"/>
  <anchor x="575" y="1081" name="top"/>
  <outline>
    <contour>
      <point x="207" y="-492" type="curve" smooth="yes"/>
      <point x="348" y="-492"/>
      <point x="444" y="-461"/>
      <point x="514" y="-434" type="curve"/>
      <point x="524" y="-377" type="line"/>
      <point x="426" y="-418"/>
      <point x="332" y="-440"/>
      <point x="221" y="-440" type="curve" smooth="yes"/>
      <point x="82" y="-440"/>
      <point x="12" y="-399"/>
      <point x="12" y="-301" type="curve" smooth="yes"/>
      <point x="12" y="-190"/>
      <point x="74" y="-133"/>
      <point x="322" y="-98" type="curve" smooth="yes"/>
      <point x="596" y="-59"/>
      <point x="756" y="53"/>
      <point x="756" y="291" type="curve" smooth="yes"/>
      <point x="756" y="467"/>
      <point x="641" y="592"/>
      <point x="365" y="590" type="curve"/>
      <point x="881" y="1030" type="line"/>
      <point x="891" y="1081" type="line"/>
      <point x="223" y="1081" type="line"/>
      <point x="213" y="1030" type="line"/>
      <point x="797" y="1030" type="line"/>
      <point x="283" y="588" type="line"/>
      <point x="268" y="539" type="line"/>
      <point x="362" y="539" type="line" smooth="yes"/>
      <point x="602" y="539"/>
      <point x="700" y="434"/>
      <point x="700" y="283" type="curve" smooth="yes"/>
      <point x="700" y="84"/>
      <point x="571" y="-16"/>
      <point x="307" y="-51" type="curve" smooth="yes"/>
      <point x="37" y="-86"/>
      <point x="-43" y="-166"/>
      <point x="-43" y="-305" type="curve" smooth="yes"/>
      <point x="-43" y="-436"/>
      <point x="55" y="-492"/>
    </contour>
  </outline>
</glyph>
<glyph name="uni01BE" format="2">
  <advance width="762"/>
  <unicode hex="01BE"/>
  <anchor x="266" y="0" name="bottom"/>
  <anchor x="553" y="1350" name="top"/>
  <outline>
    <contour>
      <point x="248" y="-20" type="curve" smooth="yes"/>
      <point x="483" y="-20"/>
      <point x="625" y="102"/>
      <point x="625" y="295" type="curve" smooth="yes"/>
      <point x="625" y="444"/>
      <point x="526" y="494"/>
      <point x="412" y="553" type="curve" smooth="yes"/>
      <point x="352" y="584"/>
      <point x="336" y="614"/>
      <point x="336" y="664" type="curve" smooth="yes"/>
      <point x="336" y="698"/>
      <point x="340" y="739"/>
      <point x="350" y="784" type="curve" smooth="yes"/>
      <point x="401" y="1030" type="line"/>
      <point x="735" y="1030" type="line"/>
      <point x="748" y="1081" type="line"/>
      <point x="414" y="1081" type="line"/>
      <point x="471" y="1350" type="line"/>
      <point x="428" y="1350" type="line"/>
      <point x="358" y="1081" type="line"/>
      <point x="201" y="1075" type="line"/>
      <point x="190" y="1030" type="line"/>
      <point x="348" y="1030" type="line"/>
      <point x="295" y="778" type="line" smooth="yes"/>
      <point x="287" y="735"/>
      <point x="281" y="694"/>
      <point x="281" y="659" type="curve" smooth="yes"/>
      <point x="281" y="586"/>
      <point x="305" y="545"/>
      <point x="387" y="504" type="curve" smooth="yes"/>
      <point x="489" y="453"/>
      <point x="569" y="408"/>
      <point x="569" y="293" type="curve" smooth="yes"/>
      <point x="569" y="123"/>
      <point x="426" y="31"/>
      <point x="250" y="31" type="curve" smooth="yes"/>
      <point x="141" y="31"/>
      <point x="29" y="66"/>
      <point x="-57" y="117" type="curve"/>
      <point x="-57" y="55" type="line"/>
      <point x="10" y="18"/>
      <point x="117" y="-20"/>
    </contour>
  </outline>
</glyph>
<glyph name="uni01BF" format="2">
  <advance width="1143"/>
  <unicode hex="01BF"/>
  <anchor x="352" y="-492" name="bottom"/>
  <anchor x="686" y="1081" name="top"/>
  <outline>
    <contour>
      <point x="-39" y="-492" type="line"/>
      <point x="14" y="-492" type="line"/>
      <point x="119" y="-6" type="line"/>
      <point x="727" y="-10"/>
      <point x="1022" y="336"/>
      <point x="1022" y="762" type="curve" smooth="yes"/>
      <point x="1022" y="1004"/>
      <point x="901" y="1104"/>
      <point x="717" y="1104" type="curve" smooth="yes"/>
      <point x="471" y="1104"/>
      <point x="354" y="936"/>
      <point x="285" y="762" type="curve"/>
      <point x="279" y="762" type="line"/>
      <point x="342" y="1081" type="line"/>
      <point x="295" y="1081" type="line"/>
    </contour>
    <contour>
      <point x="129" y="45" type="curve"/>
      <point x="186" y="326" type="line" smooth="yes"/>
      <point x="281" y="784"/>
      <point x="436" y="1053"/>
      <point x="713" y="1053" type="curve" smooth="yes"/>
      <point x="872" y="1053"/>
      <point x="967" y="967"/>
      <point x="967" y="762" type="curve" smooth="yes"/>
      <point x="967" y="358"/>
      <point x="696" y="45"/>
    </contour>
  </outline>
</glyph>
<glyph name="uni01C0" format="2">
  <advance width="680"/>
  <unicode hex="01C0"/>
  <anchor x="225" y="0" name="bottom"/>
  <anchor x="553" y="1556" name="top"/>
  <outline>
    <contour>
      <point x="199" y="0" type="line"/>
      <point x="252" y="0" type="line"/>
      <point x="582" y="1556" type="line"/>
      <point x="528" y="1556" type="line"/>
    </contour>
  </outline>
</glyph>
<glyph name="uni01F7" format="2">
  <advance width="1210"/>
  <unicode hex="01F7"/>
  <anchor x="387" y="-492" name="bottom"/>
  <anchor x="803" y="1462" name="top"/>
  <outline>
    <contour>
      <point x="33" y="-492" type="line"/>
      <point x="86" y="-492" type="line"/>
      <point x="184" y="-14" type="line"/>
      <point x="723" y="137"/>
      <point x="1174" y="543"/>
      <point x="1174" y="1079" type="curve" smooth="yes"/>
      <point x="1174" y="1329"/>
      <point x="1067" y="1481"/>
      <point x="823" y="1481" type="curve" smooth="yes"/>
      <point x="618" y="1481"/>
      <point x="504" y="1382"/>
      <point x="446" y="1270" type="curve"/>
      <point x="444" y="1270" type="line"/>
      <point x="475" y="1462" type="line"/>
      <point x="432" y="1462" type="line"/>
    </contour>
    <contour>
      <point x="195" y="39" type="curve"/>
      <point x="387" y="985" type="line" smooth="yes"/>
      <point x="453" y="1303"/>
      <point x="592" y="1430"/>
      <point x="821" y="1430" type="curve" smooth="yes"/>
      <point x="1034" y="1430"/>
      <point x="1118" y="1288"/>
      <point x="1118" y="1075" type="curve" smooth="yes"/>
      <point x="1118" y="563"/>
      <point x="700" y="195"/>
    </contour>
  </outline>
</glyph>
<glyph name="uni0223" format="2">
  <advance width="1130"/>
  <unicode hex="0223"/>
  <anchor x="451" y="0" name="bottom"/>
  <anchor x="680" y="1081" name="top"/>
  <outline>
    <contour>
      <point x="532" y="-16" type="curve" smooth="yes"/>
      <point x="827" y="-16"/>
      <point x="1004" y="197"/>
      <point x="1004" y="543" type="curve" smooth="yes"/>
      <point x="1004" y="782"/>
      <point x="872" y="877"/>
      <point x="778" y="907" type="curve"/>
      <point x="932" y="922"/>
      <point x="1042" y="1020"/>
      <point x="1098" y="1272" type="curve" smooth="yes"/>
      <point x="1161" y="1556" type="line"/>
      <point x="1108" y="1556" type="line"/>
      <point x="1047" y="1284" type="line" smooth="yes"/>
      <point x="991" y="1042"/>
      <point x="903" y="942"/>
      <point x="678" y="942" type="curve" smooth="yes"/>
      <point x="514" y="942"/>
      <point x="408" y="1012"/>
      <point x="408" y="1161" type="curve" smooth="yes"/>
      <point x="408" y="1210"/>
      <point x="414" y="1253"/>
      <point x="428" y="1317" type="curve" smooth="yes"/>
      <point x="479" y="1556" type="line"/>
      <point x="426" y="1556" type="line"/>
      <point x="375" y="1317" type="line" smooth="yes"/>
      <point x="362" y="1255"/>
      <point x="354" y="1208"/>
      <point x="354" y="1159" type="curve" smooth="yes"/>
      <point x="354" y="1026"/>
      <point x="424" y="961"/>
      <point x="500" y="926" type="curve"/>
      <point x="324" y="897"/>
      <point x="127" y="731"/>
      <point x="127" y="393" type="curve" smooth="yes"/>
      <point x="127" y="129"/>
      <point x="281" y="-16"/>
    </contour>
    <contour>
      <point x="532" y="35" type="curve" smooth="yes"/>
      <point x="322" y="35"/>
      <point x="182" y="152"/>
      <point x="182" y="393" type="curve" smooth="yes"/>
      <point x="182" y="702"/>
      <point x="352" y="891"/>
      <point x="614" y="891" type="curve" smooth="yes"/>
      <point x="813" y="891"/>
      <point x="948" y="776"/>
      <point x="948" y="541" type="curve" smooth="yes"/>
      <point x="948" y="250"/>
      <point x="815" y="35"/>
    </contour>
  </outline>
</glyph>
<glyph name="uni0224" format="2">
  <advance width="1102"/>
  <unicode hex="0224"/>
  <anchor x="350" y="-406" name="bottom"/>
  <anchor x="748" y="1462" name="top"/>
  <outline>
    <contour>
      <point x="653" y="-406" type="curve" smooth="yes"/>
      <point x="754" y="-406"/>
      <point x="809" y="-344"/>
      <point x="829" y="-248" type="curve" smooth="yes"/>
      <point x="893" y="51" type="line"/>
      <point x="70" y="51" type="line"/>
      <point x="1161" y="1425" type="line"/>
      <point x="1169" y="1462" type="line"/>
      <point x="328" y="1462" type="line"/>
      <point x="317" y="1411" type="line"/>
      <point x="1083" y="1411" type="line"/>
      <point x="-10" y="37" type="line"/>
      <point x="-16" y="0" type="line"/>
      <point x="829" y="0" type="line"/>
      <point x="778" y="-236" type="line" smooth="yes"/>
      <point x="762" y="-309"/>
      <point x="731" y="-354"/>
      <point x="662" y="-354" type="curve" smooth="yes"/>
      <point x="614" y="-354"/>
      <point x="582" y="-338"/>
      <point x="565" y="-328" type="curve"/>
      <point x="565" y="-385" type="line"/>
      <point x="584" y="-395"/>
      <point x="610" y="-406"/>
    </contour>
  </outline>
</glyph>
<glyph name="uni0234" format="2">
  <advance width="662"/>
  <unicode hex="0234"/>
  <anchor x="217" y="0" name="bottom"/>
  <anchor x="547" y="1556" name="top"/>
  <outline>
    <contour>
      <point x="49" y="-45" type="line"/>
      <point x="66" y="18"/>
      <point x="106" y="115"/>
      <point x="150" y="170" type="curve"/>
      <point x="162" y="49"/>
      <point x="233" y="-20"/>
      <point x="350" y="-20" type="curve" smooth="yes"/>
      <point x="473" y="-20"/>
      <point x="555" y="55"/>
      <point x="555" y="184" type="curve" smooth="yes"/>
      <point x="555" y="293"/>
      <point x="477" y="354"/>
      <point x="375" y="354" type="curve" smooth="yes"/>
      <point x="301" y="354"/>
      <point x="238" y="319"/>
      <point x="203" y="289" type="curve"/>
      <point x="473" y="1556" type="line"/>
      <point x="420" y="1556" type="line"/>
      <point x="156" y="311" type="line" smooth="yes"/>
      <point x="152" y="289"/>
      <point x="147" y="264"/>
      <point x="145" y="242" type="curve"/>
      <point x="78" y="166"/>
      <point x="27" y="66"/>
      <point x="-4" y="-29" type="curve"/>
    </contour>
    <contour>
      <point x="350" y="31" type="curve" smooth="yes"/>
      <point x="260" y="31"/>
      <point x="197" y="98"/>
      <point x="197" y="219" type="curve"/>
      <point x="233" y="264"/>
      <point x="293" y="303"/>
      <point x="373" y="303" type="curve" smooth="yes"/>
      <point x="449" y="303"/>
      <point x="500" y="252"/>
      <point x="500" y="182" type="curve" smooth="yes"/>
      <point x="500" y="86"/>
      <point x="446" y="31"/>
    </contour>
  </outline>
</glyph>
<glyph name="uni0238" format="2">
  <advance width="1903"/>
  <unicode hex="0238"/>
  <anchor x="838" y="0" name="bottom"/>
  <anchor x="1167" y="1556" name="top"/>
  <outline>
    <contour>
      <point x="412" y="-20" type="curve" smooth="yes"/>
      <point x="610" y="-20"/>
      <point x="797" y="129"/>
      <point x="903" y="354" type="curve"/>
      <point x="899" y="66"/>
      <point x="1028" y="-20"/>
      <point x="1229" y="-20" type="curve" smooth="yes"/>
      <point x="1610" y="-20"/>
      <point x="1790" y="385"/>
      <point x="1790" y="717" type="curve" smooth="yes"/>
      <point x="1790" y="969"/>
      <point x="1671" y="1102"/>
      <point x="1470" y="1102" type="curve" smooth="yes"/>
      <point x="1257" y="1102"/>
      <point x="1094" y="938"/>
      <point x="1026" y="780" type="curve"/>
      <point x="1022" y="780" type="line"/>
      <point x="1049" y="893"/>
      <point x="1075" y="1028"/>
      <point x="1094" y="1112" type="curve" smooth="yes"/>
      <point x="1188" y="1556" type="line"/>
      <point x="1135" y="1556" type="line"/>
      <point x="1040" y="1112" type="line" smooth="yes"/>
      <point x="1022" y="1026"/>
      <point x="999" y="918"/>
      <point x="983" y="825" type="curve"/>
      <point x="979" y="825" type="line"/>
      <point x="961" y="971"/>
      <point x="870" y="1102"/>
      <point x="664" y="1102" type="curve" smooth="yes"/>
      <point x="285" y="1102"/>
      <point x="104" y="696"/>
      <point x="104" y="365" type="curve" smooth="yes"/>
      <point x="104" y="133"/>
      <point x="201" y="-20"/>
    </contour>
    <contour>
      <point x="416" y="31" type="curve" smooth="yes"/>
      <point x="244" y="31"/>
      <point x="160" y="154"/>
      <point x="160" y="365" type="curve" smooth="yes"/>
      <point x="160" y="686"/>
      <point x="326" y="1051"/>
      <point x="662" y="1051" type="curve" smooth="yes"/>
      <point x="829" y="1051"/>
      <point x="942" y="954"/>
      <point x="942" y="741" type="curve" smooth="yes"/>
      <point x="942" y="362"/>
      <point x="690" y="31"/>
    </contour>
    <contour>
      <point x="1231" y="31" type="curve" smooth="yes"/>
      <point x="1063" y="31"/>
      <point x="952" y="111"/>
      <point x="952" y="324" type="curve" smooth="yes"/>
      <point x="952" y="662"/>
      <point x="1155" y="1051"/>
      <point x="1460" y="1051" type="curve" smooth="yes"/>
      <point x="1645" y="1051"/>
      <point x="1735" y="922"/>
      <point x="1735" y="717" type="curve" smooth="yes"/>
      <point x="1735" y="395"/>
      <point x="1569" y="31"/>
    </contour>
  </outline>
</glyph>
<glyph name="uni023B" format="2">
  <advance width="1217"/>
  <unicode hex="023B"/>
  <anchor x="504" y="0" name="bottom"/>
  <anchor x="815" y="1462" name="top"/>
  <outline>
    <contour>
      <point x="268" y="-154" type="line"/>
      <point x="317" y="-154" type="line"/>
      <point x="1219" y="1556" type="line"/>
      <point x="1171" y="1556" type="line"/>
    </contour>
    <component base="C" xOffset="10"/>
  </outline>
</glyph>
<glyph name="uni023C" format="2">
  <advance width="926"/>
  <unicode hex="023C"/>
  <anchor x="307" y="-236" name="bottom"/>
  <anchor x="670" y="1477" name="top"/>
  <outline>
    <contour>
      <point x="74" y="-236" type="line"/>
      <point x="123" y="-236" type="line"/>
      <point x="1024" y="1477" type="line"/>
      <point x="977" y="1477" type="line"/>
    </contour>
    <component base="c" xOffset="8"/>
  </outline>
</glyph>
<glyph name="uni0241" format="2">
  <advance width="764"/>
  <unicode hex="0241"/>
  <anchor x="268" y="0" name="bottom"/>
  <anchor x="580" y="1462" name="top"/>
  <outline>
    <contour>
      <point x="119" y="0" type="line"/>
      <point x="172" y="0" type="line"/>
      <point x="303" y="584" type="line"/>
      <point x="676" y="815"/>
      <point x="780" y="981"/>
      <point x="780" y="1180" type="curve" smooth="yes"/>
      <point x="780" y="1366"/>
      <point x="672" y="1483"/>
      <point x="467" y="1483" type="curve" smooth="yes"/>
      <point x="324" y="1483"/>
      <point x="217" y="1436"/>
      <point x="129" y="1380" type="curve"/>
      <point x="154" y="1335" type="line"/>
      <point x="223" y="1382"/>
      <point x="334" y="1432"/>
      <point x="459" y="1432" type="curve" smooth="yes"/>
      <point x="639" y="1432"/>
      <point x="725" y="1333"/>
      <point x="725" y="1178" type="curve" smooth="yes"/>
      <point x="725" y="1018"/>
      <point x="678" y="872"/>
      <point x="254" y="612" type="curve"/>
    </contour>
  </outline>
</glyph>
<glyph name="uni0242" format="2">
  <advance width="752"/>
  <unicode hex="0242"/>
  <anchor x="262" y="0" name="bottom"/>
  <anchor x="492" y="1081" name="top"/>
  <outline>
    <contour>
      <point x="98" y="0" type="line"/>
      <point x="152" y="0" type="line"/>
      <point x="223" y="307" type="line"/>
      <point x="565" y="459"/>
      <point x="705" y="610"/>
      <point x="705" y="821" type="curve" smooth="yes"/>
      <point x="705" y="999"/>
      <point x="594" y="1102"/>
      <point x="385" y="1102" type="curve" smooth="yes"/>
      <point x="250" y="1102"/>
      <point x="154" y="1061"/>
      <point x="78" y="1020" type="curve"/>
      <point x="96" y="973" type="line"/>
      <point x="164" y="1010"/>
      <point x="254" y="1051"/>
      <point x="375" y="1051" type="curve" smooth="yes"/>
      <point x="565" y="1051"/>
      <point x="649" y="963"/>
      <point x="649" y="817" type="curve" smooth="yes"/>
      <point x="649" y="633"/>
      <point x="539" y="504"/>
      <point x="176" y="342" type="curve"/>
    </contour>
  </outline>
</glyph>
<glyph name="uni024B" format="2">
  <advance width="1163"/>
  <unicode hex="024B"/>
  <anchor x="362" y="-492" name="bottom"/>
  <anchor x="696" y="1081" name="top"/>
  <outline>
    <contour>
      <point x="840" y="-492" type="curve" smooth="yes"/>
      <point x="881" y="-492"/>
      <point x="909" y="-481"/>
      <point x="930" y="-471" type="curve"/>
      <point x="930" y="-420" type="line"/>
      <point x="909" y="-430"/>
      <point x="879" y="-440"/>
      <point x="840" y="-440" type="curve" smooth="yes"/>
      <point x="801" y="-440"/>
      <point x="782" y="-414"/>
      <point x="782" y="-383" type="curve" smooth="yes"/>
      <point x="782" y="-358"/>
      <point x="788" y="-332"/>
      <point x="795" y="-303" type="curve" smooth="yes"/>
      <point x="1087" y="1081" type="line"/>
      <point x="1042" y="1081" type="line"/>
      <point x="987" y="834" type="line"/>
      <point x="983" y="834" type="line"/>
      <point x="963" y="961"/>
      <point x="870" y="1102"/>
      <point x="666" y="1102" type="curve" smooth="yes"/>
      <point x="285" y="1102"/>
      <point x="104" y="696"/>
      <point x="104" y="365" type="curve" smooth="yes"/>
      <point x="104" y="133"/>
      <point x="203" y="-20"/>
      <point x="414" y="-20" type="curve" smooth="yes"/>
      <point x="618" y="-20"/>
      <point x="795" y="158"/>
      <point x="870" y="297" type="curve"/>
      <point x="874" y="297" type="line"/>
      <point x="848" y="193"/>
      <point x="817" y="53"/>
      <point x="799" y="-31" type="curve" smooth="yes"/>
      <point x="741" y="-301" type="line" smooth="yes"/>
      <point x="735" y="-330"/>
      <point x="729" y="-367"/>
      <point x="729" y="-385" type="curve" smooth="yes"/>
      <point x="729" y="-449"/>
      <point x="766" y="-492"/>
    </contour>
    <contour>
      <point x="420" y="31" type="curve" smooth="yes"/>
      <point x="236" y="31"/>
      <point x="160" y="160"/>
      <point x="160" y="365" type="curve" smooth="yes"/>
      <point x="160" y="686"/>
      <point x="326" y="1051"/>
      <point x="664" y="1051" type="curve" smooth="yes"/>
      <point x="831" y="1051"/>
      <point x="948" y="946"/>
      <point x="948" y="733" type="curve" smooth="yes"/>
      <point x="948" y="375"/>
      <point x="688" y="31"/>
    </contour>
  </outline>
</glyph>
<glyph name="uni024C" format="2">
  <advance width="1151"/>
  <unicode hex="024C"/>
  <anchor x="461" y="0" name="bottom"/>
  <anchor x="772" y="1462" name="top"/>
  <outline>
    <contour>
      <point x="102" y="0" type="line"/>
      <point x="158" y="0" type="line"/>
      <point x="297" y="655" type="line"/>
      <point x="680" y="655" type="line"/>
      <point x="913" y="0" type="line"/>
      <point x="973" y="0" type="line"/>
      <point x="733" y="666" type="line"/>
      <point x="997" y="711"/>
      <point x="1143" y="862"/>
      <point x="1143" y="1124" type="curve" smooth="yes"/>
      <point x="1143" y="1352"/>
      <point x="997" y="1462"/>
      <point x="713" y="1462" type="curve" smooth="yes"/>
      <point x="412" y="1462" type="line"/>
      <point x="252" y="707" type="line"/>
      <point x="61" y="707" type="line"/>
      <point x="51" y="655" type="line"/>
      <point x="242" y="655" type="line"/>
    </contour>
    <contour>
      <point x="307" y="707" type="line"/>
      <point x="457" y="1411" type="line"/>
      <point x="700" y="1411" type="line" smooth="yes"/>
      <point x="963" y="1411"/>
      <point x="1087" y="1317"/>
      <point x="1087" y="1122" type="curve" smooth="yes"/>
      <point x="1087" y="829"/>
      <point x="877" y="707"/>
      <point x="618" y="707" type="curve" smooth="yes"/>
    </contour>
  </outline>
</glyph>
<glyph name="uni024D" format="2">
  <advance width="758"/>
  <unicode hex="024D"/>
  <anchor x="264" y="0" name="bottom"/>
  <anchor x="494" y="1081" name="top"/>
  <outline>
    <contour>
      <point x="66" y="0" type="line"/>
      <point x="119" y="0" type="line"/>
      <point x="227" y="514" type="line"/>
      <point x="485" y="514" type="line"/>
      <point x="498" y="565" type="line"/>
      <point x="238" y="565" type="line"/>
      <point x="303" y="834"/>
      <point x="502" y="1047"/>
      <point x="688" y="1047" type="curve" smooth="yes"/>
      <point x="733" y="1047"/>
      <point x="770" y="1040"/>
      <point x="797" y="1032" type="curve"/>
      <point x="809" y="1081" type="line"/>
      <point x="776" y="1092"/>
      <point x="733" y="1098"/>
      <point x="688" y="1098" type="curve" smooth="yes"/>
      <point x="498" y="1098"/>
      <point x="350" y="915"/>
      <point x="287" y="797" type="curve"/>
      <point x="283" y="797" type="line"/>
      <point x="340" y="1081" type="line"/>
      <point x="295" y="1081" type="line"/>
      <point x="186" y="565" type="line"/>
      <point x="33" y="565" type="line"/>
      <point x="20" y="514" type="line"/>
      <point x="174" y="514" type="line"/>
    </contour>
  </outline>
</glyph>
<glyph name="uni0257" format="2">
  <advance width="1163"/>
  <unicode hex="0257"/>
  <anchor x="467" y="0" name="bottom"/>
  <anchor x="801" y="1577" name="top"/>
  <outline>
    <contour>
      <point x="412" y="-20" type="curve" smooth="yes"/>
      <point x="621" y="-20"/>
      <point x="780" y="147"/>
      <point x="866" y="289" type="curve"/>
      <point x="870" y="289" type="line"/>
      <point x="813" y="0" type="line"/>
      <point x="858" y="0" type="line"/>
      <point x="1149" y="1378" type="line" smooth="yes"/>
      <point x="1167" y="1464"/>
      <point x="1194" y="1526"/>
      <point x="1284" y="1526" type="curve" smooth="yes"/>
      <point x="1329" y="1526"/>
      <point x="1364" y="1509"/>
      <point x="1384" y="1493" type="curve"/>
      <point x="1395" y="1546" type="line"/>
      <point x="1374" y="1561"/>
      <point x="1339" y="1577"/>
      <point x="1288" y="1577" type="curve" smooth="yes"/>
      <point x="1169" y="1577"/>
      <point x="1122" y="1503"/>
      <point x="1098" y="1384" type="curve" smooth="yes"/>
      <point x="1040" y="1112" type="line" smooth="yes"/>
      <point x="1022" y="1026"/>
      <point x="1001" y="926"/>
      <point x="987" y="834" type="curve"/>
      <point x="983" y="834" type="line"/>
      <point x="965" y="958"/>
      <point x="870" y="1102"/>
      <point x="664" y="1102" type="curve" smooth="yes"/>
      <point x="285" y="1102"/>
      <point x="104" y="696"/>
      <point x="104" y="365" type="curve" smooth="yes"/>
      <point x="104" y="133"/>
      <point x="201" y="-20"/>
    </contour>
    <contour>
      <point x="416" y="31" type="curve" smooth="yes"/>
      <point x="244" y="31"/>
      <point x="160" y="154"/>
      <point x="160" y="365" type="curve" smooth="yes"/>
      <point x="160" y="686"/>
      <point x="326" y="1051"/>
      <point x="662" y="1051" type="curve" smooth="yes"/>
      <point x="829" y="1051"/>
      <point x="948" y="946"/>
      <point x="948" y="733" type="curve" smooth="yes"/>
      <point x="948" y="354"/>
      <point x="676" y="31"/>
    </contour>
  </outline>
</glyph>
<glyph name="schwahook" format="2">
  <advance width="1370"/>
  <unicode hex="025A"/>
  <anchor x="352" y="-20" name="bottom"/>
  <anchor x="530" y="1102" name="top"/>
  <outline>
    <contour>
      <point x="352" y="-20" type="curve" smooth="yes"/>
      <point x="653" y="-20"/>
      <point x="891" y="268"/>
      <point x="907" y="645" type="curve"/>
      <point x="1044" y="678" type="line"/>
      <point x="1044" y="494"/>
      <point x="1067" y="391"/>
      <point x="1188" y="391" type="curve" smooth="yes"/>
      <point x="1231" y="391"/>
      <point x="1282" y="403"/>
      <point x="1331" y="426" type="curve"/>
      <point x="1331" y="479" type="line"/>
      <point x="1278" y="455"/>
      <point x="1229" y="442"/>
      <point x="1186" y="442" type="curve" smooth="yes"/>
      <point x="1116" y="442"/>
      <point x="1098" y="504"/>
      <point x="1098" y="651" type="curve" smooth="yes"/>
      <point x="1098" y="741" type="line"/>
      <point x="907" y="698" type="line"/>
      <point x="901" y="987"/>
      <point x="721" y="1102"/>
      <point x="530" y="1102" type="curve" smooth="yes"/>
      <point x="418" y="1102"/>
      <point x="303" y="1069"/>
      <point x="244" y="1036" type="curve"/>
      <point x="244" y="983" type="line"/>
      <point x="309" y="1012"/>
      <point x="403" y="1051"/>
      <point x="520" y="1051" type="curve" smooth="yes"/>
      <point x="723" y="1051"/>
      <point x="852" y="922"/>
      <point x="852" y="684" type="curve"/>
      <point x="782" y="668" type="line" smooth="yes"/>
      <point x="242" y="541"/>
      <point x="96" y="418"/>
      <point x="96" y="213" type="curve" smooth="yes"/>
      <point x="96" y="76"/>
      <point x="201" y="-20"/>
    </contour>
    <contour>
      <point x="360" y="31" type="curve" smooth="yes"/>
      <point x="223" y="31"/>
      <point x="152" y="109"/>
      <point x="152" y="215" type="curve" smooth="yes"/>
      <point x="152" y="387"/>
      <point x="293" y="498"/>
      <point x="782" y="616" type="curve" smooth="yes"/>
      <point x="852" y="633" type="line"/>
      <point x="852" y="354"/>
      <point x="643" y="31"/>
    </contour>
  </outline>
</glyph>
<glyph name="uni0264" format="2">
  <advance width="842"/>
  <unicode hex="0264"/>
  <anchor x="307" y="0" name="bottom"/>
  <anchor x="537" y="1081" name="top"/>
  <outline>
    <contour>
      <point x="346" y="-18" type="curve" smooth="yes"/>
      <point x="453" y="-18"/>
      <point x="526" y="66"/>
      <point x="526" y="242" type="curve" smooth="yes"/>
      <point x="526" y="322"/>
      <point x="508" y="424"/>
      <point x="475" y="559" type="curve"/>
      <point x="735" y="936" type="line" smooth="yes"/>
      <point x="795" y="1022"/>
      <point x="836" y="1049"/>
      <point x="885" y="1049" type="curve" smooth="yes"/>
      <point x="909" y="1049"/>
      <point x="934" y="1042"/>
      <point x="954" y="1032" type="curve"/>
      <point x="965" y="1079" type="line"/>
      <point x="944" y="1090"/>
      <point x="920" y="1096"/>
      <point x="889" y="1096" type="curve" smooth="yes"/>
      <point x="793" y="1096"/>
      <point x="748" y="1044"/>
      <point x="688" y="956" type="curve" smooth="yes"/>
      <point x="547" y="752" type="line" smooth="yes"/>
      <point x="516" y="707"/>
      <point x="479" y="653"/>
      <point x="457" y="614" type="curve"/>
      <point x="453" y="614" type="line"/>
      <point x="444" y="657"/>
      <point x="436" y="698"/>
      <point x="420" y="754" type="curve" smooth="yes"/>
      <point x="375" y="913" type="line" smooth="yes"/>
      <point x="334" y="1057"/>
      <point x="283" y="1100"/>
      <point x="199" y="1100" type="curve" smooth="yes"/>
      <point x="154" y="1100"/>
      <point x="121" y="1087"/>
      <point x="98" y="1077" type="curve"/>
      <point x="98" y="1026" type="line"/>
      <point x="121" y="1038"/>
      <point x="154" y="1049"/>
      <point x="188" y="1049" type="curve" smooth="yes"/>
      <point x="258" y="1049"/>
      <point x="293" y="1008"/>
      <point x="324" y="899" type="curve" smooth="yes"/>
      <point x="414" y="571" type="line"/>
      <point x="285" y="406"/>
      <point x="209" y="276"/>
      <point x="209" y="150" type="curve" smooth="yes"/>
      <point x="209" y="53"/>
      <point x="246" y="-18"/>
    </contour>
    <contour>
      <point x="348" y="33" type="curve" smooth="yes"/>
      <point x="295" y="33"/>
      <point x="264" y="74"/>
      <point x="264" y="152" type="curve" smooth="yes"/>
      <point x="264" y="250"/>
      <point x="317" y="362"/>
      <point x="432" y="518" type="curve"/>
      <point x="457" y="410"/>
      <point x="471" y="317"/>
      <point x="471" y="242" type="curve" smooth="yes"/>
      <point x="471" y="98"/>
      <point x="434" y="33"/>
    </contour>
  </outline>
</glyph>
<glyph name="uni0268" format="2">
  <advance width="446"/>
  <unicode hex="0268"/>
  <anchor x="109" y="0" name="bottom"/>
  <anchor x="422" y="1477" name="top"/>
  <outline>
    <contour>
      <point x="66" y="0" type="line"/>
      <point x="119" y="0" type="line"/>
      <point x="231" y="535" type="line"/>
      <point x="395" y="535" type="line"/>
      <point x="408" y="586" type="line"/>
      <point x="244" y="586" type="line"/>
      <point x="348" y="1081" type="line"/>
      <point x="295" y="1081" type="line"/>
      <point x="190" y="586" type="line"/>
      <point x="31" y="586" type="line"/>
      <point x="18" y="535" type="line"/>
      <point x="178" y="535" type="line"/>
    </contour>
    <contour>
      <point x="387" y="1350" type="curve" smooth="yes"/>
      <point x="426" y="1350"/>
      <point x="446" y="1395"/>
      <point x="446" y="1432" type="curve" smooth="yes"/>
      <point x="446" y="1454"/>
      <point x="434" y="1477"/>
      <point x="401" y="1477" type="curve" smooth="yes"/>
      <point x="360" y="1477"/>
      <point x="340" y="1432"/>
      <point x="340" y="1395" type="curve" smooth="yes"/>
      <point x="340" y="1366"/>
      <point x="358" y="1350"/>
    </contour>
  </outline>
</glyph>
<glyph name="uni026A" format="2">
  <advance width="410"/>
  <unicode hex="026A"/>
  <anchor x="90" y="0" name="bottom"/>
  <anchor x="319" y="1081" name="top"/>
  <outline>
    <contour>
      <point x="-63" y="0" type="line"/>
      <point x="244" y="0" type="line"/>
      <point x="252" y="41" type="line"/>
      <point x="129" y="45" type="line"/>
      <point x="340" y="1036" type="line"/>
      <point x="467" y="1040" type="line"/>
      <point x="475" y="1081" type="line"/>
      <point x="166" y="1081" type="line"/>
      <point x="158" y="1040" type="line"/>
      <point x="287" y="1036" type="line"/>
      <point x="76" y="45" type="line"/>
      <point x="-55" y="41" type="line"/>
    </contour>
  </outline>
</glyph>
<glyph name="uni026B" format="2">
  <advance width="424"/>
  <unicode hex="026B"/>
  <anchor x="98" y="0" name="bottom"/>
  <anchor x="428" y="1556" name="top"/>
  <outline>
    <contour>
      <point x="66" y="0" type="line"/>
      <point x="119" y="0" type="line"/>
      <point x="283" y="770" type="line"/>
      <point x="311" y="748"/>
      <point x="342" y="729"/>
      <point x="379" y="729" type="curve" smooth="yes"/>
      <point x="473" y="729"/>
      <point x="522" y="791"/>
      <point x="553" y="901" type="curve"/>
      <point x="506" y="901" type="line"/>
      <point x="473" y="795"/>
      <point x="430" y="772"/>
      <point x="381" y="772" type="curve" smooth="yes"/>
      <point x="350" y="772"/>
      <point x="322" y="795"/>
      <point x="293" y="821" type="curve"/>
      <point x="449" y="1556" type="line"/>
      <point x="395" y="1556" type="line"/>
      <point x="248" y="860" type="line"/>
      <point x="219" y="883"/>
      <point x="184" y="901"/>
      <point x="143" y="901" type="curve" smooth="yes"/>
      <point x="53" y="901"/>
      <point x="6" y="844"/>
      <point x="-23" y="729" type="curve"/>
      <point x="20" y="729" type="line"/>
      <point x="53" y="836"/>
      <point x="96" y="858"/>
      <point x="141" y="858" type="curve" smooth="yes"/>
      <point x="178" y="858"/>
      <point x="207" y="836"/>
      <point x="238" y="809" type="curve"/>
    </contour>
  </outline>
</glyph>
<glyph name="uni026E" format="2">
  <advance width="985"/>
  <unicode hex="026E"/>
  <anchor x="274" y="-492" name="bottom"/>
  <anchor x="709" y="1556" name="top"/>
  <outline>
    <contour>
      <point x="293" y="-492" type="curve" smooth="yes"/>
      <point x="680" y="-492"/>
      <point x="807" y="-190"/>
      <point x="807" y="47" type="curve" smooth="yes"/>
      <point x="807" y="344"/>
      <point x="606" y="436"/>
      <point x="391" y="438" type="curve"/>
      <point x="989" y="1030" type="line"/>
      <point x="999" y="1081" type="line"/>
      <point x="348" y="1081" type="line"/>
      <point x="449" y="1556" type="line"/>
      <point x="395" y="1556" type="line"/>
      <point x="66" y="0" type="line"/>
      <point x="119" y="0" type="line"/>
      <point x="338" y="1030" type="line"/>
      <point x="913" y="1030" type="line"/>
      <point x="317" y="434" type="line"/>
      <point x="309" y="387" type="line"/>
      <point x="387" y="387" type="line" smooth="yes"/>
      <point x="582" y="387"/>
      <point x="752" y="303"/>
      <point x="752" y="45" type="curve" smooth="yes"/>
      <point x="752" y="-160"/>
      <point x="645" y="-440"/>
      <point x="303" y="-440" type="curve" smooth="yes"/>
      <point x="164" y="-440"/>
      <point x="53" y="-395"/>
      <point x="2" y="-362" type="curve"/>
      <point x="2" y="-424" type="line"/>
      <point x="53" y="-453"/>
      <point x="154" y="-492"/>
    </contour>
  </outline>
</glyph>
<glyph name="uni0274" format="2">
  <advance width="1094"/>
  <unicode hex="0274"/>
  <anchor x="432" y="0" name="bottom"/>
  <anchor x="662" y="1081" name="top"/>
  <anchor x="1124" y="1081" name="topright"/>
  <outline>
    <contour>
      <point x="55" y="0" type="line"/>
      <point x="109" y="0" type="line"/>
      <point x="244" y="637" type="line" smooth="yes"/>
      <point x="270" y="764"/>
      <point x="295" y="893"/>
      <point x="309" y="973" type="curve"/>
      <point x="743" y="0" type="line"/>
      <point x="782" y="0" type="line"/>
      <point x="1010" y="1081" type="line"/>
      <point x="956" y="1081" type="line"/>
      <point x="819" y="436" type="line" smooth="yes"/>
      <point x="793" y="311"/>
      <point x="766" y="170"/>
      <point x="754" y="106" type="curve"/>
      <point x="319" y="1081" type="line"/>
      <point x="283" y="1081" type="line"/>
    </contour>
  </outline>
</glyph>
<glyph name="uni027E" format="2">
  <advance width="582"/>
  <unicode hex="027E"/>
  <anchor x="176" y="0" name="bottom"/>
  <anchor x="406" y="1081" name="top"/>
  <outline>
    <contour>
      <point x="88" y="0" type="line"/>
      <point x="141" y="0" type="line"/>
      <point x="307" y="788" type="line" smooth="yes"/>
      <point x="348" y="987"/>
      <point x="422" y="1051"/>
      <point x="557" y="1051" type="curve" smooth="yes"/>
      <point x="596" y="1051"/>
      <point x="637" y="1042"/>
      <point x="666" y="1030" type="curve"/>
      <point x="678" y="1081" type="line"/>
      <point x="649" y="1094"/>
      <point x="608" y="1102"/>
      <point x="561" y="1102" type="curve" smooth="yes"/>
      <point x="387" y="1102"/>
      <point x="295" y="999"/>
      <point x="252" y="788" type="curve" smooth="yes"/>
    </contour>
  </outline>
</glyph>
<glyph name="uni0280" format="2">
  <advance width="844"/>
  <unicode hex="0280"/>
  <anchor x="307" y="0" name="bottom"/>
  <anchor x="537" y="1081" name="top"/>
  <outline>
    <contour>
      <point x="59" y="0" type="line"/>
      <point x="113" y="0" type="line"/>
      <point x="221" y="524" type="line"/>
      <point x="477" y="524" type="line"/>
      <point x="647" y="0" type="line"/>
      <point x="702" y="0" type="line"/>
      <point x="528" y="532" type="line"/>
      <point x="713" y="551"/>
      <point x="811" y="668"/>
      <point x="811" y="842" type="curve" smooth="yes"/>
      <point x="811" y="991"/>
      <point x="731" y="1081"/>
      <point x="506" y="1081" type="curve" smooth="yes"/>
      <point x="287" y="1081" type="line"/>
    </contour>
    <contour>
      <point x="231" y="575" type="line"/>
      <point x="328" y="1030" type="line"/>
      <point x="500" y="1030" type="line" smooth="yes"/>
      <point x="694" y="1030"/>
      <point x="756" y="958"/>
      <point x="756" y="840" type="curve" smooth="yes"/>
      <point x="756" y="690"/>
      <point x="678" y="575"/>
      <point x="461" y="575" type="curve" smooth="yes"/>
    </contour>
  </outline>
</glyph>
<glyph name="uni0282" format="2">
  <advance width="797"/>
  <unicode hex="0282"/>
  <anchor x="180" y="-492" name="bottom"/>
  <anchor x="514" y="1081" name="top"/>
  <outline>
    <contour>
      <point x="37" y="-492" type="curve" smooth="yes"/>
      <point x="78" y="-492"/>
      <point x="106" y="-481"/>
      <point x="127" y="-471" type="curve"/>
      <point x="127" y="-420" type="line"/>
      <point x="106" y="-430"/>
      <point x="76" y="-440"/>
      <point x="37" y="-440" type="curve" smooth="yes"/>
      <point x="-2" y="-440"/>
      <point x="-20" y="-414"/>
      <point x="-20" y="-383" type="curve" smooth="yes"/>
      <point x="-20" y="-358"/>
      <point x="-14" y="-330"/>
      <point x="-8" y="-301" type="curve" smooth="yes"/>
      <point x="63" y="37" type="line"/>
      <point x="127" y="8"/>
      <point x="219" y="-20"/>
      <point x="336" y="-20" type="curve" smooth="yes"/>
      <point x="596" y="-20"/>
      <point x="707" y="115"/>
      <point x="707" y="281" type="curve" smooth="yes"/>
      <point x="707" y="451"/>
      <point x="575" y="514"/>
      <point x="446" y="584" type="curve" smooth="yes"/>
      <point x="328" y="647"/>
      <point x="219" y="698"/>
      <point x="219" y="821" type="curve" smooth="yes"/>
      <point x="219" y="983"/>
      <point x="348" y="1051"/>
      <point x="518" y="1051" type="curve" smooth="yes"/>
      <point x="625" y="1051"/>
      <point x="729" y="1024"/>
      <point x="799" y="989" type="curve"/>
      <point x="817" y="1040" type="line"/>
      <point x="745" y="1073"/>
      <point x="647" y="1102"/>
      <point x="520" y="1102" type="curve" smooth="yes"/>
      <point x="326" y="1102"/>
      <point x="164" y="1016"/>
      <point x="164" y="817" type="curve" smooth="yes"/>
      <point x="164" y="666"/>
      <point x="283" y="608"/>
      <point x="418" y="535" type="curve" smooth="yes"/>
      <point x="535" y="471"/>
      <point x="651" y="418"/>
      <point x="651" y="279" type="curve" smooth="yes"/>
      <point x="651" y="135"/>
      <point x="561" y="31"/>
      <point x="338" y="31" type="curve" smooth="yes"/>
      <point x="217" y="31"/>
      <point x="109" y="70"/>
      <point x="27" y="117" type="curve"/>
      <point x="-59" y="-295" type="line" smooth="yes"/>
      <point x="-66" y="-324"/>
      <point x="-74" y="-367"/>
      <point x="-74" y="-385" type="curve" smooth="yes"/>
      <point x="-74" y="-449"/>
      <point x="-37" y="-492"/>
    </contour>
  </outline>
</glyph>
<glyph name="uni0284" format="2">
  <advance width="487"/>
  <unicode hex="0284"/>
  <anchor x="25" y="-492" name="bottom"/>
  <anchor x="461" y="1567" name="top"/>
  <outline>
    <contour>
      <point x="-164" y="-492" type="curve" smooth="yes"/>
      <point x="-37" y="-492"/>
      <point x="49" y="-430"/>
      <point x="88" y="-246" type="curve" smooth="yes"/>
      <point x="266" y="590" type="line"/>
      <point x="428" y="590" type="line"/>
      <point x="440" y="641" type="line"/>
      <point x="276" y="641" type="line"/>
      <point x="414" y="1288" type="line" smooth="yes"/>
      <point x="446" y="1442"/>
      <point x="522" y="1516"/>
      <point x="647" y="1516" type="curve" smooth="yes"/>
      <point x="702" y="1516"/>
      <point x="745" y="1507"/>
      <point x="791" y="1489" type="curve"/>
      <point x="791" y="1544" type="line"/>
      <point x="758" y="1556"/>
      <point x="715" y="1567"/>
      <point x="649" y="1567" type="curve" smooth="yes"/>
      <point x="489" y="1567"/>
      <point x="397" y="1460"/>
      <point x="362" y="1296" type="curve" smooth="yes"/>
      <point x="223" y="641" type="line"/>
      <point x="63" y="641" type="line"/>
      <point x="51" y="590" type="line"/>
      <point x="213" y="590" type="line"/>
      <point x="37" y="-238" type="line" smooth="yes"/>
      <point x="4" y="-389"/>
      <point x="-55" y="-440"/>
      <point x="-164" y="-440" type="curve" smooth="yes"/>
      <point x="-207" y="-440"/>
      <point x="-252" y="-430"/>
      <point x="-289" y="-414" type="curve"/>
      <point x="-289" y="-471" type="line"/>
      <point x="-262" y="-481"/>
      <point x="-219" y="-492"/>
    </contour>
  </outline>
</glyph>
<glyph name="uni028A" format="2">
  <advance width="1137"/>
  <unicode hex="028A"/>
  <anchor x="455" y="0" name="bottom"/>
  <anchor x="684" y="1081" name="top"/>
  <outline>
    <contour>
      <point x="477" y="-20" type="curve" smooth="yes"/>
      <point x="852" y="-20"/>
      <point x="1042" y="295"/>
      <point x="1042" y="612" type="curve" smooth="yes"/>
      <point x="1042" y="819"/>
      <point x="963" y="954"/>
      <point x="854" y="1032" type="curve"/>
      <point x="1171" y="1032" type="line"/>
      <point x="1182" y="1081" type="line"/>
      <point x="799" y="1081" type="line"/>
      <point x="788" y="1030" type="line"/>
      <point x="903" y="946"/>
      <point x="987" y="821"/>
      <point x="987" y="606" type="curve" smooth="yes"/>
      <point x="987" y="315"/>
      <point x="811" y="31"/>
      <point x="479" y="31" type="curve" smooth="yes"/>
      <point x="262" y="31"/>
      <point x="143" y="162"/>
      <point x="143" y="379" type="curve" smooth="yes"/>
      <point x="143" y="705"/>
      <point x="315" y="909"/>
      <point x="575" y="1030" type="curve"/>
      <point x="586" y="1081" type="line"/>
      <point x="195" y="1081" type="line"/>
      <point x="186" y="1032" type="line"/>
      <point x="487" y="1032" type="line"/>
      <point x="233" y="907"/>
      <point x="88" y="682"/>
      <point x="88" y="379" type="curve" smooth="yes"/>
      <point x="88" y="129"/>
      <point x="229" y="-20"/>
    </contour>
  </outline>
</glyph>
<glyph name="cstretched" format="2">
  <advance width="848"/>
  <unicode hex="0297"/>
  <anchor x="205" y="-489" name="bottom"/>
  <anchor x="539" y="1081" name="top"/>
  <outline>
    <contour>
      <point x="410" y="-489" type="curve" smooth="yes"/>
      <point x="526" y="-489"/>
      <point x="594" y="-463"/>
      <point x="649" y="-436" type="curve"/>
      <point x="649" y="-381" type="line"/>
      <point x="586" y="-414"/>
      <point x="524" y="-438"/>
      <point x="414" y="-438" type="curve" smooth="yes"/>
      <point x="242" y="-438"/>
      <point x="117" y="-330"/>
      <point x="117" y="29" type="curve" smooth="yes"/>
      <point x="117" y="526"/>
      <point x="301" y="1055"/>
      <point x="700" y="1055" type="curve" smooth="yes"/>
      <point x="784" y="1055"/>
      <point x="848" y="1036"/>
      <point x="907" y="993" type="curve"/>
      <point x="934" y="1042" type="line"/>
      <point x="879" y="1081"/>
      <point x="807" y="1106"/>
      <point x="702" y="1106" type="curve" smooth="yes"/>
      <point x="256" y="1106"/>
      <point x="61" y="547"/>
      <point x="61" y="29" type="curve" smooth="yes"/>
      <point x="61" y="-362"/>
      <point x="205" y="-489"/>
    </contour>
  </outline>
</glyph>
<glyph name="eopenclosed" format="2">
  <advance width="1030"/>
  <unicode hex="029A"/>
  <anchor x="401" y="0" name="bottom"/>
  <anchor x="631" y="1081" name="top"/>
  <outline>
    <contour>
      <point x="393" y="-20" type="curve" smooth="yes"/>
      <point x="817" y="-20"/>
      <point x="930" y="373"/>
      <point x="930" y="678" type="curve" smooth="yes"/>
      <point x="930" y="969"/>
      <point x="786" y="1100"/>
      <point x="571" y="1100" type="curve" smooth="yes"/>
      <point x="326" y="1100"/>
      <point x="223" y="950"/>
      <point x="223" y="795" type="curve" smooth="yes"/>
      <point x="223" y="664"/>
      <point x="299" y="608"/>
      <point x="379" y="586" type="curve"/>
      <point x="379" y="582" type="line"/>
      <point x="236" y="553"/>
      <point x="94" y="463"/>
      <point x="94" y="258" type="curve" smooth="yes"/>
      <point x="94" y="90"/>
      <point x="203" y="-20"/>
    </contour>
    <contour>
      <point x="395" y="31" type="curve" smooth="yes"/>
      <point x="238" y="31"/>
      <point x="150" y="115"/>
      <point x="150" y="262" type="curve" smooth="yes"/>
      <point x="150" y="496"/>
      <point x="346" y="553"/>
      <point x="557" y="553" type="curve" smooth="yes"/>
      <point x="612" y="553" type="line"/>
      <point x="623" y="604" type="line"/>
      <point x="555" y="604" type="line" smooth="yes"/>
      <point x="387" y="604"/>
      <point x="279" y="651"/>
      <point x="279" y="799" type="curve" smooth="yes"/>
      <point x="279" y="932"/>
      <point x="369" y="1049"/>
      <point x="567" y="1049" type="curve" smooth="yes"/>
      <point x="748" y="1049"/>
      <point x="874" y="938"/>
      <point x="874" y="678" type="curve" smooth="yes"/>
      <point x="874" y="391"/>
      <point x="778" y="31"/>
    </contour>
  </outline>
</glyph>
<glyph name="uni029B" format="2">
  <advance width="1059"/>
  <unicode hex="029B"/>
  <anchor x="416" y="0" name="bottom"/>
  <anchor x="750" y="1577" name="top"/>
  <outline>
    <contour>
      <point x="532" y="-23" type="curve" smooth="yes"/>
      <point x="645" y="-23"/>
      <point x="735" y="0"/>
      <point x="811" y="23" type="curve"/>
      <point x="930" y="522" type="line"/>
      <point x="618" y="522" type="line"/>
      <point x="608" y="471" type="line"/>
      <point x="860" y="471" type="line"/>
      <point x="766" y="68" type="line"/>
      <point x="733" y="55"/>
      <point x="633" y="29"/>
      <point x="541" y="29" type="curve" smooth="yes"/>
      <point x="289" y="29"/>
      <point x="158" y="176"/>
      <point x="158" y="408" type="curve" smooth="yes"/>
      <point x="158" y="717"/>
      <point x="330" y="1051"/>
      <point x="715" y="1051" type="curve" smooth="yes"/>
      <point x="825" y="1051"/>
      <point x="915" y="1026"/>
      <point x="977" y="1001" type="curve"/>
      <point x="995" y="1053" type="line"/>
      <point x="1063" y="1362" type="line" smooth="yes"/>
      <point x="1085" y="1464"/>
      <point x="1135" y="1526"/>
      <point x="1212" y="1526" type="curve" smooth="yes"/>
      <point x="1257" y="1526"/>
      <point x="1296" y="1513"/>
      <point x="1317" y="1501" type="curve"/>
      <point x="1317" y="1556" type="line"/>
      <point x="1294" y="1569"/>
      <point x="1262" y="1577"/>
      <point x="1217" y="1577" type="curve" smooth="yes"/>
      <point x="1100" y="1577"/>
      <point x="1038" y="1501"/>
      <point x="1004" y="1339" type="curve" smooth="yes"/>
      <point x="946" y="1069" type="line"/>
      <point x="897" y="1083"/>
      <point x="829" y="1102"/>
      <point x="719" y="1102" type="curve" smooth="yes"/>
      <point x="295" y="1102"/>
      <point x="102" y="739"/>
      <point x="102" y="401" type="curve" smooth="yes"/>
      <point x="102" y="160"/>
      <point x="246" y="-23"/>
    </contour>
  </outline>
</glyph>
<glyph name="dzligcurl" format="2">
  <advance width="1772"/>
  <unicode hex="02A5"/>
  <anchor x="772" y="0" name="bottom"/>
  <anchor x="1102" y="1556" name="top"/>
  <outline>
    <contour>
      <point x="1102" y="-160" type="line"/>
      <point x="1128" y="-98"/>
      <point x="1153" y="-49"/>
      <point x="1178" y="0" type="curve"/>
      <point x="1389" y="0" type="line" smooth="yes"/>
      <point x="1593" y="0"/>
      <point x="1692" y="86"/>
      <point x="1692" y="219" type="curve" smooth="yes"/>
      <point x="1692" y="315"/>
      <point x="1630" y="375"/>
      <point x="1524" y="375" type="curve" smooth="yes"/>
      <point x="1384" y="375"/>
      <point x="1266" y="272"/>
      <point x="1145" y="51" type="curve"/>
      <point x="936" y="51" type="line"/>
      <point x="1765" y="1051" type="line"/>
      <point x="1772" y="1081" type="line"/>
      <point x="1087" y="1081" type="line"/>
      <point x="1188" y="1556" type="line"/>
      <point x="1135" y="1556" type="line"/>
      <point x="1040" y="1112" type="line" smooth="yes"/>
      <point x="1022" y="1026"/>
      <point x="1001" y="926"/>
      <point x="987" y="834" type="curve"/>
      <point x="983" y="834" type="line"/>
      <point x="965" y="958"/>
      <point x="870" y="1102"/>
      <point x="664" y="1102" type="curve" smooth="yes"/>
      <point x="285" y="1102"/>
      <point x="104" y="696"/>
      <point x="104" y="365" type="curve" smooth="yes"/>
      <point x="104" y="133"/>
      <point x="201" y="-20"/>
      <point x="412" y="-20" type="curve" smooth="yes"/>
      <point x="621" y="-20"/>
      <point x="780" y="147"/>
      <point x="866" y="289" type="curve"/>
      <point x="870" y="289" type="line"/>
      <point x="813" y="0" type="line"/>
      <point x="1118" y="0" type="line"/>
      <point x="1096" y="-43"/>
      <point x="1073" y="-92"/>
      <point x="1051" y="-143" type="curve"/>
    </contour>
    <contour>
      <point x="416" y="31" type="curve" smooth="yes"/>
      <point x="244" y="31"/>
      <point x="160" y="154"/>
      <point x="160" y="365" type="curve" smooth="yes"/>
      <point x="160" y="686"/>
      <point x="326" y="1051"/>
      <point x="662" y="1051" type="curve" smooth="yes"/>
      <point x="829" y="1051"/>
      <point x="948" y="946"/>
      <point x="948" y="733" type="curve" smooth="yes"/>
      <point x="948" y="354"/>
      <point x="676" y="31"/>
    </contour>
    <contour>
      <point x="1204" y="51" type="line"/>
      <point x="1288" y="197"/>
      <point x="1384" y="324"/>
      <point x="1520" y="324" type="curve" smooth="yes"/>
      <point x="1597" y="324"/>
      <point x="1636" y="287"/>
      <point x="1636" y="215" type="curve" smooth="yes"/>
      <point x="1636" y="121"/>
      <point x="1569" y="51"/>
      <point x="1384" y="51" type="curve" smooth="yes"/>
    </contour>
    <contour>
      <point x="868" y="49" type="line"/>
      <point x="1077" y="1030" type="line"/>
      <point x="1679" y="1030" type="line"/>
    </contour>
  </outline>
</glyph>
<glyph name="uni02A7" format="2">
  <advance width="852"/>
  <unicode hex="02A7"/>
  <anchor x="207" y="-492" name="bottom"/>
  <anchor x="643" y="1567" name="top"/>
  <outline>
    <contour>
      <point x="184" y="-492" type="curve" smooth="yes"/>
      <point x="311" y="-492"/>
      <point x="397" y="-430"/>
      <point x="436" y="-246" type="curve" smooth="yes"/>
      <point x="762" y="1288" type="line" smooth="yes"/>
      <point x="795" y="1442"/>
      <point x="870" y="1516"/>
      <point x="995" y="1516" type="curve" smooth="yes"/>
      <point x="1051" y="1516"/>
      <point x="1094" y="1507"/>
      <point x="1139" y="1489" type="curve"/>
      <point x="1139" y="1544" type="line"/>
      <point x="1106" y="1556"/>
      <point x="1063" y="1567"/>
      <point x="997" y="1567" type="curve" smooth="yes"/>
      <point x="838" y="1567"/>
      <point x="745" y="1460"/>
      <point x="711" y="1296" type="curve" smooth="yes"/>
      <point x="666" y="1081" type="line"/>
      <point x="342" y="1081" type="line"/>
      <point x="399" y="1350" type="line"/>
      <point x="356" y="1350" type="line"/>
      <point x="287" y="1081" type="line"/>
      <point x="129" y="1075" type="line"/>
      <point x="119" y="1030" type="line"/>
      <point x="276" y="1030" type="line"/>
      <point x="119" y="287" type="line" smooth="yes"/>
      <point x="109" y="244"/>
      <point x="104" y="203"/>
      <point x="104" y="168" type="curve" smooth="yes"/>
      <point x="104" y="49"/>
      <point x="164" y="-20"/>
      <point x="299" y="-20" type="curve" smooth="yes"/>
      <point x="356" y="-20"/>
      <point x="397" y="-12"/>
      <point x="434" y="-2" type="curve"/>
      <point x="385" y="-238" type="line" smooth="yes"/>
      <point x="352" y="-389"/>
      <point x="293" y="-440"/>
      <point x="184" y="-440" type="curve" smooth="yes"/>
      <point x="141" y="-440"/>
      <point x="96" y="-430"/>
      <point x="59" y="-414" type="curve"/>
      <point x="59" y="-471" type="line"/>
      <point x="86" y="-481"/>
      <point x="129" y="-492"/>
    </contour>
    <contour>
      <point x="301" y="31" type="curve" smooth="yes"/>
      <point x="201" y="31"/>
      <point x="160" y="82"/>
      <point x="160" y="172" type="curve" smooth="yes"/>
      <point x="160" y="207"/>
      <point x="164" y="248"/>
      <point x="174" y="293" type="curve" smooth="yes"/>
      <point x="330" y="1030" type="line"/>
      <point x="653" y="1030" type="line"/>
      <point x="446" y="53" type="line"/>
      <point x="408" y="39"/>
      <point x="360" y="31"/>
    </contour>
  </outline>
</glyph>
<glyph name="uni02AA" format="2">
  <advance width="1176"/>
  <unicode hex="02AA"/>
  <anchor x="473" y="0" name="bottom"/>
  <anchor x="803" y="1556" name="top"/>
  <outline>
    <contour>
      <point x="645" y="-20" type="curve" smooth="yes"/>
      <point x="905" y="-20"/>
      <point x="1016" y="115"/>
      <point x="1016" y="281" type="curve" smooth="yes"/>
      <point x="1016" y="451"/>
      <point x="885" y="514"/>
      <point x="756" y="584" type="curve" smooth="yes"/>
      <point x="637" y="647"/>
      <point x="528" y="698"/>
      <point x="528" y="821" type="curve" smooth="yes"/>
      <point x="528" y="983"/>
      <point x="657" y="1051"/>
      <point x="827" y="1051" type="curve" smooth="yes"/>
      <point x="934" y="1051"/>
      <point x="1038" y="1024"/>
      <point x="1108" y="989" type="curve"/>
      <point x="1126" y="1040" type="line"/>
      <point x="1055" y="1073"/>
      <point x="956" y="1102"/>
      <point x="829" y="1102" type="curve" smooth="yes"/>
      <point x="635" y="1102"/>
      <point x="473" y="1016"/>
      <point x="473" y="817" type="curve" smooth="yes"/>
      <point x="473" y="666"/>
      <point x="592" y="608"/>
      <point x="727" y="535" type="curve" smooth="yes"/>
      <point x="844" y="471"/>
      <point x="961" y="418"/>
      <point x="961" y="279" type="curve" smooth="yes"/>
      <point x="961" y="135"/>
      <point x="870" y="31"/>
      <point x="647" y="31" type="curve" smooth="yes"/>
      <point x="481" y="31"/>
      <point x="319" y="74"/>
      <point x="160" y="188" type="curve"/>
      <point x="449" y="1556" type="line"/>
      <point x="395" y="1556" type="line"/>
      <point x="66" y="0" type="line"/>
      <point x="119" y="0" type="line"/>
      <point x="147" y="135" type="line"/>
      <point x="293" y="31"/>
      <point x="455" y="-20"/>
    </contour>
  </outline>
</glyph>
<glyph name="uni02AD" format="2">
  <advance width="1184"/>
  <unicode hex="02AD"/>
  <anchor x="477" y="0" name="bottom"/>
  <anchor x="788" y="1462" name="top"/>
  <outline>
    <contour>
      <point x="248" y="985" type="line"/>
      <point x="301" y="985" type="line"/>
      <point x="393" y="1411" type="line"/>
      <point x="1147" y="1411" type="line"/>
      <point x="1055" y="985" type="line"/>
      <point x="1108" y="985" type="line"/>
      <point x="1210" y="1462" type="line"/>
      <point x="350" y="1462" type="line"/>
    </contour>
    <contour>
      <point x="39" y="0" type="line"/>
      <point x="92" y="0" type="line"/>
      <point x="182" y="426" type="line"/>
      <point x="936" y="426" type="line"/>
      <point x="846" y="0" type="line"/>
      <point x="899" y="0" type="line"/>
      <point x="1001" y="477" type="line"/>
      <point x="141" y="477" type="line"/>
    </contour>
  </outline>
</glyph>
<glyph name="uni02BE" format="2">
  <advance width="336"/>
  <unicode hex="02BE"/>
  <outline>
    <contour>
      <point x="203" y="1171" type="line"/>
      <point x="348" y="1171"/>
      <point x="455" y="1274"/>
      <point x="455" y="1425" type="curve" smooth="yes"/>
      <point x="455" y="1552"/>
      <point x="385" y="1608"/>
      <point x="289" y="1608" type="curve"/>
      <point x="279" y="1563" type="line"/>
      <point x="365" y="1563"/>
      <point x="408" y="1520"/>
      <point x="408" y="1427" type="curve" smooth="yes"/>
      <point x="408" y="1286"/>
      <point x="319" y="1219"/>
      <point x="211" y="1219" type="curve"/>
    </contour>
  </outline>
</glyph>
<glyph name="uni02BF" format="2">
  <advance width="334"/>
  <unicode hex="02BF"/>
  <outline>
    <contour>
      <point x="408" y="1178" type="curve"/>
      <point x="418" y="1223" type="line"/>
      <point x="340" y="1229"/>
      <point x="287" y="1284"/>
      <point x="287" y="1360" type="curve" smooth="yes"/>
      <point x="287" y="1493"/>
      <point x="373" y="1567"/>
      <point x="485" y="1567" type="curve"/>
      <point x="494" y="1614" type="line"/>
      <point x="348" y="1614"/>
      <point x="242" y="1513"/>
      <point x="242" y="1360" type="curve" smooth="yes"/>
      <point x="242" y="1233"/>
      <point x="332" y="1178"/>
    </contour>
  </outline>
</glyph>
<glyph name="uni02C0" format="2">
  <advance width="522"/>
  <unicode hex="02C0"/>
  <outline>
    <contour>
      <point x="289" y="946" type="line"/>
      <point x="342" y="946" type="line"/>
      <point x="371" y="1083" type="line"/>
      <point x="547" y="1100"/>
      <point x="670" y="1198"/>
      <point x="668" y="1362" type="curve" smooth="yes"/>
      <point x="666" y="1489"/>
      <point x="571" y="1569"/>
      <point x="442" y="1569" type="curve" smooth="yes"/>
      <point x="336" y="1569"/>
      <point x="260" y="1534"/>
      <point x="201" y="1491" type="curve"/>
      <point x="225" y="1446" type="line"/>
      <point x="279" y="1487"/>
      <point x="348" y="1518"/>
      <point x="434" y="1518" type="curve" smooth="yes"/>
      <point x="547" y="1518"/>
      <point x="610" y="1456"/>
      <point x="612" y="1356" type="curve" smooth="yes"/>
      <point x="614" y="1206"/>
      <point x="494" y="1133"/>
      <point x="326" y="1126" type="curve"/>
    </contour>
  </outline>
</glyph>
<glyph name="uni02C4" format="2">
  <advance width="584"/>
  <unicode hex="02C4"/>
  <outline>
    <contour>
      <point x="217" y="1124" type="line"/>
      <point x="268" y="1124" type="line"/>
      <point x="459" y="1511" type="line"/>
      <point x="649" y="1124" type="line"/>
      <point x="705" y="1124" type="line"/>
      <point x="467" y="1593" type="line"/>
      <point x="449" y="1593" type="line"/>
    </contour>
  </outline>
</glyph>
<glyph name="circumflex" format="2">
  <advance width="655"/>
  <unicode hex="02C6"/>
  <outline>
    <contour>
      <point x="231" y="1241" type="line"/>
      <point x="279" y="1241" type="line"/>
      <point x="365" y="1317"/>
      <point x="463" y="1419"/>
      <point x="535" y="1497" type="curve"/>
      <point x="571" y="1419"/>
      <point x="627" y="1317"/>
      <point x="684" y="1241" type="curve"/>
      <point x="721" y="1241" type="line"/>
      <point x="725" y="1253" type="line"/>
      <point x="668" y="1337"/>
      <point x="596" y="1479"/>
      <point x="567" y="1563" type="curve"/>
      <point x="522" y="1563" type="line"/>
      <point x="457" y="1477"/>
      <point x="322" y="1337"/>
      <point x="233" y="1253" type="curve"/>
    </contour>
  </outline>
</glyph>
<glyph name="uni02CC" format="2">
  <advance width="213"/>
  <unicode hex="02CC"/>
  <outline>
    <contour>
      <point x="-123" y="-424" type="line"/>
      <point x="-74" y="-424" type="line"/>
      <point x="41" y="117" type="line"/>
      <point x="-8" y="117" type="line"/>
    </contour>
  </outline>
</glyph>
<glyph name="breve" format="2">
  <advance width="643"/>
  <unicode hex="02D8"/>
  <outline>
    <contour>
      <point x="485" y="1241" type="curve" smooth="yes"/>
      <point x="629" y="1241"/>
      <point x="717" y="1321"/>
      <point x="760" y="1470" type="curve"/>
      <point x="707" y="1470" type="line"/>
      <point x="672" y="1362"/>
      <point x="608" y="1292"/>
      <point x="485" y="1292" type="curve" smooth="yes"/>
      <point x="352" y="1292"/>
      <point x="319" y="1384"/>
      <point x="334" y="1470" type="curve"/>
      <point x="281" y="1470" type="line"/>
      <point x="279" y="1462"/>
      <point x="276" y="1446"/>
      <point x="276" y="1430" type="curve" smooth="yes"/>
      <point x="276" y="1309"/>
      <point x="360" y="1241"/>
    </contour>
  </outline>
</glyph>
<glyph name="dotaccent" format="2">
  <advance width="268"/>
  <unicode hex="02D9"/>
  <outline>
    <contour>
      <point x="313" y="1350" type="curve" smooth="yes"/>
      <point x="352" y="1350"/>
      <point x="373" y="1395"/>
      <point x="373" y="1432" type="curve" smooth="yes"/>
      <point x="373" y="1454"/>
      <point x="360" y="1477"/>
      <point x="328" y="1477" type="curve" smooth="yes"/>
      <point x="287" y="1477"/>
      <point x="266" y="1432"/>
      <point x="266" y="1395" type="curve" smooth="yes"/>
      <point x="266" y="1366"/>
      <point x="285" y="1350"/>
    </contour>
  </outline>
</glyph>
<glyph name="ogonek" format="2">
  <advance width="436"/>
  <unicode hex="02DB"/>
  <outline>
    <contour>
      <point x="49" y="-444" type="curve" smooth="yes"/>
      <point x="90" y="-444"/>
      <point x="123" y="-436"/>
      <point x="147" y="-428" type="curve"/>
      <point x="147" y="-379" type="line"/>
      <point x="123" y="-387"/>
      <point x="92" y="-393"/>
      <point x="55" y="-393" type="curve" smooth="yes"/>
      <point x="-6" y="-393"/>
      <point x="-39" y="-360"/>
      <point x="-39" y="-301" type="curve" smooth="yes"/>
      <point x="-39" y="-168"/>
      <point x="104" y="-68"/>
      <point x="201" y="0" type="curve"/>
      <point x="170" y="23" type="line"/>
      <point x="47" y="-57"/>
      <point x="-92" y="-160"/>
      <point x="-92" y="-305" type="curve" smooth="yes"/>
      <point x="-92" y="-393"/>
      <point x="-33" y="-444"/>
    </contour>
  </outline>
</glyph>
<glyph name="tilde" format="2">
  <advance width="807"/>
  <unicode hex="02DC"/>
  <outline>
    <contour>
      <point x="236" y="1266" type="curve"/>
      <point x="289" y="1266" type="line"/>
      <point x="326" y="1389"/>
      <point x="377" y="1415"/>
      <point x="432" y="1415" type="curve" smooth="yes"/>
      <point x="535" y="1415"/>
      <point x="596" y="1264"/>
      <point x="715" y="1264" type="curve" smooth="yes"/>
      <point x="827" y="1264"/>
      <point x="885" y="1337"/>
      <point x="922" y="1466" type="curve"/>
      <point x="866" y="1466" type="line"/>
      <point x="827" y="1341"/>
      <point x="776" y="1315"/>
      <point x="717" y="1315" type="curve" smooth="yes"/>
      <point x="627" y="1315"/>
      <point x="565" y="1466"/>
      <point x="434" y="1466" type="curve" smooth="yes"/>
      <point x="328" y="1466"/>
      <point x="270" y="1399"/>
    </contour>
  </outline>
</glyph>
<glyph name="rhotichookmod" format="2">
  <advance width="342"/>
  <unicode hex="02DE"/>
  <outline>
    <contour>
      <point x="166" y="416" type="curve" smooth="yes"/>
      <point x="209" y="416"/>
      <point x="260" y="428"/>
      <point x="309" y="451" type="curve"/>
      <point x="309" y="504" type="line"/>
      <point x="256" y="479"/>
      <point x="207" y="467"/>
      <point x="164" y="467" type="curve" smooth="yes"/>
      <point x="94" y="467"/>
      <point x="76" y="528"/>
      <point x="76" y="676" type="curve" smooth="yes"/>
      <point x="76" y="766" type="line"/>
      <point x="-176" y="698" type="line"/>
      <point x="-176" y="645" type="line"/>
      <point x="23" y="702" type="line"/>
      <point x="23" y="518"/>
      <point x="45" y="416"/>
    </contour>
  </outline>
</glyph>
<glyph name="uni02DF" format="2">
  <advance width="455"/>
  <unicode hex="02DF"/>
  <outline>
    <contour>
      <point x="274" y="1212" type="line"/>
      <point x="403" y="1333" type="line"/>
      <point x="485" y="1217" type="line"/>
      <point x="520" y="1243" type="line"/>
      <point x="438" y="1364" type="line"/>
      <point x="575" y="1493" type="line"/>
      <point x="543" y="1522" type="line"/>
      <point x="412" y="1399" type="line"/>
      <point x="324" y="1522" type="line"/>
      <point x="285" y="1495" type="line"/>
      <point x="377" y="1368" type="line"/>
      <point x="244" y="1243" type="line"/>
    </contour>
  </outline>
</glyph>
<glyph name="uni02EB" format="2">
  <advance width="856"/>
  <unicode hex="02EB"/>
  <outline>
    <contour>
      <point x="160" y="340" type="line"/>
      <point x="295" y="340" type="line"/>
      <point x="295" y="643" type="line"/>
      <point x="696" y="643" type="line"/>
      <point x="696" y="778" type="line"/>
      <point x="295" y="778" type="line"/>
      <point x="295" y="1081" type="line"/>
      <point x="160" y="1081" type="line"/>
    </contour>
  </outline>
</glyph>
<glyph name="uni02F3" format="2">
  <advance width="682"/>
  <unicode hex="02F3"/>
  <outline>
    <contour>
      <point x="158" y="-504" type="curve" smooth="yes"/>
      <point x="262" y="-504"/>
      <point x="346" y="-428"/>
      <point x="346" y="-315" type="curve" smooth="yes"/>
      <point x="346" y="-211"/>
      <point x="262" y="-127"/>
      <point x="158" y="-127" type="curve" smooth="yes"/>
      <point x="53" y="-127"/>
      <point x="-33" y="-207"/>
      <point x="-33" y="-315" type="curve" smooth="yes"/>
      <point x="-33" y="-428"/>
      <point x="55" y="-504"/>
    </contour>
    <contour>
      <point x="158" y="-457" type="curve" smooth="yes"/>
      <point x="76" y="-457"/>
      <point x="14" y="-393"/>
      <point x="14" y="-315" type="curve" smooth="yes"/>
      <point x="14" y="-238"/>
      <point x="76" y="-174"/>
      <point x="158" y="-174" type="curve" smooth="yes"/>
      <point x="233" y="-174"/>
      <point x="299" y="-238"/>
      <point x="299" y="-315" type="curve" smooth="yes"/>
      <point x="299" y="-393"/>
      <point x="240" y="-457"/>
    </contour>
  </outline>
</glyph>
<glyph name="uni02FC" format="2">
  <advance width="608"/>
  <unicode hex="02FC"/>
  <outline>
    <contour>
      <point x="-10" y="0" type="line"/>
      <point x="412" y="0" type="line"/>
      <point x="412" y="463" type="line"/>
      <point x="303" y="463" type="line"/>
      <point x="303" y="109" type="line"/>
      <point x="-10" y="109" type="line"/>
    </contour>
  </outline>
</glyph>
<glyph name="lefttackbelowcomb" format="2">
  <unicode hex="0318"/>
  <anchor x="-98" y="0" name="_bottom"/>
  <anchor x="-184" y="-399" name="bottom"/>
  <outline>
    <contour>
      <point x="-133" y="-399" type="line"/>
      <point x="-80" y="-399" type="line"/>
      <point x="-14" y="-90" type="line"/>
      <point x="-68" y="-90" type="line"/>
      <point x="-94" y="-211" type="line"/>
      <point x="-276" y="-211" type="line"/>
      <point x="-287" y="-262" type="line"/>
      <point x="-104" y="-262" type="line"/>
    </contour>
  </outline>
</glyph>
<glyph name="downtackbelowcomb" format="2">
  <unicode hex="031E"/>
  <anchor x="-115" y="0" name="_bottom"/>
  <anchor x="-199" y="-395" name="bottom"/>
  <outline>
    <contour>
      <point x="-233" y="-395" type="line"/>
      <point x="-174" y="-395" type="line"/>
      <point x="-127" y="-168" type="line"/>
      <point x="-20" y="-168" type="line"/>
      <point x="-6" y="-98" type="line"/>
      <point x="-281" y="-98" type="line"/>
      <point x="-295" y="-168" type="line"/>
      <point x="-188" y="-168" type="line"/>
    </contour>
  </outline>
</glyph>
<glyph name="hookpalatalizedbelowcomb" format="2">
  <unicode hex="0321"/>
  <anchor x="-166" y="0" name="_bottom"/>
  <anchor x="-270" y="-492" name="bottom"/>
  <outline>
    <contour>
      <point x="-301" y="-492" type="curve" smooth="yes"/>
      <point x="-197" y="-492"/>
      <point x="-145" y="-422"/>
      <point x="-121" y="-309" type="curve" smooth="yes"/>
      <point x="-39" y="68" type="line"/>
      <point x="-92" y="68" type="line"/>
      <point x="-174" y="-309" type="line" smooth="yes"/>
      <point x="-195" y="-403"/>
      <point x="-231" y="-440"/>
      <point x="-295" y="-440" type="curve" smooth="yes"/>
      <point x="-342" y="-440"/>
      <point x="-367" y="-430"/>
      <point x="-383" y="-418" type="curve"/>
      <point x="-383" y="-475" type="line"/>
      <point x="-369" y="-481"/>
      <point x="-342" y="-492"/>
    </contour>
  </outline>
</glyph>
<glyph name="lowlinecomb" format="2">
  <unicode hex="0332"/>
  <anchor x="-117" y="0" name="_bottom"/>
  <anchor x="-178" y="-287" name="bottom"/>
  <outline>
    <contour>
      <point x="-561" y="-287" type="line"/>
      <point x="209" y="-287" type="line"/>
      <point x="217" y="-236" type="line"/>
      <point x="-551" y="-236" type="line"/>
    </contour>
  </outline>
</glyph>
<glyph name="strokelongoverlaycomb" format="2">
  <unicode hex="0336"/>
  <anchor x="10" y="580" name="_center"/>
  <outline>
    <contour>
      <point x="-621" y="553" type="line"/>
      <point x="631" y="553" type="line"/>
      <point x="641" y="604" type="line"/>
      <point x="-610" y="604" type="line"/>
    </contour>
  </outline>
</glyph>
<glyph name="slashshortoverlaycomb" format="2">
  <unicode hex="0337"/>
  <anchor x="12" y="594" name="_center"/>
  <outline>
    <contour>
      <point x="-219" y="434" type="line"/>
      <point x="266" y="713" type="line"/>
      <point x="242" y="752" type="line"/>
      <point x="-244" y="473" type="line"/>
    </contour>
  </outline>
</glyph>
<glyph name="slashlongoverlaycomb" format="2">
  <unicode hex="0338"/>
  <anchor x="57" y="723" name="_center"/>
  <outline>
    <contour>
      <point x="-438" y="-115" type="line"/>
      <point x="-381" y="-115" type="line"/>
      <point x="553" y="1559" type="line"/>
      <point x="496" y="1559" type="line"/>
    </contour>
  </outline>
</glyph>
<glyph name="seagullbelowcomb" format="2">
  <unicode hex="033C"/>
  <anchor x="-125" y="0" name="_bottom"/>
  <anchor x="-193" y="-311" name="bottom"/>
  <outline>
    <contour>
      <point x="-467" y="-311" type="curve"/>
      <point x="-416" y="-311" type="line"/>
      <point x="-397" y="-219"/>
      <point x="-346" y="-176"/>
      <point x="-285" y="-176" type="curve" smooth="yes"/>
      <point x="-213" y="-176"/>
      <point x="-180" y="-223"/>
      <point x="-201" y="-311" type="curve"/>
      <point x="-150" y="-311" type="line"/>
      <point x="-133" y="-219"/>
      <point x="-74" y="-176"/>
      <point x="-12" y="-176" type="curve" smooth="yes"/>
      <point x="63" y="-176"/>
      <point x="82" y="-231"/>
      <point x="63" y="-311" type="curve"/>
      <point x="115" y="-311" type="line"/>
      <point x="121" y="-285"/>
      <point x="123" y="-264"/>
      <point x="123" y="-240" type="curve" smooth="yes"/>
      <point x="123" y="-174"/>
      <point x="76" y="-125"/>
      <point x="-8" y="-125" type="curve" smooth="yes"/>
      <point x="-66" y="-125"/>
      <point x="-129" y="-166"/>
      <point x="-158" y="-219" type="curve"/>
      <point x="-170" y="-166"/>
      <point x="-215" y="-125"/>
      <point x="-279" y="-125" type="curve" smooth="yes"/>
      <point x="-360" y="-125"/>
      <point x="-436" y="-168"/>
    </contour>
  </outline>
</glyph>
<glyph name="xabovecomb" format="2">
  <unicode hex="033D"/>
  <anchor x="111" y="1081" name="_top"/>
  <anchor x="207" y="1528" name="top"/>
  <outline>
    <contour>
      <point x="41" y="1225" type="line"/>
      <point x="172" y="1339" type="line"/>
      <point x="260" y="1223" type="line"/>
      <point x="303" y="1255" type="line"/>
      <point x="213" y="1374" type="line"/>
      <point x="344" y="1487" type="line"/>
      <point x="307" y="1528" type="line"/>
      <point x="182" y="1417" type="line"/>
      <point x="98" y="1528" type="line"/>
      <point x="55" y="1495" type="line"/>
      <point x="141" y="1382" type="line"/>
      <point x="4" y="1266" type="line"/>
    </contour>
  </outline>
</glyph>
<glyph name="nottildeabovecomb" format="2">
  <unicode hex="034A"/>
  <anchor x="111" y="1081" name="_top"/>
  <anchor x="217" y="1589" name="top"/>
  <outline>
    <contour>
      <point x="66" y="1176" type="line"/>
      <point x="176" y="1346" type="line"/>
      <point x="215" y="1311"/>
      <point x="258" y="1280"/>
      <point x="311" y="1280" type="curve" smooth="yes"/>
      <point x="424" y="1280"/>
      <point x="477" y="1354"/>
      <point x="514" y="1483" type="curve"/>
      <point x="463" y="1483" type="line"/>
      <point x="424" y="1358"/>
      <point x="373" y="1329"/>
      <point x="313" y="1329" type="curve" smooth="yes"/>
      <point x="274" y="1329"/>
      <point x="242" y="1358"/>
      <point x="205" y="1389" type="curve"/>
      <point x="322" y="1567" type="line"/>
      <point x="283" y="1589" type="line"/>
      <point x="172" y="1419" type="line"/>
      <point x="133" y="1452"/>
      <point x="88" y="1483"/>
      <point x="31" y="1483" type="curve" smooth="yes"/>
      <point x="-76" y="1483"/>
      <point x="-131" y="1415"/>
      <point x="-166" y="1282" type="curve"/>
      <point x="-115" y="1282" type="line"/>
      <point x="-78" y="1405"/>
      <point x="-27" y="1434"/>
      <point x="29" y="1434" type="curve" smooth="yes"/>
      <point x="72" y="1434"/>
      <point x="106" y="1407"/>
      <point x="143" y="1376" type="curve"/>
      <point x="27" y="1198" type="line"/>
    </contour>
  </outline>
</glyph>
<glyph name="homotheticabovecomb" format="2">
  <unicode hex="034B"/>
  <anchor x="111" y="1081" name="_top"/>
  <anchor x="268" y="1817" name="top"/>
  <outline>
    <contour>
      <point x="-131" y="1440" type="curve"/>
      <point x="-80" y="1440" type="line"/>
      <point x="-43" y="1563"/>
      <point x="8" y="1591"/>
      <point x="63" y="1591" type="curve" smooth="yes"/>
      <point x="166" y="1591"/>
      <point x="227" y="1438"/>
      <point x="346" y="1438" type="curve" smooth="yes"/>
      <point x="459" y="1438"/>
      <point x="512" y="1511"/>
      <point x="549" y="1640" type="curve"/>
      <point x="498" y="1640" type="line"/>
      <point x="459" y="1516"/>
      <point x="408" y="1487"/>
      <point x="348" y="1487" type="curve" smooth="yes"/>
      <point x="258" y="1487"/>
      <point x="197" y="1640"/>
      <point x="66" y="1640" type="curve" smooth="yes"/>
      <point x="-41" y="1640"/>
      <point x="-96" y="1573"/>
    </contour>
    <contour>
      <point x="156" y="1264" type="curve" smooth="yes"/>
      <point x="201" y="1264"/>
      <point x="217" y="1311"/>
      <point x="217" y="1348" type="curve" smooth="yes"/>
      <point x="217" y="1372"/>
      <point x="205" y="1391"/>
      <point x="176" y="1391" type="curve" smooth="yes"/>
      <point x="131" y="1391"/>
      <point x="117" y="1341"/>
      <point x="117" y="1307" type="curve" smooth="yes"/>
      <point x="117" y="1282"/>
      <point x="129" y="1264"/>
    </contour>
    <contour>
      <point x="240" y="1690" type="curve" smooth="yes"/>
      <point x="285" y="1690"/>
      <point x="301" y="1737"/>
      <point x="301" y="1774" type="curve" smooth="yes"/>
      <point x="301" y="1798"/>
      <point x="289" y="1817"/>
      <point x="260" y="1817" type="curve" smooth="yes"/>
      <point x="215" y="1817"/>
      <point x="201" y="1767"/>
      <point x="201" y="1733" type="curve" smooth="yes"/>
      <point x="201" y="1708"/>
      <point x="213" y="1690"/>
    </contour>
  </outline>
</glyph>
<glyph name="almostequaltoabovecomb" format="2">
  <unicode hex="034C"/>
  <anchor x="119" y="1081" name="_top"/>
  <anchor x="260" y="1753" name="top"/>
  <outline>
    <contour>
      <point x="-100" y="1552" type="curve"/>
      <point x="-49" y="1552" type="line"/>
      <point x="-12" y="1675"/>
      <point x="39" y="1704"/>
      <point x="94" y="1704" type="curve" smooth="yes"/>
      <point x="145" y="1704"/>
      <point x="186" y="1665"/>
      <point x="229" y="1626" type="curve" smooth="yes"/>
      <point x="272" y="1587"/>
      <point x="317" y="1550"/>
      <point x="377" y="1550" type="curve" smooth="yes"/>
      <point x="489" y="1550"/>
      <point x="543" y="1624"/>
      <point x="580" y="1753" type="curve"/>
      <point x="528" y="1753" type="line"/>
      <point x="489" y="1628"/>
      <point x="438" y="1599"/>
      <point x="379" y="1599" type="curve" smooth="yes"/>
      <point x="338" y="1599"/>
      <point x="301" y="1632"/>
      <point x="262" y="1667" type="curve" smooth="yes"/>
      <point x="217" y="1708"/>
      <point x="166" y="1753"/>
      <point x="96" y="1753" type="curve" smooth="yes"/>
      <point x="-10" y="1753"/>
      <point x="-66" y="1686"/>
    </contour>
    <contour>
      <point x="-162" y="1266" type="curve"/>
      <point x="-111" y="1266" type="line"/>
      <point x="-74" y="1389"/>
      <point x="-23" y="1417"/>
      <point x="33" y="1417" type="curve" smooth="yes"/>
      <point x="82" y="1417"/>
      <point x="123" y="1380"/>
      <point x="164" y="1343" type="curve" smooth="yes"/>
      <point x="209" y="1305"/>
      <point x="254" y="1264"/>
      <point x="315" y="1264" type="curve" smooth="yes"/>
      <point x="428" y="1264"/>
      <point x="481" y="1337"/>
      <point x="518" y="1466" type="curve"/>
      <point x="467" y="1466" type="line"/>
      <point x="428" y="1341"/>
      <point x="377" y="1313"/>
      <point x="317" y="1313" type="curve" smooth="yes"/>
      <point x="274" y="1313"/>
      <point x="238" y="1348"/>
      <point x="199" y="1384" type="curve" smooth="yes"/>
      <point x="154" y="1423"/>
      <point x="104" y="1466"/>
      <point x="35" y="1466" type="curve" smooth="yes"/>
      <point x="-72" y="1466"/>
      <point x="-127" y="1399"/>
    </contour>
  </outline>
</glyph>
<glyph name="arrowheadrightabovecomb" format="2">
  <unicode hex="0350"/>
  <anchor x="102" y="1081" name="_top"/>
  <anchor x="221" y="1642" name="top"/>
  <outline>
    <contour>
      <point x="12" y="1204" type="line"/>
      <point x="25" y="1204" type="line"/>
      <point x="178" y="1311"/>
      <point x="264" y="1366"/>
      <point x="336" y="1405" type="curve"/>
      <point x="336" y="1444" type="line"/>
      <point x="252" y="1487"/>
      <point x="104" y="1581"/>
      <point x="25" y="1642" type="curve"/>
      <point x="12" y="1642" type="line"/>
      <point x="12" y="1599" type="line"/>
      <point x="78" y="1540"/>
      <point x="168" y="1475"/>
      <point x="244" y="1423" type="curve"/>
      <point x="174" y="1376"/>
      <point x="90" y="1311"/>
      <point x="12" y="1247" type="curve"/>
    </contour>
  </outline>
</glyph>
<glyph name="arrowheadrightbelowcomb" format="2">
  <unicode hex="0355"/>
  <anchor x="-27" y="0" name="_bottom"/>
  <anchor x="-131" y="-492" name="bottom"/>
  <outline>
    <contour>
      <point x="-246" y="-492" type="line"/>
      <point x="-231" y="-492" type="line"/>
      <point x="-80" y="-385"/>
      <point x="6" y="-330"/>
      <point x="78" y="-293" type="curve"/>
      <point x="78" y="-254" type="line"/>
      <point x="-6" y="-209"/>
      <point x="-152" y="-117"/>
      <point x="-231" y="-53" type="curve"/>
      <point x="-246" y="-53" type="line"/>
      <point x="-246" y="-96" type="line"/>
      <point x="-180" y="-156"/>
      <point x="-88" y="-221"/>
      <point x="-12" y="-274" type="curve"/>
      <point x="-82" y="-319"/>
      <point x="-168" y="-385"/>
      <point x="-246" y="-449" type="curve"/>
    </contour>
  </outline>
</glyph>
<glyph name="zigzagabovecomb" format="2">
  <unicode hex="035B"/>
  <anchor x="115" y="1081" name="_top"/>
  <anchor x="219" y="1573" name="top"/>
  <outline>
    <contour>
      <point x="184" y="1243" type="line"/>
      <point x="242" y="1243" type="line"/>
      <point x="360" y="1434" type="line"/>
      <point x="98" y="1434" type="line"/>
      <point x="182" y="1573" type="line"/>
      <point x="125" y="1573" type="line"/>
      <point x="6" y="1382" type="line"/>
      <point x="268" y="1382" type="line"/>
    </contour>
  </outline>
</glyph>
<glyph name="tildedoublecomb" format="2">
  <unicode hex="0360"/>
  <anchor x="647" y="1081" name="_top"/>
  <anchor x="725" y="1454" name="top"/>
  <outline>
    <contour>
      <point x="25" y="1260" type="curve"/>
      <point x="92" y="1260" type="line"/>
      <point x="133" y="1335"/>
      <point x="240" y="1401"/>
      <point x="399" y="1401" type="curve" smooth="yes"/>
      <point x="641" y="1401"/>
      <point x="696" y="1253"/>
      <point x="1004" y="1253" type="curve" smooth="yes"/>
      <point x="1180" y="1253"/>
      <point x="1298" y="1313"/>
      <point x="1384" y="1452" type="curve"/>
      <point x="1317" y="1452" type="line"/>
      <point x="1280" y="1380"/>
      <point x="1198" y="1307"/>
      <point x="1010" y="1307" type="curve" smooth="yes"/>
      <point x="733" y="1307"/>
      <point x="668" y="1454"/>
      <point x="416" y="1454" type="curve" smooth="yes"/>
      <point x="233" y="1454"/>
      <point x="109" y="1397"/>
    </contour>
  </outline>
</glyph>
<glyph name="breveinverteddoublecomb" format="2">
  <unicode hex="0361"/>
  <anchor x="-463" y="1188" name="_top"/>
  <anchor x="225" y="1677" name="top"/>
  <outline>
    <contour>
      <point x="-506" y="1331" type="curve"/>
      <point x="-440" y="1331" type="line"/>
      <point x="-315" y="1536"/>
      <point x="-72" y="1626"/>
      <point x="240" y="1626" type="curve" smooth="yes"/>
      <point x="598" y="1626"/>
      <point x="791" y="1485"/>
      <point x="829" y="1331" type="curve"/>
      <point x="885" y="1331" type="line"/>
      <point x="838" y="1530"/>
      <point x="623" y="1677"/>
      <point x="238" y="1677" type="curve" smooth="yes"/>
      <point x="-61" y="1677"/>
      <point x="-344" y="1595"/>
    </contour>
  </outline>
</glyph>
<glyph name="uni0375" format="2">
  <advance width="338"/>
  <unicode hex="0375"/>
  <outline>
    <contour>
      <point x="-113" y="-455" type="line"/>
      <point x="-55" y="-455" type="line"/>
      <point x="-20" y="-367"/>
      <point x="66" y="-207"/>
      <point x="113" y="-154" type="curve"/>
      <point x="113" y="-127" type="line"/>
      <point x="92" y="-127" type="line"/>
      <point x="8" y="-201"/>
      <point x="-111" y="-395"/>
      <point x="-113" y="-434" type="curve"/>
    </contour>
  </outline>
</glyph>
<glyph name="tonos" format="2">
  <advance width="1110"/>
  <unicode hex="0384"/>
  <anchor x="711" y="1081" name="_top"/>
  <outline>
    <contour>
      <point x="666" y="1241" type="line"/>
      <point x="702" y="1241" type="line"/>
      <point x="770" y="1346"/>
      <point x="862" y="1509"/>
      <point x="909" y="1634" type="curve"/>
      <point x="909" y="1653" type="line"/>
      <point x="854" y="1653" type="line"/>
      <point x="811" y="1524"/>
      <point x="727" y="1358"/>
      <point x="666" y="1255" type="curve"/>
    </contour>
  </outline>
</glyph>
<glyph name="Lambda" format="2">
  <advance width="1120"/>
  <unicode hex="039B"/>
  <anchor x="446" y="0" name="bottom"/>
  <anchor x="758" y="1462" name="top"/>
  <outline>
    <contour>
      <point x="-102" y="0" type="line"/>
      <point x="-43" y="0" type="line"/>
      <point x="635" y="1167" type="line" smooth="yes"/>
      <point x="688" y="1257"/>
      <point x="731" y="1335"/>
      <point x="762" y="1397" type="curve"/>
      <point x="770" y="1333"/>
      <point x="784" y="1241"/>
      <point x="795" y="1174" type="curve" smooth="yes"/>
      <point x="969" y="0" type="line"/>
      <point x="1020" y="0" type="line"/>
      <point x="803" y="1466" type="line"/>
      <point x="754" y="1466" type="line"/>
    </contour>
  </outline>
</glyph>
<glyph name="Xi" format="2">
  <advance width="1059"/>
  <unicode hex="039E"/>
  <anchor x="422" y="0" name="bottom"/>
  <anchor x="733" y="1462" name="top"/>
  <outline>
    <contour>
      <point x="0" y="0" type="line"/>
      <point x="825" y="0" type="line"/>
      <point x="836" y="51" type="line"/>
      <point x="8" y="51" type="line"/>
    </contour>
    <contour>
      <point x="270" y="745" type="line"/>
      <point x="889" y="745" type="line"/>
      <point x="899" y="797" type="line"/>
      <point x="281" y="797" type="line"/>
    </contour>
    <contour>
      <point x="315" y="1411" type="line"/>
      <point x="1122" y="1411" type="line"/>
      <point x="1133" y="1462" type="line"/>
      <point x="326" y="1462" type="line"/>
    </contour>
  </outline>
</glyph>
<glyph name="alpha" format="2">
  <advance width="1110"/>
  <unicode hex="03B1"/>
  <anchor x="440" y="0" name="bottom"/>
  <anchor x="670" y="1081" name="top"/>
  <outline>
    <contour>
      <point x="399" y="-20" type="curve" smooth="yes"/>
      <point x="621" y="-20"/>
      <point x="764" y="166"/>
      <point x="825" y="285" type="curve"/>
      <point x="829" y="285" type="line"/>
      <point x="770" y="68"/>
      <point x="819" y="-20"/>
      <point x="934" y="-20" type="curve" smooth="yes"/>
      <point x="961" y="-20"/>
      <point x="987" y="-14"/>
      <point x="1006" y="-4" type="curve"/>
      <point x="1006" y="43" type="line"/>
      <point x="983" y="35"/>
      <point x="961" y="31"/>
      <point x="936" y="31" type="curve" smooth="yes"/>
      <point x="893" y="31"/>
      <point x="856" y="57"/>
      <point x="856" y="125" type="curve" smooth="yes"/>
      <point x="856" y="160"/>
      <point x="862" y="203"/>
      <point x="870" y="242" type="curve"/>
      <point x="967" y="707" type="line"/>
      <point x="1008" y="893"/>
      <point x="1042" y="991"/>
      <point x="1100" y="1081" type="curve"/>
      <point x="1053" y="1081" type="line"/>
      <point x="1006" y="1020"/>
      <point x="963" y="901"/>
      <point x="946" y="834" type="curve"/>
      <point x="942" y="834" type="line"/>
      <point x="920" y="979"/>
      <point x="827" y="1102"/>
      <point x="651" y="1102" type="curve" smooth="yes"/>
      <point x="281" y="1102"/>
      <point x="104" y="680"/>
      <point x="104" y="371" type="curve" smooth="yes"/>
      <point x="104" y="123"/>
      <point x="215" y="-20"/>
    </contour>
    <contour>
      <point x="408" y="31" type="curve" smooth="yes"/>
      <point x="244" y="31"/>
      <point x="160" y="156"/>
      <point x="160" y="371" type="curve" smooth="yes"/>
      <point x="160" y="664"/>
      <point x="317" y="1051"/>
      <point x="651" y="1051" type="curve" smooth="yes"/>
      <point x="797" y="1051"/>
      <point x="905" y="948"/>
      <point x="905" y="737" type="curve" smooth="yes"/>
      <point x="905" y="692"/>
      <point x="893" y="604"/>
      <point x="868" y="500" type="curve" smooth="yes"/>
      <point x="803" y="225"/>
      <point x="600" y="31"/>
    </contour>
  </outline>
</glyph>
<glyph name="epsilon" format="2">
  <advance width="870"/>
  <unicode hex="03B5"/>
  <anchor x="322" y="0" name="bottom"/>
  <anchor x="551" y="1081" name="top"/>
  <outline>
    <contour>
      <point x="383" y="-20" type="curve" smooth="yes"/>
      <point x="514" y="-20"/>
      <point x="629" y="10"/>
      <point x="698" y="41" type="curve"/>
      <point x="698" y="92" type="line"/>
      <point x="598" y="53"/>
      <point x="502" y="31"/>
      <point x="385" y="31" type="curve" smooth="yes"/>
      <point x="201" y="31"/>
      <point x="109" y="123"/>
      <point x="109" y="256" type="curve" smooth="yes"/>
      <point x="109" y="465"/>
      <point x="254" y="551"/>
      <point x="522" y="551" type="curve" smooth="yes"/>
      <point x="639" y="551" type="line"/>
      <point x="649" y="602" type="line"/>
      <point x="545" y="602" type="line" smooth="yes"/>
      <point x="334" y="602"/>
      <point x="256" y="678"/>
      <point x="256" y="788" type="curve" smooth="yes"/>
      <point x="256" y="979"/>
      <point x="403" y="1051"/>
      <point x="598" y="1051" type="curve" smooth="yes"/>
      <point x="702" y="1051"/>
      <point x="803" y="1026"/>
      <point x="870" y="991" type="curve"/>
      <point x="889" y="1040" type="line"/>
      <point x="807" y="1081"/>
      <point x="715" y="1102"/>
      <point x="598" y="1102" type="curve" smooth="yes"/>
      <point x="403" y="1102"/>
      <point x="201" y="1032"/>
      <point x="201" y="786" type="curve" smooth="yes"/>
      <point x="201" y="694"/>
      <point x="256" y="616"/>
      <point x="352" y="584" type="curve"/>
      <point x="350" y="580" type="line"/>
      <point x="170" y="551"/>
      <point x="53" y="444"/>
      <point x="53" y="256" type="curve" smooth="yes"/>
      <point x="53" y="102"/>
      <point x="158" y="-20"/>
    </contour>
  </outline>
</glyph>
<glyph name="pi" format="2">
  <advance width="1176"/>
  <unicode hex="03C0"/>
  <anchor x="473" y="0" name="bottom"/>
  <anchor x="702" y="1081" name="top"/>
  <outline>
    <contour>
      <point x="893" y="-20" type="curve" smooth="yes"/>
      <point x="930" y="-20"/>
      <point x="958" y="-14"/>
      <point x="981" y="-6" type="curve"/>
      <point x="981" y="43" type="line"/>
      <point x="963" y="37"/>
      <point x="940" y="31"/>
      <point x="901" y="31" type="curve" smooth="yes"/>
      <point x="838" y="31"/>
      <point x="809" y="61"/>
      <point x="809" y="127" type="curve" smooth="yes"/>
      <point x="809" y="150"/>
      <point x="813" y="174"/>
      <point x="819" y="205" type="curve" smooth="yes"/>
      <point x="995" y="1030" type="line"/>
      <point x="1208" y="1030" type="line"/>
      <point x="1219" y="1081" type="line"/>
      <point x="319" y="1081" type="line"/>
      <point x="152" y="1079" type="line"/>
      <point x="141" y="1030" type="line"/>
      <point x="350" y="1030" type="line"/>
      <point x="131" y="0" type="line"/>
      <point x="184" y="0" type="line"/>
      <point x="403" y="1030" type="line"/>
      <point x="942" y="1030" type="line"/>
      <point x="766" y="205" type="line" smooth="yes"/>
      <point x="758" y="166"/>
      <point x="754" y="141"/>
      <point x="754" y="119" type="curve" smooth="yes"/>
      <point x="754" y="27"/>
      <point x="803" y="-20"/>
    </contour>
  </outline>
</glyph>
<glyph name="sigma1" format="2">
  <advance width="901"/>
  <unicode hex="03C2"/>
  <anchor x="250" y="-403" name="bottom"/>
  <anchor x="565" y="1081" name="top"/>
  <outline>
    <contour>
      <point x="469" y="-403" type="curve"/>
      <point x="532" y="-403" type="line"/>
      <point x="608" y="-319"/>
      <point x="670" y="-236"/>
      <point x="670" y="-127" type="curve" smooth="yes"/>
      <point x="670" y="-6"/>
      <point x="569" y="41"/>
      <point x="426" y="84" type="curve" smooth="yes"/>
      <point x="248" y="137"/>
      <point x="168" y="242"/>
      <point x="168" y="420" type="curve" smooth="yes"/>
      <point x="168" y="768"/>
      <point x="367" y="1051"/>
      <point x="672" y="1051" type="curve" smooth="yes"/>
      <point x="745" y="1051"/>
      <point x="838" y="1036"/>
      <point x="905" y="1001" type="curve"/>
      <point x="928" y="1053" type="line"/>
      <point x="862" y="1085"/>
      <point x="764" y="1102"/>
      <point x="672" y="1102" type="curve" smooth="yes"/>
      <point x="319" y="1102"/>
      <point x="113" y="780"/>
      <point x="113" y="420" type="curve" smooth="yes"/>
      <point x="113" y="213"/>
      <point x="209" y="94"/>
      <point x="408" y="35" type="curve" smooth="yes"/>
      <point x="543" y="-6"/>
      <point x="616" y="-41"/>
      <point x="616" y="-129" type="curve" smooth="yes"/>
      <point x="616" y="-240"/>
      <point x="528" y="-332"/>
    </contour>
  </outline>
</glyph>
<glyph name="upsilon" format="2">
  <advance width="1145"/>
  <unicode hex="03C5"/>
  <anchor x="459" y="0" name="bottom"/>
  <anchor x="688" y="1081" name="top"/>
  <outline>
    <contour>
      <point x="461" y="-20" type="curve" smooth="yes"/>
      <point x="950" y="-20"/>
      <point x="1028" y="610"/>
      <point x="1028" y="1081" type="curve"/>
      <point x="977" y="1081" type="line"/>
      <point x="977" y="659"/>
      <point x="907" y="31"/>
      <point x="467" y="31" type="curve" smooth="yes"/>
      <point x="291" y="31"/>
      <point x="184" y="117"/>
      <point x="184" y="307" type="curve" smooth="yes"/>
      <point x="184" y="360"/>
      <point x="190" y="422"/>
      <point x="203" y="481" type="curve" smooth="yes"/>
      <point x="330" y="1081" type="line"/>
      <point x="276" y="1081" type="line"/>
      <point x="150" y="477" type="line" smooth="yes"/>
      <point x="137" y="416"/>
      <point x="129" y="356"/>
      <point x="129" y="307" type="curve" smooth="yes"/>
      <point x="129" y="92"/>
      <point x="256" y="-20"/>
    </contour>
  </outline>
</glyph>
<glyph name="phi" format="2">
  <advance width="1290"/>
  <unicode hex="03C6"/>
  <anchor x="430" y="-475" name="bottom"/>
  <anchor x="760" y="1081" name="top"/>
  <outline>
    <contour>
      <point x="387" y="-475" type="line"/>
      <point x="440" y="-475" type="line"/>
      <point x="537" y="-25" type="line"/>
      <point x="958" y="-25"/>
      <point x="1200" y="332"/>
      <point x="1200" y="735" type="curve" smooth="yes"/>
      <point x="1200" y="950"/>
      <point x="1118" y="1102"/>
      <point x="948" y="1102" type="curve" smooth="yes"/>
      <point x="776" y="1102"/>
      <point x="702" y="993"/>
      <point x="653" y="766" type="curve" smooth="yes"/>
      <point x="492" y="29" type="line"/>
      <point x="272" y="43"/>
      <point x="156" y="184"/>
      <point x="156" y="414" type="curve" smooth="yes"/>
      <point x="156" y="723"/>
      <point x="285" y="913"/>
      <point x="457" y="1061" type="curve"/>
      <point x="422" y="1096" type="line"/>
      <point x="217" y="928"/>
      <point x="100" y="700"/>
      <point x="100" y="414" type="curve" smooth="yes"/>
      <point x="100" y="168"/>
      <point x="227" y="-4"/>
      <point x="483" y="-23" type="curve"/>
    </contour>
    <contour>
      <point x="545" y="27" type="curve"/>
      <point x="707" y="768" type="line" smooth="yes"/>
      <point x="752" y="973"/>
      <point x="815" y="1051"/>
      <point x="942" y="1051" type="curve" smooth="yes"/>
      <point x="1081" y="1051"/>
      <point x="1145" y="924"/>
      <point x="1145" y="735" type="curve" smooth="yes"/>
      <point x="1145" y="371"/>
      <point x="928" y="27"/>
    </contour>
  </outline>
</glyph>
<glyph name="chi" format="2">
  <advance width="967"/>
  <unicode hex="03C7"/>
  <anchor x="264" y="-492" name="bottom"/>
  <anchor x="598" y="1081" name="top"/>
  <anchor x="1040" y="1081" name="topright"/>
  <outline>
    <contour>
      <point x="-186" y="-492" type="line"/>
      <point x="-121" y="-492" type="line"/>
      <point x="408" y="274" type="line"/>
      <point x="494" y="-268" type="line" smooth="yes"/>
      <point x="516" y="-412"/>
      <point x="545" y="-492"/>
      <point x="653" y="-492" type="curve" smooth="yes"/>
      <point x="682" y="-492"/>
      <point x="707" y="-485"/>
      <point x="725" y="-479" type="curve"/>
      <point x="725" y="-430" type="line"/>
      <point x="705" y="-436"/>
      <point x="686" y="-440"/>
      <point x="659" y="-440" type="curve" smooth="yes"/>
      <point x="592" y="-440"/>
      <point x="563" y="-383"/>
      <point x="543" y="-252" type="curve" smooth="yes"/>
      <point x="453" y="322" type="line"/>
      <point x="983" y="1081" type="line"/>
      <point x="918" y="1081" type="line"/>
      <point x="430" y="377" type="line"/>
      <point x="334" y="956" type="line" smooth="yes"/>
      <point x="322" y="1036"/>
      <point x="287" y="1100"/>
      <point x="209" y="1100" type="curve" smooth="yes"/>
      <point x="174" y="1100"/>
      <point x="145" y="1092"/>
      <point x="125" y="1083" type="curve"/>
      <point x="125" y="1034" type="line"/>
      <point x="147" y="1042"/>
      <point x="170" y="1049"/>
      <point x="199" y="1049" type="curve" smooth="yes"/>
      <point x="242" y="1049"/>
      <point x="268" y="1020"/>
      <point x="283" y="942" type="curve" smooth="yes"/>
      <point x="387" y="332" type="line"/>
    </contour>
  </outline>
</glyph>
<glyph name="omega" format="2">
  <advance width="1413"/>
  <unicode hex="03C9"/>
  <anchor x="592" y="0" name="bottom"/>
  <anchor x="821" y="1081" name="top"/>
  <outline>
    <contour>
      <point x="358" y="-20" type="curve" smooth="yes"/>
      <point x="492" y="-20"/>
      <point x="584" y="61"/>
      <point x="635" y="190" type="curve"/>
      <point x="641" y="68"/>
      <point x="715" y="-20"/>
      <point x="856" y="-20" type="curve" smooth="yes"/>
      <point x="1223" y="-20"/>
      <point x="1309" y="494"/>
      <point x="1309" y="774" type="curve" smooth="yes"/>
      <point x="1309" y="891"/>
      <point x="1296" y="991"/>
      <point x="1282" y="1081" type="curve"/>
      <point x="1229" y="1081" type="line"/>
      <point x="1245" y="989"/>
      <point x="1253" y="881"/>
      <point x="1253" y="774" type="curve" smooth="yes"/>
      <point x="1253" y="494"/>
      <point x="1165" y="31"/>
      <point x="858" y="31" type="curve" smooth="yes"/>
      <point x="739" y="31"/>
      <point x="680" y="102"/>
      <point x="680" y="229" type="curve" smooth="yes"/>
      <point x="680" y="264"/>
      <point x="684" y="305"/>
      <point x="694" y="350" type="curve" smooth="yes"/>
      <point x="768" y="692" type="line"/>
      <point x="715" y="692" type="line"/>
      <point x="641" y="350" type="line" smooth="yes"/>
      <point x="598" y="150"/>
      <point x="506" y="31"/>
      <point x="362" y="31" type="curve" smooth="yes"/>
      <point x="229" y="31"/>
      <point x="156" y="119"/>
      <point x="156" y="317" type="curve" smooth="yes"/>
      <point x="156" y="600"/>
      <point x="264" y="848"/>
      <point x="428" y="1081" type="curve"/>
      <point x="371" y="1081" type="line"/>
      <point x="203" y="854"/>
      <point x="100" y="592"/>
      <point x="100" y="313" type="curve" smooth="yes"/>
      <point x="100" y="88"/>
      <point x="193" y="-20"/>
    </contour>
  </outline>
</glyph>
<glyph name="KaiSymbol" format="2">
  <advance width="1112"/>
  <unicode hex="03CF"/>
  <outline>
    <contour>
      <point x="373" y="-498" type="curve" smooth="yes"/>
      <point x="731" y="-498"/>
      <point x="887" y="-266"/>
      <point x="991" y="0" type="curve"/>
      <point x="580" y="848" type="line"/>
      <point x="1288" y="1462" type="line"/>
      <point x="1212" y="1462" type="line"/>
      <point x="414" y="770" type="line"/>
      <point x="297" y="664" type="line"/>
      <point x="467" y="1462" type="line"/>
      <point x="412" y="1462" type="line"/>
      <point x="102" y="0" type="line"/>
      <point x="158" y="0" type="line"/>
      <point x="283" y="596" type="line"/>
      <point x="537" y="811" type="line"/>
      <point x="930" y="0" type="line"/>
      <point x="852" y="-201"/>
      <point x="692" y="-446"/>
      <point x="377" y="-446" type="curve" smooth="yes"/>
      <point x="236" y="-446"/>
      <point x="156" y="-414"/>
      <point x="76" y="-344" type="curve"/>
      <point x="59" y="-403" type="line"/>
      <point x="152" y="-477"/>
      <point x="260" y="-498"/>
    </contour>
  </outline>
</glyph>
